<?xml version="1.0" encoding="utf-8"?>
<!-- Generator: Adobe Illustrator 22.1.0, SVG Export Plug-In . SVG Version: 6.00 Build 0)  -->
<svg version="1.1" id="Layer_1" xmlns="http://www.w3.org/2000/svg" xmlns:xlink="http://www.w3.org/1999/xlink" x="0px" y="0px"
	 viewBox="0 0 128 128" style="enable-background:new 0 0 128 128;" xml:space="preserve">
<style type="text/css">
	.st0{fill:none;stroke:#1D1D1B;stroke-width:4;stroke-linecap:round;stroke-miterlimit:10;}
	.st1{fill:#1D1D1B;}
</style>
<path class="st0" d="M3,103V8.3C3,5.4,5.4,3,8.3,3h111.4c2.9,0,5.3,2.4,5.3,5.3v18.4"/>
<path class="st0" d="M125,56v63.7c0,2.9-2.4,5.3-5.3,5.3H8.3c-2.9,0-5.3-2.4-5.3-5.3v-9.2"/>
<g>
	<path class="st1" d="M102,83c5,0,9,4,9,9s-4,9-9,9s-9-4-9-9S97,83,102,83 M102,79c-7.2,0-13,5.8-13,13s5.8,13,13,13s13-5.8,13-13
		S109.2,79,102,79L102,79z"/>
</g>
<g>
	<path class="st1" d="M64,83c5,0,9,4,9,9s-4,9-9,9s-9-4-9-9S59,83,64,83 M64,79c-7.2,0-13,5.8-13,13s5.8,13,13,13s13-5.8,13-13
		S71.2,79,64,79L64,79z"/>
</g>
<g>
	<path class="st1" d="M27,83c5,0,9,4,9,9s-4,9-9,9s-9-4-9-9S22,83,27,83 M27,79c-7.2,0-13,5.8-13,13s5.8,13,13,13s13-5.8,13-13
		S34.2,79,27,79L27,79z"/>
</g>
<g>
	<path class="st1" d="M102,27c5,0,9,4,9,9s-4,9-9,9s-9-4-9-9S97,27,102,27 M102,23c-7.2,0-13,5.8-13,13s5.8,13,13,13s13-5.8,13-13
		S109.2,23,102,23L102,23z"/>
</g>
<g>
	<path class="st1" d="M64,27c5,0,9,4,9,9s-4,9-9,9s-9-4-9-9S59,27,64,27 M64,23c-7.2,0-13,5.8-13,13s5.8,13,13,13s13-5.8,13-13
		S71.2,23,64,23L64,23z"/>
</g>
<g>
	<path class="st1" d="M27,27c5,0,9,4,9,9s-4,9-9,9s-9-4-9-9S22,27,27,27 M27,23c-7.2,0-13,5.8-13,13s5.8,13,13,13s13-5.8,13-13
		S34.2,23,27,23L27,23z"/>
</g>
<line class="st0" x1="125" y1="33" x2="125" y2="36"/>
<line class="st0" x1="125" y1="43" x2="125" y2="43"/>
</svg>
