<?xml version="1.0" encoding="utf-8"?>
<!-- Generator: Adobe Illustrator 22.1.0, SVG Export Plug-In . SVG Version: 6.00 Build 0)  -->
<svg version="1.1" id="Layer_1" xmlns="http://www.w3.org/2000/svg" xmlns:xlink="http://www.w3.org/1999/xlink" x="0px" y="0px"
	 viewBox="0 0 128 128" style="enable-background:new 0 0 128 128;" xml:space="preserve">
<style type="text/css">
	.st0{fill:#FFFFFF;stroke:#1D1D1B;stroke-width:3;stroke-linecap:round;stroke-linejoin:round;stroke-miterlimit:10;}
	.st1{fill:none;}
	.st2{fill:none;stroke:#BE1819;stroke-width:3;stroke-linejoin:round;stroke-miterlimit:10;}
	.st3{fill:none;stroke:#BE1819;stroke-width:3;stroke-linecap:round;stroke-linejoin:round;stroke-miterlimit:10;}
	.st4{fill:none;stroke:#1D1D1B;stroke-width:3;stroke-linecap:round;stroke-linejoin:round;stroke-miterlimit:10;}
</style>
<path class="st0" d="M101,111.7C90.8,119.4,78.2,124,64.4,124C30.9,124,3.8,96.9,3.8,63.4S30.9,2.8,64.4,2.8S125,29.9,125,63.4
	c0,11.7-3.3,22.6-9,31.8"/>
<path class="st0" d="M108.5,105c-1.1,1.2-2.3,2.3-3.5,3.4"/>
<path class="st0" d="M112.7,100.3c-0.2,0.2-0.4,0.5-0.6,0.7"/>
<path class="st0" d="M92.3,91.8c-0.2,0.3-0.3,0.5-0.5,0.8"/>
<path class="st1" d="M96.6,75.6H32.1c0,17.8,14.4,32.3,32.3,32.3S96.6,93.4,96.6,75.6z"/>
<path class="st2" d="M26.1,31.8c-1.3,2.5-2.1,5.3-2.1,8.3c0,9.6,7.8,17.5,17.5,17.5c6.6,0,12.4-3.7,15.3-9.1L26.1,31.8z"/>
<path class="st3" d="M104.4,36.9c-0.3-1.8-1-3.5-1.8-5.1L72,48.5c3,5.4,8.7,9.1,15.3,9.1c7.3,0,13.6-4.5,16.2-10.9"/>
<polyline class="st4" points="93.9,75.6 83.5,86 73,75.6 "/>
<polyline class="st4" points="55.7,75.6 45.3,86 34.8,75.6 "/>
<path class="st4" d="M94.8,86.4c1.2-3.4,1.8-7,1.8-10.8H32.1c0,17.8,14.4,32.3,32.3,32.3c9.4,0,17.8-4,23.7-10.4"/>
<line class="st3" x1="104.5" y1="42" x2="104.5" y2="42"/>
</svg>
