<?xml version="1.0" encoding="utf-8"?>
<!-- Generator: Adobe Illustrator 22.1.0, SVG Export Plug-In . SVG Version: 6.00 Build 0)  -->
<svg version="1.1" xmlns="http://www.w3.org/2000/svg" xmlns:xlink="http://www.w3.org/1999/xlink" x="0px" y="0px"
	 viewBox="0 0 1000 1000" enable-background="new 0 0 1000 1000" xml:space="preserve">
<g id="Layer_1">
</g>
<g id="Layer_3">
	<g>
		<circle fill="#D4CDB2" cx="499" cy="499" r="499"/>
	</g>
</g>
<g id="Layer_2">
	<g>
		<g>
			<path d="M555.4,516.8c-0.4,0-0.8-0.1-1.1-0.3c-0.9-0.6-1.1-1.9-0.5-2.8c8.1-11.9,19.8-14.7,31.1-17.4c14.6-3.5,29.8-7.1,40-30.1
				c0.4-1,1.6-1.5,2.6-1c1,0.5,1.5,1.6,1,2.6c-11,24.7-27.9,28.8-42.7,32.3c-11,2.6-21.5,5.1-28.7,15.7
				C556.6,516.5,556,516.8,555.4,516.8z"/>
		</g>
		<g>
			<path d="M555.4,516.8c-0.2,0-0.4,0-0.7-0.1c-1-0.4-1.6-1.5-1.2-2.5c4.6-13.1,4.6-25.7,4.7-37.8c0.1-16.5,0.2-32.2,12.2-45.1
				c0.8-0.8,2-0.9,2.8-0.1c0.8,0.8,0.9,2,0.1,2.8c-11,11.8-11.1,26-11.2,42.4c-0.1,12.5-0.1,25.4-4.9,39.1
				C557,516.3,556.2,516.8,555.4,516.8z"/>
		</g>
		<g>
			<path d="M498.6,455.2c-0.8,0-1.5-0.4-1.8-1.2c-0.4-1,0-2.2,1-2.6c15.8-6.9,27.8-8.2,38.3-9.3c11.8-1.3,22-2.3,34.6-11.1
				c0.9-0.6,2.2-0.4,2.8,0.5c0.6,0.9,0.4,2.2-0.5,2.8c-13.4,9.3-24.1,10.4-36.4,11.8c-10.3,1.1-21.9,2.3-37.1,9
				C499.2,455.1,498.9,455.2,498.6,455.2z"/>
		</g>
		<g>
			<path d="M498.6,455.2c-0.4,0-0.7-0.1-1.1-0.3c-0.9-0.6-1.2-1.8-0.6-2.8c9.2-14.4,9.2-26.1,9.2-37.4c0-12.5,0.1-24.3,13.3-36.6
				c0.8-0.8,2.1-0.7,2.8,0.1c0.8,0.8,0.7,2.1-0.1,2.8c-11.9,11.1-12,21.6-12,33.7c0,11.3-0.1,24.2-9.8,39.6
				C499.9,454.8,499.3,455.2,498.6,455.2z"/>
		</g>
		<g>
			<path d="M442.8,408.5c-0.5,0-1.1-0.2-1.4-0.6c-0.8-0.8-0.7-2.1,0.1-2.8c13.9-13.3,26.4-13.6,38.5-14c12-0.3,24.4-0.7,39.6-13.1
				c0.9-0.7,2.1-0.6,2.8,0.3c0.7,0.9,0.6,2.1-0.3,2.8c-16.3,13.3-30,13.7-42,14c-11.9,0.3-23.1,0.7-35.9,12.9
				C443.8,408.3,443.3,408.5,442.8,408.5z"/>
		</g>
		<g>
			<path d="M442.8,408.5c-0.3,0-0.7-0.1-1-0.3c-1-0.5-1.3-1.8-0.8-2.7c8.2-14.8,8.3-26.7,8.3-37.3c0-13.7,0.1-25.5,17-37.9
				c0.9-0.7,2.1-0.5,2.8,0.4c0.7,0.9,0.5,2.1-0.4,2.8c-15.3,11.2-15.3,21.5-15.4,34.7c0,11-0.1,23.6-8.8,39.2
				C444.2,408.1,443.5,408.5,442.8,408.5z"/>
		</g>
		<g>
			<path d="M435.7,342.6c-7.7,0-14.5-1.6-21.1-3.1c-9.9-2.3-19.3-4.5-31.7-1.3c-1.1,0.3-2.2-0.4-2.4-1.4c-0.3-1.1,0.4-2.2,1.4-2.4
				c13.4-3.4,23.7-1.1,33.6,1.2c13.7,3.2,27.8,6.4,51.1-5.5c1-0.5,2.2-0.1,2.7,0.9s0.1,2.2-0.9,2.7
				C455.2,340.5,444.7,342.6,435.7,342.6z"/>
		</g>
		<g>
			<path d="M382.4,338.3c-0.2,0-0.4,0-0.6-0.1c-1.1-0.3-1.6-1.4-1.3-2.5c2.4-7.9,10-16,18-24.6c6.5-7,13.3-14.3,18.4-22.4
				c0.6-0.9,1.8-1.2,2.8-0.6c0.9,0.6,1.2,1.8,0.6,2.8c-5.3,8.4-12.2,15.8-18.8,23c-7.7,8.2-14.9,16-17.1,23.1
				C384,337.8,383.2,338.3,382.4,338.3z"/>
		</g>
		<g>
			<path d="M405,309c-0.2,0-0.4,0-0.7-0.1c-8.3-2.9-16.1-4.2-24.4-5.5c-17.8-2.9-38-6.1-66.3-28c-0.9-0.7-1-1.9-0.4-2.8
				c0.7-0.9,1.9-1,2.8-0.4c27.5,21.2,46.3,24.2,64.5,27.2c8.5,1.4,16.5,2.7,25.1,5.7c1,0.4,1.6,1.5,1.2,2.6
				C406.5,308.5,405.8,309,405,309z"/>
		</g>
		<g>
			<path d="M591,589.8c-0.6,0-1.2-0.3-1.6-0.8c-5-6.9-13.4-21.5-14.2-41.1c-0.8-19.4,6.1-37.6,20.5-54.2c0.7-0.8,2-0.9,2.8-0.2
				c0.8,0.7,0.9,2,0.2,2.8c-36.9,42.5-11.5,82.7-6.1,90.3c0.6,0.9,0.4,2.1-0.5,2.8C591.8,589.7,591.4,589.8,591,589.8z"/>
		</g>
		<g>
			<path d="M591,589.8C591,589.8,591,589.8,591,589.8c-1.2,0-2-1-2-2.1c1.9-66.5,50.4-96.1,82.6-99.8c1.1-0.1,2.1,0.7,2.2,1.8
				c0.1,1.1-0.7,2.1-1.8,2.2c-30.8,3.5-77.2,31.9-79,95.9C593,589,592.1,589.8,591,589.8z"/>
		</g>
		<g>
			<path d="M506,565.3c-0.5,0-1-0.2-1.3-0.5c-0.8-0.7-0.9-2-0.1-2.8c8.1-8.9,18.2-11.1,28.9-13.4c13.4-2.9,28.5-6.2,44.8-23.2
				c0.8-0.8,2-0.8,2.8-0.1c0.8,0.8,0.8,2,0.1,2.8c-17.1,17.9-32.9,21.3-46.8,24.4c-10.5,2.3-19.5,4.2-26.8,12.2
				C507,565.1,506.5,565.3,506,565.3z"/>
		</g>
		<g>
			<path d="M481.8,513.3c-0.8,0-1.6-0.5-1.9-1.3c-0.4-1,0.2-2.2,1.2-2.5c10.1-3.5,20.8-3.3,31.1-3.1c17.1,0.3,33.2,0.6,45.9-15.5
				c0.7-0.9,1.9-1,2.8-0.3c0.9,0.7,1,1.9,0.3,2.8c-14,17.7-31.9,17.4-49.2,17.1c-10-0.2-20.3-0.4-29.7,2.9
				C482.2,513.3,482,513.3,481.8,513.3z"/>
		</g>
		<g>
			<path d="M506,565.3c-0.4,0-0.7-0.1-1-0.3c-0.9-0.6-1.2-1.8-0.7-2.7c6.8-11.3,7.1-19.3,7.4-27.8c0.3-7.9,0.5-16,5.8-27
				c0.5-1,1.7-1.4,2.7-0.9c1,0.5,1.4,1.7,0.9,2.7c-4.9,10.3-5.2,18-5.4,25.4c-0.3,8.6-0.6,17.5-8,29.7
				C507.3,565,506.6,565.3,506,565.3z"/>
		</g>
		<g>
			<path d="M481.8,513.3c-0.3,0-0.7-0.1-1-0.3c-1-0.5-1.3-1.8-0.8-2.7c4.7-8.5,5.5-18,6.3-27.3c1-11.9,1.9-23.2,11-31.4
				c0.8-0.7,2.1-0.7,2.8,0.1c0.7,0.8,0.7,2.1-0.1,2.8c-7.9,7.1-8.7,17.7-9.7,28.8c-0.8,9.7-1.6,19.6-6.8,28.9
				C483.2,513,482.5,513.3,481.8,513.3z"/>
		</g>
		<g>
			<path d="M432,470c-0.7,0-1.4-0.4-1.8-1.1c-0.5-1-0.1-2.2,0.9-2.7c11.9-6.2,23.3-7,35.5-7.8c9.2-0.6,18.7-1.3,29-4.4
				c1.1-0.3,2.2,0.3,2.5,1.3c0.3,1.1-0.3,2.2-1.3,2.5c-10.7,3.3-20.4,3.9-29.8,4.6c-11.7,0.8-22.7,1.6-33.9,7.4
				C432.6,469.9,432.3,470,432,470z"/>
		</g>
		<g>
			<path d="M432,470c-0.3,0-0.5,0-0.8-0.2c-1-0.4-1.5-1.6-1.1-2.6c7.1-17.3,7-25.5,6.9-33.5c-0.1-7.9-0.2-15.4,6.5-30.3
				c0.5-1,1.6-1.5,2.6-1c1,0.5,1.5,1.6,1,2.6c-6.3,14.1-6.2,21.2-6.1,28.6c0.1,8,0.3,17-7.2,35.1C433.5,469.5,432.7,470,432,470z"/>
		</g>
		<g>
			<path d="M388.6,413c-0.9,0-1.6-0.5-1.9-1.4c-0.3-1.1,0.3-2.2,1.3-2.5c12.5-3.9,22.8-4.5,31.8-4.9c8.9-0.5,16.7-0.9,24.6-4.3
				c1-0.4,2.2,0,2.6,1c0.4,1,0,2.2-1,2.6c-8.6,3.7-17.1,4.2-26,4.7c-8.8,0.5-18.8,1-30.8,4.8C389,413,388.8,413,388.6,413z"/>
		</g>
		<g>
			<path d="M388.6,413c-0.3,0-0.5,0-0.8-0.2c-1-0.4-1.5-1.6-1.1-2.6c4.9-11.7,5.7-21.5,6.3-30.2c1.2-15.1,2.3-28.2,24.2-43.3
				c0.9-0.6,2.2-0.4,2.8,0.5c0.6,0.9,0.4,2.2-0.5,2.8c-20.4,14.1-21.3,25.7-22.5,40.4c-0.7,8.9-1.5,19.1-6.6,31.4
				C390.2,412.5,389.4,413,388.6,413z"/>
		</g>
		<g>
			<path d="M374.7,367.1c-7,0-13.4-0.9-19.7-1.8c-8.9-1.3-17.4-2.5-27.6-1.3c-1.1,0.1-2.1-0.6-2.2-1.7c-0.1-1.1,0.6-2.1,1.7-2.2
				c10.7-1.3,19.8,0,28.6,1.3c12.8,1.9,24.9,3.6,42.2-2c1-0.3,2.2,0.2,2.5,1.3c0.3,1.1-0.2,2.2-1.3,2.5
				C389.9,366.1,381.9,367.1,374.7,367.1z"/>
		</g>
		<g>
			<path d="M327.2,364c-0.5,0-1-0.2-1.4-0.5c-0.8-0.8-0.9-2-0.1-2.8c8-8.6,12.1-18.9,16-28.9c5.5-14,10.7-27.2,25.7-34.2
				c1-0.5,2.2,0,2.7,1c0.5,1,0,2.2-1,2.7c-13.5,6.3-18.4,18.8-23.6,32c-4.1,10.4-8.3,21.1-16.8,30.2
				C328.3,363.7,327.8,364,327.2,364z"/>
		</g>
		<g>
			<path d="M327.9,341.7c-21,0-61.8-2.8-82.8-22.8c-0.8-0.8-0.8-2-0.1-2.8c0.8-0.8,2-0.8,2.8-0.1c27.2,25.9,90.2,21.5,92.9,21.3
				c1.1-0.1,2.1,0.7,2.1,1.8c0.1,1.1-0.7,2.1-1.8,2.1C340.3,341.4,335.4,341.7,327.9,341.7z"/>
		</g>
		<g>
			<path d="M272.6,321.3c-8.9,0-17.8-0.6-26.4-1.8c-1.1-0.2-1.9-1.2-1.7-2.3s1.2-1.9,2.3-1.7c42.2,6,95-4.3,106.5-20.8
				c0.6-0.9,1.9-1.1,2.8-0.5c0.9,0.6,1.1,1.9,0.5,2.8C346.5,311.4,309.7,321.3,272.6,321.3z"/>
		</g>
		<g>
			<path d="M552,649.7c-0.5,0-1-0.2-1.4-0.6c-6.8-6.8-13.2-22.3-16.3-39.6c-3.8-21.3-2.3-43,4.2-61.1c0.4-1,1.5-1.6,2.6-1.2
				c1,0.4,1.6,1.5,1.2,2.6c-14.1,39-0.8,84.6,11.2,96.5c0.8,0.8,0.8,2,0,2.8C553,649.5,552.5,649.7,552,649.7z"/>
		</g>
		<g>
			<path d="M552,649.7c-0.9,0-1.6-0.6-1.9-1.4c-15.2-49.6,14-79.7,27.3-90.3c0.9-0.7,2.1-0.6,2.8,0.3c0.7,0.9,0.6,2.1-0.3,2.8
				c-12.7,10.1-40.5,38.8-26,86c0.3,1.1-0.3,2.2-1.3,2.5C552.3,649.6,552.2,649.7,552,649.7z"/>
		</g>
		<g>
			<path d="M457.8,598.7c-0.8,0-1.6-0.5-1.9-1.4c-0.4-1,0.2-2.2,1.2-2.5c13.3-4.5,23.5-5.3,32.5-6c14.4-1.1,25.7-1.9,43.8-16.7
				c0.9-0.7,2.1-0.6,2.8,0.3c0.7,0.9,0.6,2.1-0.3,2.8c-19,15.5-31.6,16.5-46,17.5c-8.8,0.7-18.7,1.4-31.5,5.8
				C458.2,598.6,458,598.7,457.8,598.7z"/>
		</g>
		<g>
			<path d="M457.8,598.7c-0.4,0-0.8-0.1-1.2-0.4c-0.9-0.6-1.1-1.9-0.5-2.8c3.8-5.4,4.3-14.5,4.9-25c0.9-17.8,2.1-40,19.2-60.4
				c0.7-0.8,2-1,2.8-0.3c0.8,0.7,1,2,0.3,2.8c-16.3,19.5-17.4,40.9-18.3,58.1c-0.6,11.1-1.1,20.7-5.6,27.1
				C459,598.4,458.4,598.7,457.8,598.7z"/>
		</g>
		<g>
			<path d="M412.8,540.9c-0.7,0-1.4-0.4-1.8-1.1c-0.5-1-0.1-2.2,0.8-2.7c8.7-4.6,19.5-5.5,30-6.3c11.1-0.9,21.5-1.8,29.4-6.7
				c0.9-0.6,2.2-0.3,2.8,0.6c0.6,0.9,0.3,2.2-0.6,2.8c-8.7,5.4-20.1,6.4-31.2,7.3c-10,0.8-20.4,1.7-28.5,5.9
				C413.4,540.8,413.1,540.9,412.8,540.9z"/>
		</g>
		<g>
			<path d="M412.8,540.9c-0.3,0-0.6-0.1-0.9-0.2c-1-0.5-1.3-1.7-0.8-2.7c4.8-8.9,5.8-18.6,6.9-28.9c1.4-13.5,2.9-27.4,12.4-42.1
				c0.6-0.9,1.8-1.2,2.8-0.6c0.9,0.6,1.2,1.8,0.6,2.8c-9,13.9-10.4,27.4-11.8,40.4c-1.1,10.7-2.2,20.8-7.3,30.4
				C414.2,540.5,413.5,540.9,412.8,540.9z"/>
		</g>
		<g>
			<path d="M361.6,486.3c-0.8,0-1.6-0.5-1.9-1.4c-0.4-1,0.2-2.2,1.3-2.5c19.1-6.4,30.7-6.6,40-6.8c9.9-0.2,17-0.3,28.7-7.4
				c0.9-0.6,2.2-0.3,2.7,0.7c0.6,0.9,0.3,2.2-0.7,2.7c-12.6,7.6-20.6,7.8-30.7,7.9c-9,0.1-20.3,0.3-38.8,6.5
				C362,486.3,361.8,486.3,361.6,486.3z"/>
		</g>
		<g>
			<path d="M361.6,486.3c-0.4,0-0.8-0.1-1.2-0.4c-0.9-0.6-1.1-1.9-0.5-2.8c7.6-10.6,8.1-20.1,8.6-30.3c0.7-13.4,1.4-27.2,18.7-43.4
				c0.8-0.8,2.1-0.7,2.8,0.1c0.8,0.8,0.7,2.1-0.1,2.8c-16.1,15-16.8,27.5-17.4,40.6c-0.5,10.3-1,20.9-9.3,32.4
				C362.9,486,362.2,486.3,361.6,486.3z"/>
		</g>
		<g>
			<path d="M300.3,436.7c-0.8,0-1.6-0.5-1.9-1.4c-0.3-1.1,0.2-2.2,1.3-2.5c11.2-3.6,20.4-2.7,29.3-1.8c14.6,1.5,28.4,2.8,51.5-14.1
				c0.9-0.7,2.1-0.5,2.8,0.4c0.7,0.9,0.5,2.1-0.4,2.8c-24.3,17.8-39.5,16.3-54.2,14.8c-8.9-0.9-17.3-1.7-27.7,1.6
				C300.7,436.6,300.5,436.7,300.3,436.7z"/>
		</g>
		<g>
			<path d="M300.3,436.7c-0.7,0-1.4-0.4-1.8-1.1c-0.5-1-0.1-2.2,0.9-2.7c12.6-6.5,15.8-16.1,19.6-27.2c4.7-14.1,10-30,34.7-44.2
				c1-0.6,2.2-0.2,2.7,0.7c0.6,1,0.2,2.2-0.7,2.7c-23.4,13.5-28.4,28.6-32.9,42c-3.8,11.5-7.4,22.3-21.5,29.5
				C300.9,436.6,300.6,436.7,300.3,436.7z"/>
		</g>
		<g>
			<path d="M307.7,410.5c-8.6,0-17.5-1.2-25.8-2.3c-10.7-1.4-20.8-2.8-24.2-0.3c-0.9,0.7-2.1,0.5-2.8-0.4c-0.7-0.9-0.5-2.1,0.4-2.8
				c4.7-3.5,14.6-2.2,27.1-0.5c12.3,1.6,26.2,3.5,37.6,1.1c1.1-0.2,2.1,0.5,2.4,1.6c0.2,1.1-0.5,2.1-1.6,2.4
				C316.7,410.1,312.2,410.5,307.7,410.5z"/>
		</g>
		<g>
			<path d="M256.5,408.3c-0.7,0-1.3-0.3-1.7-0.9c-0.6-0.9-0.3-2.2,0.6-2.8c17.6-11.6,21.7-27,25.3-40.7c3.1-11.8,6.1-22.9,17.6-27.8
				c1-0.4,2.2,0,2.6,1.1c0.4,1,0,2.2-1.1,2.6c-9.7,4.1-12.2,13.4-15.3,25.1c-3.6,13.6-8.1,30.6-27,43
				C257.3,408.2,256.9,408.3,256.5,408.3z"/>
		</g>
		<g>
			<path d="M263.1,386.7c-38,0-66.4-10.7-84.5-32c-0.7-0.8-0.6-2.1,0.2-2.8c0.8-0.7,2.1-0.6,2.8,0.2c19.3,22.6,50.9,32.8,94.2,30.2
				c1.1-0.1,2,0.8,2.1,1.9c0.1,1.1-0.8,2-1.9,2.1C271.6,386.6,267.3,386.7,263.1,386.7z"/>
		</g>
		<g>
			<path d="M219.3,362.1c-16.1,0-30-2.3-40-6.8c-1-0.5-1.5-1.6-1-2.6c0.5-1,1.6-1.5,2.6-1c30.2,13.6,92.7,3.5,109.2-9.7
				c0.9-0.7,2.1-0.6,2.8,0.3c0.7,0.9,0.6,2.1-0.3,2.8c-8.5,6.8-28.6,13-51.1,15.6C233.8,361.7,226.4,362.1,219.3,362.1z"/>
		</g>
		<g>
			<path d="M504.9,711.6c-0.4,0-0.8-0.1-1.1-0.4c-16.6-11.6-30.9-78.2-21.3-120.4c0.2-1.1,1.3-1.8,2.4-1.5c1.1,0.2,1.8,1.3,1.5,2.4
				c-9.8,43,5.8,106.6,19.7,116.3c0.9,0.6,1.1,1.9,0.5,2.8C506.1,711.3,505.5,711.6,504.9,711.6z"/>
		</g>
		<g>
			<path d="M504.9,711.6c-0.9,0-1.7-0.6-1.9-1.4c-14.4-48.6-4-85.7,30.1-107.3c0.9-0.6,2.2-0.3,2.8,0.6c0.6,0.9,0.3,2.2-0.6,2.8
				c-32.9,20.8-42.4,55.4-28.4,102.7c0.3,1.1-0.3,2.2-1.3,2.5C505.3,711.6,505.1,711.6,504.9,711.6z"/>
		</g>
		<g>
			<path d="M393.3,681.8c-0.7,0-1.4-0.4-1.8-1.1c-0.5-1-0.1-2.2,0.9-2.7c8.6-4.3,18-6,27.9-7.9c20.3-3.8,41.3-7.7,60.1-33.3
				c0.7-0.9,1.9-1.1,2.8-0.4c0.9,0.7,1.1,1.9,0.4,2.8c-19.7,26.9-42.5,31.2-62.6,34.9c-9.7,1.8-18.8,3.5-26.9,7.5
				C393.9,681.8,393.6,681.8,393.3,681.8z"/>
		</g>
		<g>
			<path d="M399.6,626c-0.5,0-1.1-0.2-1.5-0.7c-0.7-0.8-0.7-2.1,0.2-2.8c10.2-9.1,23.6-13.2,35.5-16.7c10-3,18.6-5.6,22.5-10.4
				c0.7-0.9,1.9-1,2.8-0.3c0.9,0.7,1,1.9,0.3,2.8c-4.6,5.8-13.8,8.6-24.4,11.7c-11.5,3.4-24.4,7.3-34,15.8
				C400.6,625.8,400.1,626,399.6,626z"/>
		</g>
		<g>
			<path d="M399.6,626c-0.1,0-0.3,0-0.4,0c-1.1-0.2-1.8-1.3-1.5-2.4c1.4-6.2,0.1-15.2-1.2-24.8c-3-21.3-6.7-47.7,15.3-61.5
				c0.9-0.6,2.2-0.3,2.8,0.6c0.6,0.9,0.3,2.2-0.6,2.8c-19.8,12.4-16.4,36.4-13.5,57.6c1.4,10,2.7,19.4,1.2,26.3
				C401.4,625.4,400.5,626,399.6,626z"/>
		</g>
		<g>
			<path d="M345.4,560.1c-0.7,0-1.5-0.4-1.8-1.1c-0.5-1-0.1-2.2,0.9-2.7c10.2-5,18.4-4.8,27.1-4.7c8.9,0.2,18,0.3,30.5-5.2
				c1-0.4,2.2,0,2.6,1c0.4,1,0,2.2-1,2.6c-13.2,5.9-23.3,5.7-32.2,5.6c-8.2-0.1-15.9-0.3-25.3,4.3C346,560,345.7,560.1,345.4,560.1z
				"/>
		</g>
		<g>
			<path d="M345.4,560.1c-0.2,0-0.4,0-0.6-0.1c-1.1-0.3-1.7-1.4-1.4-2.5c2.6-8.8,2.5-18.2,2.4-27.2c-0.1-16.2-0.3-33,14.4-47.4
				c0.8-0.8,2.1-0.8,2.8,0c0.8,0.8,0.8,2.1,0,2.8c-13.4,13.2-13.3,28.4-13.2,44.5c0.1,9.4,0.2,19-2.6,28.4
				C347,559.5,346.2,560.1,345.4,560.1z"/>
		</g>
		<g>
			<path d="M288.5,512.2c-0.9,0-1.7-0.6-1.9-1.5c-0.3-1.1,0.4-2.2,1.5-2.4c4.9-1.2,10.3-1.7,16-2.3c14.9-1.5,31.8-3.1,51-16.8
				c0.9-0.6,2.1-0.4,2.8,0.5c0.6,0.9,0.4,2.1-0.5,2.8c-20.1,14.3-38.3,16.1-52.9,17.5c-5.6,0.5-10.8,1.1-15.4,2.2
				C288.8,512.1,288.6,512.2,288.5,512.2z"/>
		</g>
		<g>
			<path d="M288.5,512.2c-0.5,0-1.1-0.2-1.5-0.6c-0.8-0.8-0.7-2.1,0.1-2.8c9.5-8.8,9.5-17.5,9.5-27.5c0-14.2,0-30.4,26.1-50.3
				c0.9-0.7,2.1-0.5,2.8,0.4s0.5,2.1-0.4,2.8c-24.5,18.7-24.6,33.1-24.6,47.1c0,10.5,0,20.5-10.7,30.5
				C289.5,512,289,512.2,288.5,512.2z"/>
		</g>
		<g>
			<path d="M273.9,476.8c-5.3,0-10.6-0.5-15.8-1.1c-8.9-0.9-18.1-1.9-27,0.1c-1.1,0.2-2.1-0.4-2.4-1.5s0.4-2.1,1.5-2.4
				c9.4-2.1,19-1.1,28.2-0.1c13.8,1.4,26.9,2.8,39.6-5.4c0.9-0.6,2.2-0.3,2.8,0.6s0.3,2.2-0.6,2.8
				C291.7,475.3,282.8,476.8,273.9,476.8z"/>
		</g>
		<g>
			<path d="M230.8,475.8c-0.8,0-1.6-0.5-1.9-1.3c-0.4-1,0.1-2.2,1.2-2.6c12-4.4,15-14.9,18.6-27.1c4-13.9,8.6-29.7,27.3-41.1
				c0.9-0.6,2.2-0.3,2.7,0.7c0.6,0.9,0.3,2.2-0.7,2.7c-17.3,10.5-21.7,25.5-25.5,38.8c-3.7,12.6-7.1,24.6-21,29.7
				C231.3,475.8,231,475.8,230.8,475.8z"/>
		</g>
		<g>
			<path d="M245.8,451.8c-8.6,0-16.5-1.4-23.6-2.6c-11.7-2-21.8-3.8-31,1.1c-1,0.5-2.2,0.2-2.7-0.8c-0.5-1-0.2-2.2,0.8-2.7
				c10.4-5.6,21.2-3.7,33.6-1.5c8.2,1.4,16.7,2.9,26.3,2.5c1.1-0.1,2,0.8,2.1,1.9c0.1,1.1-0.8,2-1.9,2.1
				C248.2,451.8,247,451.8,245.8,451.8z"/>
		</g>
		<g>
			<path d="M190.3,450.5c-0.6,0-1.2-0.2-1.5-0.7c-0.7-0.9-0.6-2.1,0.3-2.8c12.3-10.1,19-20.4,25.5-30.3
				c8.9-13.7,17.4-26.6,38.7-33.8c1-0.4,2.2,0.2,2.5,1.3c0.4,1-0.2,2.2-1.3,2.5c-20,6.7-27.7,18.5-36.7,32.2
				c-6.4,9.7-13.6,20.8-26.3,31.2C191.2,450.4,190.7,450.5,190.3,450.5z"/>
		</g>
		<g>
			<path d="M204.8,435.9c-0.1,0-0.1,0-0.2,0c-16.3-1.8-57-12.2-78.6-32.8c-0.8-0.8-0.8-2-0.1-2.8c0.8-0.8,2-0.8,2.8-0.1
				c20.8,19.9,60.3,30,76.2,31.7c1.1,0.1,1.9,1.1,1.8,2.2C206.6,435.1,205.8,435.9,204.8,435.9z"/>
		</g>
		<g>
			<path d="M152.5,405.4c-8.7,0-17.3-0.6-25.4-1.7c-1.1-0.2-1.8-1.2-1.7-2.3c0.2-1.1,1.2-1.8,2.3-1.7c42.8,6.3,93.1-5.4,102.7-19
				c0.6-0.9,1.9-1.1,2.8-0.5c0.9,0.6,1.1,1.9,0.5,2.8C224.4,396.1,187.9,405.4,152.5,405.4z"/>
		</g>
		<g>
			<path d="M393.3,681.8c-0.3,0-0.5-0.1-0.8-0.2c-1-0.4-1.5-1.6-1-2.6c4.3-10,5-22.2,5.6-33.1c0.7-11.5,1.3-21.5,5.8-27
				c0.7-0.9,2-1,2.8-0.3s1,2,0.3,2.8c-3.7,4.6-4.3,14.4-4.9,24.7c-0.6,11.1-1.4,23.8-6,34.4C394.8,681.4,394.1,681.8,393.3,681.8z"
				/>
		</g>
		<g>
			<path d="M448.4,752.6c-0.7,0-1.4-0.4-1.7-1c-18-31.9-23.6-59.6-16.6-82.3c0.3-1.1,1.4-1.6,2.5-1.3c1.1,0.3,1.6,1.4,1.3,2.5
				c-6.7,21.6-1.2,48.2,16.2,79.1c0.5,1,0.2,2.2-0.8,2.7C449,752.5,448.7,752.6,448.4,752.6z"/>
		</g>
		<g>
			<path d="M448.4,752.6c-1,0-1.8-0.7-2-1.7c-5-38,16.3-70.7,37.9-88.7c0.8-0.7,2.1-0.6,2.8,0.3c0.7,0.8,0.6,2.1-0.3,2.8
				c-20.8,17.3-41.3,48.7-36.5,85.1c0.1,1.1-0.6,2.1-1.7,2.2C448.5,752.6,448.5,752.6,448.4,752.6z"/>
		</g>
		<g>
			<path d="M324.8,643.3c-0.5,0-1.1-0.2-1.4-0.6c-0.8-0.8-0.7-2.1,0.1-2.8c7.5-7.2,17.4-8.6,28.9-10.2c13.9-2,29.6-4.2,46.7-16.9
				c0.9-0.7,2.1-0.5,2.8,0.4c0.7,0.9,0.5,2.1-0.4,2.8c-17.9,13.3-34.9,15.7-48.5,17.7c-11.3,1.6-20.1,2.9-26.7,9.1
				C325.8,643.1,325.3,643.3,324.8,643.3z"/>
		</g>
		<g>
			<path d="M324.8,643.3c-0.3,0-0.5-0.1-0.8-0.2c-1-0.4-1.5-1.6-1-2.6c4.5-10.2,4-21.1,3.5-32.7c-0.8-17.9-1.7-36.5,17.7-51.3
				c0.9-0.7,2.1-0.5,2.8,0.4c0.7,0.9,0.5,2.1-0.4,2.8c-17.7,13.6-17,30.3-16.1,48c0.5,11.5,1.1,23.5-3.8,34.5
				C326.3,642.9,325.6,643.3,324.8,643.3z"/>
		</g>
		<g>
			<path d="M269,581.8c-0.7,0-1.4-0.4-1.8-1.1c-0.5-1-0.1-2.2,0.8-2.7c12.4-6.6,24.3-7.2,35.7-7.7c11.3-0.6,22-1.1,33.3-7.1
				c1-0.5,2.2-0.2,2.7,0.8c0.5,1,0.2,2.2-0.8,2.7c-12,6.4-23.7,7-35,7.5c-11.5,0.6-22.4,1.1-34.1,7.3
				C269.6,581.8,269.3,581.8,269,581.8z"/>
		</g>
		<g>
			<path d="M269,581.8c-0.4,0-0.9-0.1-1.2-0.4c-0.9-0.7-1-1.9-0.3-2.8c4.2-5.2,5.8-14.4,7.5-24.1c2.9-16.3,6.5-36.6,24.3-47.9
				c0.9-0.6,2.2-0.3,2.8,0.6c0.6,0.9,0.3,2.2-0.6,2.8c-16.3,10.4-19.6,28.9-22.5,45.2c-1.8,10.2-3.5,19.8-8.3,25.8
				C270.1,581.6,269.5,581.8,269,581.8z"/>
		</g>
		<g>
			<path d="M214.7,538.2c-0.9,0-1.8-0.7-2-1.6c-0.2-1.1,0.5-2.1,1.6-2.3c8.7-1.7,17.4-2.2,25.9-2.6c16-0.8,31.2-1.6,45.2-10.5
				c0.9-0.6,2.2-0.3,2.8,0.6s0.3,2.2-0.6,2.8c-14.9,9.5-31.3,10.3-47.1,11.1c-8.3,0.4-16.9,0.8-25.3,2.5
				C215,538.2,214.9,538.2,214.7,538.2z"/>
		</g>
		<g>
			<path d="M214.8,538.2c-0.5,0-1-0.2-1.4-0.6c-0.8-0.8-0.8-2.1,0-2.8c3.8-3.7,5-11,6.4-19.4c2.4-14.3,5.3-32.1,22.4-44.3
				c0.9-0.6,2.1-0.4,2.8,0.5c0.6,0.9,0.4,2.1-0.5,2.8c-15.7,11.2-18.5,28.1-20.7,41.7c-1.5,9.1-2.8,17-7.5,21.6
				C215.8,538,215.3,538.2,214.8,538.2z"/>
		</g>
		<g>
			<path d="M141.3,499.8c-0.5,0-1-0.2-1.4-0.6c-0.8-0.8-0.8-2,0-2.8c8.1-8.2,21.7-7,37.3-5.7c16,1.4,34.2,2.9,51.8-4.6
				c1-0.4,2.2,0,2.6,1c0.4,1,0,2.2-1,2.6c-18.4,7.9-37.2,6.3-53.7,4.9c-14.7-1.3-27.4-2.3-34.2,4.5
				C142.3,499.6,141.8,499.8,141.3,499.8z"/>
		</g>
		<g>
			<path d="M141.3,499.8c-0.5,0-1.1-0.2-1.5-0.6c-0.8-0.8-0.7-2.1,0.1-2.8c7.5-7,11.8-15.9,16.4-25.3c6.8-14.1,14.6-30,34.7-41.1
				c1-0.5,2.2-0.2,2.7,0.8s0.2,2.2-0.8,2.7c-19,10.5-26.1,25.2-33,39.4c-4.7,9.8-9.2,19-17.3,26.5
				C142.2,499.7,141.7,499.8,141.3,499.8z"/>
		</g>
		<g>
			<path d="M153.3,483.4c-0.1,0-0.2,0-0.2,0c-26-3-57.3-17.9-72.9-34.6c-0.8-0.8-0.7-2.1,0.1-2.8c0.8-0.8,2.1-0.7,2.8,0.1
				c12.9,13.9,42.8,30.2,70.4,33.4c1.1,0.1,1.9,1.1,1.8,2.2C155.2,482.7,154.3,483.4,153.3,483.4z"/>
		</g>
		<g>
			<path d="M104.5,451.5c-7.7,0-15.6-0.7-23.2-2.1c-1.1-0.2-1.8-1.3-1.6-2.3c0.2-1.1,1.3-1.8,2.3-1.6c34.9,6.6,75.6-3.6,85.4-21.3
				c0.5-1,1.8-1.3,2.7-0.8c1,0.5,1.3,1.8,0.8,2.7C162.4,441.5,134.2,451.5,104.5,451.5z"/>
		</g>
		<g>
			<path d="M399.6,806.7c-0.9,0-1.8-0.7-2-1.6c-9.1-44.3,10.1-61.9,27-77.4c3.1-2.8,6-5.5,8.7-8.3c0.8-0.8,2-0.8,2.8,0
				c0.8,0.8,0.8,2,0,2.8c-2.8,2.9-5.8,5.6-8.9,8.4c-16.9,15.5-34.4,31.5-25.8,73.6c0.2,1.1-0.5,2.1-1.6,2.4
				C399.9,806.7,399.8,806.7,399.6,806.7z"/>
		</g>
		<g>
			<path d="M399.6,806.7c-0.7,0-1.3-0.3-1.7-0.9c-9-14.1-51.5-86.2-6-127.4c0.8-0.7,2.1-0.7,2.8,0.1c0.7,0.8,0.7,2.1-0.1,2.8
				c-43.1,39-2,108.7,6.7,122.3c0.6,0.9,0.3,2.2-0.6,2.8C400.4,806.6,400,806.7,399.6,806.7z"/>
		</g>
		<g>
			<path d="M315.1,703.7c-0.9,0-1.8-0.7-2-1.6c-0.2-1.1,0.5-2.1,1.6-2.4c12.8-2.6,22.1-2.3,30.4-2.1c12.6,0.3,22.6,0.6,38.4-9.9
				c0.9-0.6,2.2-0.4,2.8,0.6c0.6,0.9,0.4,2.2-0.6,2.8c-16.9,11.2-27.9,10.9-40.7,10.5c-8.1-0.2-17.2-0.5-29.5,2
				C315.4,703.7,315.3,703.7,315.1,703.7z"/>
		</g>
		<g>
			<path d="M315.1,703.7c-0.6,0-1.2-0.3-1.6-0.7c-0.7-0.9-0.6-2.1,0.3-2.8c6.5-5.3,6.2-12.7,5.6-22.9c-0.5-10.2-1.2-23,5.2-38.2
				c0.4-1,1.6-1.5,2.6-1.1c1,0.4,1.5,1.6,1.1,2.6c-6,14.4-5.4,26.6-4.9,36.5c0.5,10.5,1,19.6-7.1,26.2
				C316,703.5,315.6,703.7,315.1,703.7z"/>
		</g>
		<g>
			<path d="M248.6,657.2c-0.7,0-1.5-0.4-1.8-1.1c-0.5-1-0.1-2.2,0.9-2.7c10.4-5.1,21.2-5.8,31.6-6.5c16.8-1.1,32.6-2.2,47.4-20.3
				c0.7-0.9,2-1,2.8-0.3c0.9,0.7,1,2,0.3,2.8c-15.9,19.4-33.3,20.6-50.2,21.7c-10.5,0.7-20.4,1.4-30.2,6.1
				C249.2,657.1,248.9,657.2,248.6,657.2z"/>
		</g>
		<g>
			<path d="M248.6,657.2c-0.5,0-1.1-0.2-1.5-0.7c-0.7-0.8-0.7-2.1,0.1-2.8c7.8-7,8.1-17.4,8.4-29.5c0.4-15.6,0.8-33.3,18-48.6
				c0.8-0.7,2.1-0.7,2.8,0.2c0.7,0.8,0.7,2.1-0.2,2.8c-15.8,14.1-16.3,30.9-16.6,45.7c-0.3,12.4-0.6,24.1-9.7,32.3
				C249.6,657,249.1,657.2,248.6,657.2z"/>
		</g>
		<g>
			<path d="M199.1,605.6c-0.6,0-1.2-0.3-1.6-0.8c-0.6-0.9-0.4-2.1,0.5-2.8c7.8-5.6,19.1-6.7,31.1-7.8c13-1.2,26.5-2.5,36.8-9.7
				c0.9-0.6,2.2-0.4,2.8,0.5c0.6,0.9,0.4,2.2-0.5,2.8c-11.1,7.8-25.2,9.1-38.7,10.4c-11.4,1.1-22.2,2.1-29.1,7.1
				C199.9,605.5,199.5,605.6,199.1,605.6z"/>
		</g>
		<g>
			<path d="M199.1,605.6c-0.5,0-1-0.2-1.4-0.6c-0.8-0.8-0.8-2,0-2.8c7.4-7.7,7.6-16.6,7.9-27c0.3-12.2,0.6-26.1,12.7-41.1
				c0.7-0.9,2-1,2.8-0.3c0.9,0.7,1,2,0.3,2.8c-11.2,13.9-11.5,26.5-11.8,38.6c-0.3,10.8-0.5,21-9,29.7
				C200.2,605.4,199.6,605.6,199.1,605.6z"/>
		</g>
		<g>
			<path d="M150.6,548.3c-0.6,0-1.2-0.3-1.6-0.8c-0.7-0.9-0.5-2.1,0.4-2.8c9-6.8,20.4-8,32.4-9.3c11.8-1.3,24-2.6,36.4-9
				c1-0.5,2.2-0.1,2.7,0.9c0.5,1,0.1,2.2-0.9,2.7c-13,6.7-26.2,8.1-37.8,9.4c-11.9,1.3-22.2,2.4-30.4,8.5
				C151.5,548.2,151,548.3,150.6,548.3z"/>
		</g>
		<g>
			<path d="M150.6,548.3c-0.5,0-1-0.2-1.4-0.6c-0.8-0.8-0.7-2.1,0.1-2.8c5.5-5.3,6-12.6,6.5-21c0.7-10.4,1.4-22.2,12-33.2
				c0.8-0.8,2-0.8,2.8-0.1c0.8,0.8,0.8,2,0.1,2.8c-9.5,9.9-10.2,20.4-10.9,30.7c-0.6,8.9-1.1,17.3-7.7,23.6
				C151.6,548.1,151.1,548.3,150.6,548.3z"/>
		</g>
		<g>
			<path d="M704,542.5c-0.5,0-1.1-0.2-1.5-0.7c-0.7-0.8-0.7-2.1,0.1-2.8c8.4-7.6,11.4-15.8,8.9-23.7c-3.8-11.7-19.9-21.1-39.9-23.4
				c-1.1-0.1-1.9-1.1-1.8-2.2c0.1-1.1,1.1-1.9,2.2-1.8c21.9,2.5,38.9,12.7,43.3,26.1c3,9.3-0.5,19.2-10,27.9
				C704.9,542.3,704.4,542.5,704,542.5z"/>
		</g>
		<g>
			<path d="M704,542.5c-0.5,0-1-0.2-1.3-0.5c-0.8-0.7-0.9-2-0.1-2.8c10.4-11.4,21.4-11.3,30.2-11.1c8.9,0.1,14.8,0.2,18.1-9.8
				c0.3-1,1.5-1.6,2.5-1.3c1,0.3,1.6,1.5,1.3,2.5c-4.2,12.8-12.8,12.7-21.9,12.5c-8.4-0.1-18-0.2-27.2,9.8
				C705,542.3,704.5,542.5,704,542.5z"/>
		</g>
		<g>
			<path d="M737.3,570.3c-0.9,0-1.7-0.6-1.9-1.4c-4.2-13.8,1.3-23.7,6.5-33.3c2-3.7,4-7.2,5.3-10.9c0.4-1,1.5-1.6,2.6-1.2
				c1,0.4,1.6,1.5,1.2,2.6c-1.5,4-3.5,7.7-5.6,11.4c-5.1,9.3-9.9,18-6.2,30.2c0.3,1.1-0.3,2.2-1.3,2.5
				C737.7,570.3,737.5,570.3,737.3,570.3z"/>
		</g>
		<g>
			<path d="M737.3,570.3c-0.3,0-0.6-0.1-0.9-0.2c-1-0.5-1.4-1.7-0.9-2.7c7.3-15,17.5-21.8,26.4-27.8c12.4-8.3,23.1-15.5,23.5-42.5
				c0-1.1,0.9-2,2-2c0,0,0,0,0,0c1.1,0,2,0.9,2,2c-0.4,29.1-12.5,37.2-25.3,45.8c-9,6-18.2,12.2-25.1,26.3
				C738.7,569.9,738,570.3,737.3,570.3z"/>
		</g>
		<g>
			<path d="M787.5,499.2c-0.3,0-0.6-0.1-0.8-0.2c-67.3-30.2-138.3-75.2-135.2-102.4c0.1-1.1,1.1-1.9,2.2-1.8
				c1.1,0.1,1.9,1.1,1.8,2.2c-2.4,20.9,54.7,63.2,132.8,98.3c1,0.5,1.5,1.6,1,2.6C788.9,498.7,788.2,499.2,787.5,499.2z"/>
		</g>
		<g>
			<path d="M653.5,398.8c-0.2,0-0.3,0-0.5-0.1c-1.1-0.3-1.7-1.4-1.5-2.4c6.7-26.8,46.1-45.4,81-38.2c1.1,0.2,1.8,1.3,1.6,2.4
				c-0.2,1.1-1.3,1.8-2.4,1.6c-15.9-3.3-33.6-1.1-48.6,6.1c-14.7,7-24.8,17.6-27.7,29.2C655.2,398.2,654.4,398.8,653.5,398.8z"/>
		</g>
		<g>
			<path d="M839.9,401.5c-19.6,0-38.1-9-58.4-19c-15.4-7.5-31.4-15.4-49.9-20.5c-1.1-0.3-1.7-1.4-1.4-2.5c0.3-1.1,1.4-1.7,2.5-1.4
				c18.9,5.2,35.1,13.1,50.6,20.7c31.5,15.4,56.3,27.5,87.6,9.9c1-0.5,2.2-0.2,2.7,0.8c0.5,1,0.2,2.2-0.8,2.7
				C861.3,398.8,850.4,401.5,839.9,401.5z"/>
		</g>
		<g>
			<path d="M711.4,385.5c-1.1,0-2-0.9-2-2c0-9.9-9.2-17.9-20.5-17.9c-1.1,0-2-0.9-2-2s0.9-2,2-2c13.5,0,24.5,9.8,24.5,21.9
				C713.4,384.6,712.5,385.5,711.4,385.5z"/>
		</g>
		<g>
			<path d="M748.2,393.6c-1.1,0-1.9-0.8-2-1.9c-0.1-2.4-1.9-4.8-4.9-6.7c-5.5-3.4-16.4-5.4-29.2,0.3c-1,0.4-2.2,0-2.6-1
				c-0.4-1,0-2.2,1-2.6c14.1-6.2,26.3-4.1,32.9,0c4.1,2.5,6.6,6.1,6.8,9.9c0.1,1.1-0.8,2-1.9,2.1
				C748.3,393.6,748.3,393.6,748.2,393.6z"/>
		</g>
		<g>
			<path d="M775.9,401.5c-0.9,0-1.6-0.6-1.9-1.4c-0.7-2.2-2.9-4.4-6.1-6c-4.4-2.1-11.7-3.4-18.9-0.6c-1,0.4-2.2-0.1-2.6-1.1
				c-0.4-1,0.1-2.2,1.1-2.6c7-2.7,15.4-2.4,22,0.8c4.3,2.1,7.2,5,8.2,8.4c0.3,1.1-0.3,2.2-1.3,2.5
				C776.3,401.4,776.1,401.5,775.9,401.5z"/>
		</g>
		<g>
			<path d="M792.1,405.1c-0.8,0-1.5-0.4-1.8-1.2c-1.6-3.4-8-4.6-13.8-2.6c-1,0.4-2.2-0.2-2.5-1.2c-0.4-1,0.2-2.2,1.2-2.5
				c8-2.8,16.2-0.7,18.7,4.7c0.5,1,0,2.2-1,2.7C792.7,405,792.4,405.1,792.1,405.1z"/>
		</g>
		<g>
			<path d="M792.1,405.1c-0.4,0-0.8-0.1-1.1-0.4c-0.9-0.6-1.1-1.9-0.5-2.8c7.7-11.1,24.3-8.7,27.5-8.1c1.1,0.2,1.8,1.2,1.6,2.3
				s-1.2,1.8-2.3,1.6c-1.7-0.3-17.1-2.8-23.5,6.4C793.4,404.8,792.8,405.1,792.1,405.1z"/>
		</g>
		<g>
			<path d="M666.1,423.5c-0.8,0-1.5-0.5-1.9-1.2c-0.4-1,0.1-2.2,1.1-2.6c1.7-0.7,4-1.3,6.8-2c5.8-1.5,13.8-3.6,16.5-6.9
				c0.7-0.9,2-1,2.8-0.3c0.9,0.7,1,2,0.3,2.8c-3.5,4.3-11.8,6.5-18.5,8.3c-2.6,0.7-4.9,1.3-6.3,1.9
				C666.6,423.5,666.3,423.5,666.1,423.5z"/>
		</g>
		<g>
			<path d="M688.9,443.4c-0.3,0-0.6-0.1-0.9-0.2c-1-0.5-1.4-1.7-0.9-2.7c4.4-8.7,2.4-25,1.2-27.8c-0.4-1,0-2.2,1-2.6
				c1-0.4,2.2,0,2.6,1c1.7,3.9,3.6,21.5-1.3,31.2C690.3,443,689.6,443.4,688.9,443.4z"/>
		</g>
		<g>
			<path d="M688.9,443.4c-1.1,0-2-0.9-2-1.9c0-1.1,0.8-2,1.9-2.1c8.7-0.3,18.3-6.7,21.4-14.3c0.4-1,1.6-1.5,2.6-1.1
				c1,0.4,1.5,1.6,1.1,2.6C710.3,435.7,699.3,443.1,688.9,443.4C688.9,443.4,688.9,443.4,688.9,443.4z"/>
		</g>
		<g>
			<path d="M717.9,462.9c-0.1,0-0.3,0-0.4,0c-1.1-0.2-1.8-1.3-1.5-2.4c1.5-6.6-0.7-26.1-5.5-33.5c-0.6-0.9-0.3-2.2,0.6-2.8
				c0.9-0.6,2.2-0.3,2.8,0.6c5.4,8.5,7.7,29,6,36.6C719.6,462.3,718.8,462.9,717.9,462.9z"/>
		</g>
		<g>
			<path d="M718.4,462.9c-0.6,0-1.2-0.3-1.6-0.8c-0.6-0.9-0.4-2.1,0.5-2.8c2.6-1.9,6.3-3.8,10.3-5.8c6.8-3.5,14.5-7.5,17.8-11.9
				c0.7-0.9,1.9-1.1,2.8-0.4c0.9,0.7,1.1,1.9,0.4,2.8c-3.8,5.2-12,9.4-19.2,13.1c-3.8,2-7.4,3.8-9.7,5.5
				C719.2,462.8,718.8,462.9,718.4,462.9z"/>
		</g>
		<g>
			<path d="M751.4,481.7c-0.1,0-0.2,0-0.3,0c-1.1-0.2-1.8-1.2-1.7-2.3c1.5-9.1-0.8-27.9-4.4-35.9c-0.4-1,0-2.2,1-2.6
				c1-0.4,2.2,0,2.6,1c3.9,8.7,6.3,28.3,4.7,38.2C753.2,481,752.4,481.7,751.4,481.7z"/>
		</g>
		<g>
			<path d="M751.4,481.7c-0.7,0-1.4-0.4-1.7-1c-0.6-1-0.2-2.2,0.7-2.7c3.2-1.9,7.6-9,11.9-15.8c1.6-2.6,3.3-5.2,4.9-7.7
				c0.6-0.9,1.9-1.2,2.8-0.6c0.9,0.6,1.2,1.9,0.6,2.8c-1.6,2.4-3.3,5.1-4.8,7.6c-4.9,7.9-9.2,14.8-13.3,17.2
				C752.1,481.7,751.8,481.7,751.4,481.7z"/>
		</g>
		<g>
			<path d="M766.3,489.3c-0.3,0-0.6-0.1-0.9-0.2c-1-0.5-1.3-1.7-0.8-2.7c4.9-9.1,5.8-25.4,2.7-29.5c-0.7-0.9-0.5-2.1,0.4-2.8
				c0.9-0.7,2.1-0.5,2.8,0.4c4.7,6.2,2.6,24.6-2.4,33.8C767.7,488.9,767,489.3,766.3,489.3z"/>
		</g>
		<g>
			<path d="M766.3,489.3c-1.1,0-2-0.9-2-1.9c0-1.1,0.8-2,1.9-2.1c10.2-0.3,29.6-12.8,44.2-33.1c0.6-0.9,1.9-1.1,2.8-0.4
				c0.9,0.6,1.1,1.9,0.4,2.8C797.8,476.6,777.4,488.9,766.3,489.3C766.4,489.3,766.3,489.3,766.3,489.3z"/>
		</g>
		<g>
			<path d="M787.5,499.2c-0.8,0-1.6-0.5-1.9-1.4c-0.4-1,0.2-2.2,1.2-2.5c12.8-4.4,23.2-23.2,23.3-41.9c0-1.1,0.9-2,2-2c0,0,0,0,0,0
				c1.1,0,2,0.9,2,2c-0.1,20.7-11.5,40.8-26,45.7C787.9,499.1,787.7,499.2,787.5,499.2z"/>
		</g>
		<g>
			<path d="M688.1,405.1c-0.6,0-1.2-0.3-1.6-0.8c-5.1-6.5-11.8-19.4-16.6-28.8l-0.8-1.6c-0.5-1-0.1-2.2,0.9-2.7
				c1-0.5,2.2-0.1,2.7,0.9l0.8,1.6c4.5,8.8,11.3,22,16.2,28.2c0.7,0.9,0.5,2.1-0.3,2.8C689,404.9,688.6,405.1,688.1,405.1z"/>
		</g>
		<g>
			<path d="M688.1,405.1c-0.2,0-0.5,0-0.7-0.1c-1-0.4-1.5-1.6-1.1-2.6c3.8-9.6,10.1-12.9,16.8-16.5c2.3-1.2,4.7-2.5,7.2-4.1
				c0.9-0.6,2.2-0.3,2.8,0.6c0.6,0.9,0.3,2.2-0.6,2.8c-2.6,1.7-5.1,3-7.5,4.3c-6.6,3.5-11.8,6.2-15,14.4
				C689.7,404.6,688.9,405.1,688.1,405.1z"/>
		</g>
		<g>
			<path d="M725.5,411.3c-0.5,0-1.1-0.2-1.5-0.7c-6.4-7.2-13.7-18.7-14.6-27c-0.1-1.1,0.7-2.1,1.8-2.2c1.1-0.1,2.1,0.7,2.2,1.8
				c0.7,6.3,6.4,16.7,13.6,24.8c0.7,0.8,0.7,2.1-0.2,2.8C726.4,411.2,725.9,411.3,725.5,411.3z"/>
		</g>
		<g>
			<path d="M725.5,411.3c-0.7,0-1.4-0.4-1.7-1c-0.5-1-0.2-2.2,0.8-2.7c5.1-2.9,18.5-10.5,22-17c0.5-1,1.7-1.3,2.7-0.8
				c1,0.5,1.3,1.7,0.8,2.7c-3.6,6.6-14.5,13.4-23.6,18.5C726.1,411.2,725.8,411.3,725.5,411.3z"/>
		</g>
		<g>
			<path d="M759,416.8c-0.4,0-0.7-0.1-1.1-0.3c-0.9-0.6-1.2-1.7-0.7-2.6c0.4-2.2-3.3-15.1-10.2-20.8c-0.8-0.7-1-2-0.3-2.8
				c0.7-0.8,2-1,2.8-0.3c7.7,6.4,13.3,22.4,11.1,25.9C760.3,416.5,759.6,416.8,759,416.8z M757.3,413.8
				C757.3,413.8,757.3,413.8,757.3,413.8C757.3,413.8,757.3,413.8,757.3,413.8z"/>
		</g>
		<g>
			<path d="M759,416.8c-0.9,0-1.8-0.7-2-1.6c-0.2-1.1,0.5-2.1,1.6-2.3c5.9-1.1,12.7-7.3,15.4-14.1c0.4-1,1.6-1.5,2.6-1.1
				c1,0.4,1.5,1.6,1.1,2.6c-2.7,6.9-10.1,15.1-18.4,16.6C759.2,416.8,759.1,416.8,759,416.8z"/>
		</g>
		<g>
			<path d="M791,423.5c-0.5,0-1-0.2-1.4-0.6c-0.8-0.8-0.8-2,0-2.8c1.1-1.4,3-11.2,0.8-16.2c-0.5-1,0-2.2,1-2.6c1-0.5,2.2,0,2.6,1
				c2.9,6.4,0.7,18.3-1.6,20.7C792,423.3,791.5,423.5,791,423.5z"/>
		</g>
		<g>
			<path d="M791,423.5c-1.1,0-2-0.9-2-2s0.9-2,2-2c16.3,0,29.5-10,29.5-22.3c0-1.1,0.9-2,2-2s2,0.9,2,2
				C824.5,411.7,809.4,423.5,791,423.5z"/>
		</g>
		<g>
			<path d="M813.1,440.7c-0.6,0-1.1-0.2-1.5-0.7c-0.7-0.8-0.6-2.1,0.2-2.8c15.2-13,10.3-34.6,8.8-38c-0.4-1,0-2.2,1-2.6
				c1-0.4,2.2,0,2.6,1c1.8,4.1,7.4,27.9-9.9,42.7C814,440.5,813.6,440.7,813.1,440.7z"/>
		</g>
		<g>
			<path d="M813.1,440.7c-1.1,0-2-0.9-2-2s0.9-2,2-2c20,0,36.2-17.2,36.2-38.3c0-1.1,0.9-2,2-2s2,0.9,2,2
				C853.4,421.7,835.3,440.7,813.1,440.7z"/>
		</g>
		<g>
			<path d="M871.9,392.6c-0.7,0-1.4-0.4-1.7-1c-0.6-1-0.2-2.2,0.7-2.7c17.4-10.1,37.9-43.2,45.6-73.9c0.3-1.1,1.4-1.7,2.4-1.5
				c1.1,0.3,1.7,1.4,1.5,2.4c-7.1,28.1-26.7,64.4-47.4,76.4C872.6,392.5,872.2,392.6,871.9,392.6z"/>
		</g>
		<g>
			<path d="M918.4,317.5C918.4,317.5,918.3,317.5,918.4,317.5c-33.4-1.1-49.6-8.6-65.4-15.9c-17.8-8.2-34.5-15.9-74.8-14.3
				c-1.1,0-2-0.8-2.1-1.9c0-1.1,0.8-2,1.9-2.1c41.2-1.6,58.4,6.3,76.6,14.6c15.4,7.1,31.3,14.4,63.8,15.5c1.1,0,2,1,1.9,2.1
				C920.3,316.6,919.4,317.5,918.4,317.5z"/>
		</g>
		<g>
			<path d="M778.1,287.3c-0.3,0-0.7-0.1-1-0.2c-12.5-6.9-16.9-14.8-20.7-21.8c-3.7-6.7-6.6-11.9-15.9-14.6c-1.1-0.3-1.7-1.4-1.4-2.5
				c0.3-1.1,1.4-1.7,2.5-1.4c10.9,3.1,14.5,9.6,18.3,16.5c3.6,6.5,7.7,13.9,19.2,20.3c1,0.5,1.3,1.8,0.8,2.7
				C779.5,287,778.8,287.3,778.1,287.3z"/>
		</g>
		<g>
			<path d="M741.1,250.8c-0.1,0-0.1,0-0.2,0c-31.8-2.6-101.3-15-126.5-30.2c-0.9-0.6-1.2-1.8-0.7-2.7c0.6-0.9,1.8-1.2,2.7-0.7
				c24.7,14.9,93.3,27.1,124.7,29.7c1.1,0.1,1.9,1.1,1.8,2.2C743,250,742.1,250.8,741.1,250.8z"/>
		</g>
		<g>
			<path d="M550.1,235.9c-21.2,0-40.6-4.3-55.5-10.4c-18.5-7.5-31.4-18.3-35.4-29.6c-0.4-1,0.2-2.2,1.2-2.5c1-0.4,2.2,0.2,2.5,1.2
				c3.5,10.2,15.6,20.1,33.1,27.2c27.6,11.2,75.2,16.7,118.5-4.8c1-0.5,2.2-0.1,2.7,0.9c0.5,1,0.1,2.2-0.9,2.7
				C594.2,231.6,571.2,235.9,550.1,235.9z"/>
		</g>
		<g>
			<path d="M503.8,249.2c-0.2,0-0.4,0-0.6-0.1c-17.4-5.1-38.6-26.5-44.1-53.4c-0.2-1.1,0.5-2.1,1.6-2.4c1.1-0.2,2.1,0.5,2.4,1.6
				c5.1,25.1,25.4,45.6,41.3,50.3c1.1,0.3,1.7,1.4,1.4,2.5C505.5,248.6,504.7,249.2,503.8,249.2z"/>
		</g>
		<g>
			<path d="M461.9,251.9c-37.4,0-69.8-6.4-77.1-16.9c-0.6-0.9-0.4-2.2,0.5-2.8c0.9-0.6,2.2-0.4,2.8,0.5c8,11.5,61.3,19.6,115.4,12.5
				c1.1-0.1,2.1,0.6,2.2,1.7c0.1,1.1-0.6,2.1-1.7,2.2C490,251,475.6,251.9,461.9,251.9z"/>
		</g>
		<g>
			<path d="M434.8,271.2c-0.3,0-0.6-0.1-0.9-0.2c-0.4-0.2-1.4-0.6-2.6-1c-7.7-2.9-28.3-10.7-46.4-34.9c-0.7-0.9-0.5-2.1,0.4-2.8
				c0.9-0.7,2.1-0.5,2.8,0.4c17.4,23.3,37.2,30.7,44.6,33.5c1.4,0.5,2.4,0.9,3,1.2c1,0.5,1.4,1.7,0.8,2.7
				C436.2,270.8,435.5,271.2,434.8,271.2z"/>
		</g>
		<g>
			<path d="M349.1,282.7c-18.8,0-32.3-2.5-35.9-7.7c-0.6-0.9-0.4-2.1,0.5-2.8c0.9-0.6,2.1-0.4,2.8,0.5c5.7,8,55.6,9.9,117.9-5.5
				c1.1-0.3,2.2,0.4,2.4,1.5c0.3,1.1-0.4,2.2-1.5,2.4C404.3,278.7,372.6,282.7,349.1,282.7z"/>
		</g>
		<g>
			<path d="M606.6,370.1c-0.9,0-1.7-0.6-1.9-1.6c-0.7-3-2.5-5.3-5.7-7c-12.2-6.9-38.7-3-49.5,0.5c-1.1,0.3-2.2-0.2-2.5-1.3
				c-0.3-1.1,0.2-2.2,1.3-2.5c11.8-3.8,39.3-7.8,52.7-0.2c4.1,2.3,6.7,5.6,7.6,9.6c0.2,1.1-0.4,2.1-1.5,2.4
				C606.9,370.1,606.8,370.1,606.6,370.1z"/>
		</g>
		<g>
			<path d="M539.3,363.2c-22.1,0-50.7-14-55.8-29.2c-0.4-1,0.2-2.2,1.3-2.5c1-0.4,2.2,0.2,2.5,1.3c5.3,15.8,40.7,30.6,61.1,25.4
				c1.1-0.3,2.2,0.4,2.4,1.5c0.3,1.1-0.4,2.2-1.5,2.4C546.2,362.8,542.8,363.2,539.3,363.2z"/>
		</g>
		<g>
			<path d="M485.4,335.3c-0.9,0-1.7-0.6-1.9-1.4c-3.1-10.5-14-16.5-25.6-22.8c-7-3.8-14.3-7.8-20.5-13c-0.8-0.7-0.9-2-0.2-2.8
				c0.7-0.8,2-0.9,2.8-0.2c5.9,5,13,8.8,19.8,12.6c12.3,6.7,24,13,27.5,25.1c0.3,1.1-0.3,2.2-1.4,2.5
				C485.8,335.3,485.6,335.3,485.4,335.3z"/>
		</g>
		<g>
			<path d="M438.6,298.6c-0.5,0-1-0.2-1.4-0.6c-5.5-5.2-5.1-9.6-4.3-11.8c1.4-4,5.7-6.8,12-7.4c1.1-0.1,2.1,0.7,2.2,1.8
				s-0.7,2.1-1.8,2.2c-4.6,0.5-7.8,2.3-8.7,4.8c-0.7,2.2,0.4,4.9,3.3,7.6c0.8,0.8,0.8,2,0.1,2.8
				C439.7,298.4,439.1,298.6,438.6,298.6z"/>
		</g>
		<g>
			<path d="M445.1,282.8c-1.1,0-2-0.9-2-1.9c0-1.1,0.8-2,1.9-2.1c20.5-0.6,38-4.8,42.5-8.5c0.9-0.7,2.1-0.6,2.8,0.3
				c0.7,0.9,0.6,2.1-0.3,2.8C484.2,278.2,464.9,282.2,445.1,282.8C445.2,282.8,445.1,282.8,445.1,282.8z"/>
		</g>
		<g>
			<path d="M488.8,273.8c-0.2,0-0.4,0-0.6-0.1c-7-2.3-11.6-6.4-12.8-11.6c-0.3-1.1,0.4-2.2,1.5-2.4c1.1-0.3,2.2,0.4,2.4,1.5
				c1.2,5.1,6.9,7.7,10.2,8.7c1.1,0.3,1.6,1.5,1.3,2.5C490.4,273.3,489.6,273.8,488.8,273.8z"/>
		</g>
		<g>
			<path d="M488.5,265.2c-4.1,0-8.1-0.5-11.8-1.6c-1.1-0.3-1.7-1.4-1.3-2.5c0.3-1.1,1.4-1.7,2.5-1.3c11.1,3.4,25,0.1,38.4-3.1
				c15.4-3.6,31.3-7.4,43-0.8c1,0.5,1.3,1.8,0.8,2.7c-0.5,1-1.8,1.3-2.7,0.8c-10.3-5.9-24.8-2.4-40.1,1.2
				C507.6,262.9,497.7,265.2,488.5,265.2z"/>
		</g>
		<g>
			<path d="M558.3,259.7c-1.1,0-2-0.9-2-2c0-7.5,2.1-15.7,6.7-15.7c1.1,0,2,0.9,2,2c0,1.1-0.9,2-1.9,2c-0.8,0.4-2.7,4.4-2.7,11.7
				C560.3,258.8,559.4,259.7,558.3,259.7z"/>
		</g>
		<g>
			<path d="M602.1,297.5c-1,0-1.8-0.7-2-1.7c-2.2-13.2-12.2-21.4-21.9-29.3c-8.4-6.9-16.3-13.4-17.2-22.3c-0.1-1.1,0.7-2.1,1.8-2.2
				c1.1-0.1,2.1,0.7,2.2,1.8c0.8,7.3,7.7,13,15.8,19.6c9.8,8,20.9,17.1,23.4,31.7c0.2,1.1-0.6,2.1-1.6,2.3
				C602.3,297.5,602.2,297.5,602.1,297.5z"/>
		</g>
		<g>
			<path d="M661.6,271.4c-3.3,0-6.6-0.8-10.3-2.9c-1-0.6-1.3-1.8-0.7-2.7c0.6-1,1.8-1.3,2.7-0.7c7.4,4.3,13.2,2.1,22-1.2
				c9.1-3.4,21.5-8.1,41.1-7.1c1.1,0.1,2,1,1.9,2.1c-0.1,1.1-1,2-2.1,1.9c-18.8-0.9-30.3,3.4-39.5,6.8
				C671.3,269.6,666.5,271.4,661.6,271.4z"/>
		</g>
		<g>
			<path d="M741.1,291.8c-1.1,0-2-0.9-2-2s0.9-2,2-2c3.4,0,5-1.5,5.1-4.6c0.1-7.8-11.2-22.2-29.8-22.5c-1.1,0-2-0.9-2-2
				c0-1.1,0.9-2,2-2c0,0,0,0,0,0c20.4,0.3,33.8,16.2,33.7,26.6C750.1,288.6,746.6,291.8,741.1,291.8z"/>
		</g>
		<g>
			<path d="M640.1,292.4c-1.1,0-1.9-0.8-2-1.9c-0.1-1.1,0.8-2,1.9-2.1c10.7-0.6,73-0.6,96.4-0.6l4.7,0c1.1,0,2,0.9,2,2s-0.9,2-2,2
				l-4.7,0c-21.2,0-85.6,0-96.2,0.6C640.2,292.4,640.2,292.4,640.1,292.4z"/>
		</g>
		<g>
			<path d="M734.5,315.7c-0.2,0-0.4,0-0.6-0.1c-10.2-3.1-23.7-10.3-35.6-16.6c-5-2.7-9.8-5.2-14.1-7.3c-1-0.5-1.4-1.7-0.9-2.7
				c0.5-1,1.7-1.4,2.7-0.9c4.4,2.2,9.1,4.7,14.2,7.4c11.7,6.3,25,13.3,34.8,16.3c1.1,0.3,1.7,1.4,1.3,2.5
				C736.1,315.2,735.3,315.7,734.5,315.7z"/>
		</g>
		<g>
			<path d="M734.5,315.7c-0.5,0-1.1-0.2-1.5-0.7c-0.7-0.8-0.7-2.1,0.1-2.8c3.2-2.9,4.9-15.3,6-22.7c0.2-1.1,1.2-1.9,2.3-1.7
				c1.1,0.2,1.9,1.2,1.7,2.3c-1.9,13.8-3.7,21.8-7.3,25.1C735.4,315.5,734.9,315.7,734.5,315.7z"/>
		</g>
		<g>
			<path d="M638.9,342.6c-0.6,0-1.2-0.3-1.6-0.8c-0.7-0.9-0.5-2.1,0.4-2.8c6.1-4.6,8.7-9.8,7.4-15c-2.3-9.4-16.3-18-34-20.9
				c-1.1-0.2-1.8-1.2-1.7-2.3c0.2-1.1,1.2-1.8,2.3-1.7c19.6,3.2,34.6,12.8,37.3,23.9c1.2,4.8,0.6,12.1-8.9,19.2
				C639.7,342.5,639.3,342.6,638.9,342.6z"/>
		</g>
		<g>
			<path d="M627.6,322.9c-0.5,0-1.1-0.2-1.5-0.6c-1-1.1-2.1-2.2-3.1-3.3c-6.3-6.7-11.7-12.5-13.5-17c-0.4-1,0.1-2.2,1.1-2.6
				c1-0.4,2.2,0.1,2.6,1.1c1.5,3.8,7,9.6,12.7,15.8c1,1.1,2.1,2.2,3.1,3.4c0.8,0.8,0.7,2.1-0.1,2.8
				C628.6,322.7,628.1,322.9,627.6,322.9z"/>
		</g>
		<g>
			<path d="M627.6,322.9c-0.4,0-0.8-0.1-1.1-0.3c-6.3-4.3-13.3-5.9-20-7.6c-13.3-3.2-27.1-6.5-33.7-30.4c-0.3-1.1,0.3-2.2,1.4-2.5
				c1.1-0.3,2.2,0.3,2.5,1.4c6,21.6,17.4,24.4,30.7,27.6c7.1,1.7,14.4,3.4,21.3,8.1c0.9,0.6,1.2,1.9,0.5,2.8
				C628.9,322.6,628.3,322.9,627.6,322.9z"/>
		</g>
		<g>
			<path d="M574.8,309.8c-0.3,0-0.7-0.1-1-0.3c-2.7-1.6-4.4-4.9-4.8-9.7c-0.5-6.1,1.1-14.6,4.5-17.4c0.8-0.7,2.1-0.6,2.8,0.2
				s0.6,2.1-0.2,2.8c-1.6,1.4-3.6,7.9-3.1,14c0.3,3.3,1.3,5.7,2.8,6.5c1,0.6,1.3,1.8,0.7,2.7C576.2,309.5,575.5,309.8,574.8,309.8z"
				/>
		</g>
		<g>
			<path d="M573.8,309c-0.4,0-0.8-0.1-1.2-0.4c-6-4.5-12.1-7.8-17.5-10.8c-8.7-4.8-16.2-8.9-20.8-16c-0.6-0.9-0.3-2.2,0.6-2.8
				c0.9-0.6,2.2-0.3,2.8,0.6c4,6.3,11.1,10.2,19.3,14.7c5.5,3,11.7,6.5,18,11.1c0.9,0.7,1.1,1.9,0.4,2.8
				C575,308.8,574.4,309,573.8,309z"/>
		</g>
		<g>
			<path d="M536.6,304.1c-0.7,0-1.3-0.3-1.7-0.9c-2.8-4.5-5.4-20.6-0.1-24c0.9-0.6,2.2-0.3,2.8,0.6c0.6,0.9,0.3,2.2-0.6,2.8
				c-2.2,1.4-1.3,14.4,1.3,18.6c0.6,0.9,0.3,2.2-0.6,2.8C537.4,304,537,304.1,536.6,304.1z"/>
		</g>
		<g>
			<path d="M548.9,309.8c-0.2,0-0.3,0-0.5-0.1c-6.6-1.7-12.6-5.8-18.9-10.1c-8.2-5.6-16.6-11.4-27.2-12.6c-1.1-0.1-1.9-1.1-1.8-2.2
				c0.1-1.1,1.1-1.9,2.2-1.8c11.6,1.3,20.9,7.7,29,13.2c6,4.1,11.7,8,17.7,9.5c1.1,0.3,1.7,1.4,1.5,2.4
				C550.6,309.2,549.8,309.8,548.9,309.8z"/>
		</g>
		<g>
			<path d="M509.7,301.3c-0.4,0-0.9-0.1-1.2-0.4c-1.4-1.1-2.6-3.7-4.3-7.7c-1.1-2.5-2.2-5.1-3.4-7c-0.6-0.9-0.3-2.2,0.7-2.8
				c0.9-0.6,2.2-0.3,2.8,0.7c1.3,2.1,2.5,4.9,3.6,7.5c1,2.2,2.4,5.6,3.1,6.2c0.9,0.7,1,2,0.3,2.8
				C510.9,301.1,510.3,301.3,509.7,301.3z"/>
		</g>
		<g>
			<path d="M528.5,307.9c-0.4,0-0.8-0.1-1.2-0.4c-4.8-3.5-11.2-4.8-19.2-6.5c-7.4-1.6-15.7-3.3-25.3-7.2c-1-0.4-1.5-1.6-1.1-2.6
				c0.4-1,1.6-1.5,2.6-1.1c9.3,3.7,17.5,5.4,24.7,7c8.2,1.7,15.3,3.2,20.8,7.2c0.9,0.6,1.1,1.9,0.5,2.8
				C529.8,307.6,529.2,307.9,528.5,307.9z"/>
		</g>
		<g>
			<path d="M493.2,320.7c-1.1,0-2-0.9-2-2c0-3,0.5-7.9,3.5-7.9c1.1,0,2,0.9,2,2c0,0.7-0.4,1.4-1,1.7c-0.2,0.6-0.5,2-0.5,4.2
				C495.2,319.8,494.3,320.7,493.2,320.7z"/>
		</g>
		<g>
			<path d="M508.2,328.3c-0.8,0-1.6-0.5-1.9-1.3c-1.4-3.9-5.7-6.7-8.7-8.8c-2.9-1.9-5-3.3-4.9-5.5c0-1.1,1-2,2.1-1.9
				c1,0,1.8,0.8,1.9,1.7c0.4,0.5,2,1.6,3.1,2.3c3.6,2.4,8.4,5.6,10.3,10.8c0.4,1-0.2,2.2-1.2,2.6
				C508.7,328.2,508.4,328.3,508.2,328.3z M496.7,312.8C496.7,312.8,496.7,312.8,496.7,312.8C496.7,312.8,496.7,312.8,496.7,312.8z"
				/>
		</g>
		<g>
			<path d="M504.5,322.9c-1.1,0-2-0.9-2-2c0-4.4,5-7.9,11.3-7.9c1.1,0,2,0.9,2,2s-0.9,2-2,2c-4.3,0-7.3,2.1-7.3,3.9
				C506.5,322,505.6,322.9,504.5,322.9z"/>
		</g>
		<g>
			<path d="M539.8,339.2c-1.1,0-2-0.9-2-2c0-11.1-10.8-20.2-24-20.2c-1.1,0-2-0.9-2-2s0.9-2,2-2c15.4,0,28,10.9,28,24.2
				C541.8,338.3,540.9,339.2,539.8,339.2z"/>
		</g>
		<g>
			<path d="M604.5,343.7c-0.6,0-1.1-0.2-1.5-0.7c-4.5-5.1-16-9.8-28-11.4c-14.2-2-26.6,0.6-33.9,7.1c-0.8,0.7-2.1,0.7-2.8-0.2
				c-0.7-0.8-0.7-2.1,0.2-2.8c11.2-9.9,28-9.3,37.1-8.1c13.1,1.8,25.3,6.9,30.4,12.7c0.7,0.8,0.7,2.1-0.2,2.8
				C605.4,343.5,604.9,343.7,604.5,343.7z"/>
		</g>
		<g>
			<path d="M560,385c-2.6,0-5.1-0.3-7.3-0.7c-1.1-0.2-1.8-1.3-1.6-2.4c0.2-1.1,1.3-1.8,2.4-1.6c6.8,1.3,16.3,0.6,22.4-4
				c3.5-2.6,5.4-6.2,5.7-10.7c0.1-1.1,1-1.9,2.1-1.9c1.1,0.1,1.9,1,1.9,2.1c-0.4,5.6-2.9,10.3-7.3,13.6
				C573.1,383.6,566.1,385,560,385z"/>
		</g>
		<g>
			<path d="M709.8,332.5c-0.3,0-0.5,0-0.8-0.2c-10.1-4.2-19.7-12.3-28.9-20.2c-10.5-8.9-20.4-17.4-30.9-20.4
				c-1.1-0.3-1.7-1.4-1.4-2.5c0.3-1.1,1.4-1.7,2.5-1.4c11.3,3.2,22,12.3,32.4,21.2c9,7.7,18.3,15.6,27.9,19.6c1,0.4,1.5,1.6,1.1,2.6
				C711.3,332,710.6,332.5,709.8,332.5z"/>
		</g>
		<g>
			<path d="M611.4,418.7c-0.1,0-0.1,0-0.2,0c-1.1-0.1-1.9-1.1-1.8-2.2c2.2-21.1,15.3-41.2,36.8-56.5c21.5-15.3,48.9-24.1,77.2-24.8
				c1.1,0,2,0.8,2.1,1.9c0,1.1-0.8,2-1.9,2.1c-56.4,1.5-105.8,36.3-110.1,77.8C613.3,418,612.4,418.7,611.4,418.7z"/>
		</g>
		<g>
			<path d="M904.7,352.7c-0.6,0-1.1-0.2-1.5-0.7c-37.6-45.6-81.8-53.2-112.3-51.5c-40.4,2.2-73.4,21.6-85.2,39.6
				c-0.6,0.9-1.8,1.2-2.8,0.6c-0.9-0.6-1.2-1.8-0.6-2.8c12.3-18.8,46.6-39.1,88.3-41.4c20.6-1.1,40.5,2.2,59.1,9.9
				c21.3,8.9,40.3,23.3,56.6,43c0.7,0.9,0.6,2.1-0.3,2.8C905.6,352.5,905.1,352.7,904.7,352.7z"/>
		</g>
		<g>
			<path d="M891.4,338.4c-0.8,0-1.6-0.5-1.9-1.3c-1.6-4.6,0-7.2,1.2-8.4c2.1-2.3,5.8-2.9,9.7-1.8c1.1,0.3,1.7,1.4,1.4,2.5
				s-1.4,1.7-2.5,1.4c-2.5-0.7-4.7-0.4-5.7,0.7c-1.1,1.2-0.7,3.2-0.3,4.4c0.4,1-0.2,2.2-1.2,2.5
				C891.8,338.3,891.6,338.4,891.4,338.4z"/>
		</g>
		<g>
			<path d="M876.4,362.1c-0.8,0-1.6-0.5-1.9-1.4c-12.1-37.2-64.3-45-95.8-36.2c-1.1,0.3-2.2-0.3-2.5-1.4c-0.3-1.1,0.3-2.2,1.4-2.5
				c17.1-4.8,39-4.5,57.1,0.7c15.7,4.6,36,14.9,43.6,38.1c0.3,1.1-0.2,2.2-1.3,2.5C876.8,362.1,876.6,362.1,876.4,362.1z"/>
		</g>
		<g>
			<path d="M860.1,385.5c-0.1,0-0.2,0-0.3,0c-18.9-2.9-29.2-11.2-40-20.1c-16-13.1-32.5-26.6-80.2-26.2c0,0,0,0,0,0
				c-1.1,0-2-0.9-2-2c0-1.1,0.9-2,2-2c49.1-0.5,67,14.1,82.7,27.1c10.4,8.5,20.2,16.6,38.1,19.3c1.1,0.2,1.8,1.2,1.7,2.3
				C862,384.7,861.1,385.5,860.1,385.5z"/>
		</g>
		<g>
			<path d="M757.1,503.7c-0.2,0-0.5,0-0.7-0.1c-25.4-9.6-86.9-34.9-108.2-63.7c-0.7-0.9-0.5-2.1,0.4-2.8c0.9-0.7,2.1-0.5,2.8,0.4
				c20.7,27.9,81.3,52.9,106.4,62.3c1,0.4,1.6,1.5,1.2,2.6C758.7,503.2,757.9,503.7,757.1,503.7z"/>
		</g>
		<g>
			<path d="M629.4,446.8c-1.1,0-2-0.9-2-2c0-28,11.4-50,26.1-50c1.1,0,2,0.9,2,2s-0.9,2-2,2c-12,0-22.1,21.1-22.1,46
				C631.4,445.9,630.5,446.8,629.4,446.8z"/>
		</g>
		<g>
			<path d="M659,439.3c-0.6,0-1.2-0.3-1.6-0.8c-12.5-17.3-14.4-32.6-5.4-43c0.7-0.8,2-0.9,2.8-0.2c0.8,0.7,0.9,2,0.2,2.8
				c-10.4,11.9-0.9,28.9,5.6,38c0.6,0.9,0.4,2.1-0.4,2.8C659.8,439.2,659.4,439.3,659,439.3z"/>
		</g>
	</g>
</g>
</svg>
