<?xml version="1.0" encoding="utf-8"?>
<!-- Generator: Adobe Illustrator 22.1.0, SVG Export Plug-In . SVG Version: 6.00 Build 0)  -->
<svg version="1.1" id="Layer_1" xmlns="http://www.w3.org/2000/svg" xmlns:xlink="http://www.w3.org/1999/xlink" x="0px" y="0px"
	 viewBox="0 0 1000 1000" enable-background="new 0 0 1000 1000" xml:space="preserve">
<g>
	<circle fill="#C9201B" cx="499.6" cy="500.8" r="499.2"/>
</g>
<g>
	<path fill="#FFFFFF" d="M572.1,739.8c-0.6,0-1.2-0.3-1.5-0.9c-0.3-0.6-0.2-1.4,0.2-1.9c7.7-8.7,6-21.2,3.7-23.6
		c-0.6-0.7-0.6-1.7,0.1-2.4c0.7-0.6,1.7-0.6,2.4,0.1c3.3,3.4,4.5,15-0.9,24.3c3.8-1.4,6.9-4,9-7.5c3.6-6,4-14,1-22
		c-0.3-0.9,0.1-1.8,1-2.2c0.9-0.3,1.8,0.1,2.2,1c3.3,8.9,2.8,18-1.3,24.9c-3.4,5.7-9,9.3-15.7,10.2
		C572.2,739.8,572.2,739.8,572.1,739.8z"/>
</g>
<g>
	<path fill="#FFFFFF" d="M391,777.2c-0.8,0-1.4-0.5-1.6-1.3s0.2-1.5,0.9-1.9c7.8-4.1,13.4-13.1,13.2-18.4c0-0.9,0.7-1.7,1.6-1.7
		c1-0.1,1.7,0.7,1.7,1.6c0.2,5.6-3.9,12.8-9.6,17.8c11.3-2,19.8-9.3,19.8-18c0-0.9,0.8-1.7,1.7-1.7c0.9,0,1.7,0.8,1.7,1.7
		C420.2,767.4,407.1,777.2,391,777.2z"/>
</g>
<g>
	<path fill="#FFFFFF" d="M312.9,716.1c0,0-0.1,0-0.1,0c-0.8-0.1-1.4-0.6-1.5-1.4c-1.6-9.5,0.3-18.7,5.2-24.5c3-3.6,7-5.6,11.2-5.6
		c0,0,0,0,0,0c0.9,0,1.7,0.8,1.7,1.7c0,0.9-0.8,1.7-1.7,1.7c0,0,0,0,0,0c-3.2,0-6.2,1.5-8.6,4.4c-3.3,3.9-5,9.6-5,15.9
		c4.4-7.2,11.5-12.3,15.7-12c0.9,0.1,1.6,0.9,1.6,1.8c-0.1,0.9-0.9,1.6-1.8,1.6c-3.1-0.3-11.7,6.1-15,15.4
		C314.2,715.7,313.6,716.1,312.9,716.1z"/>
</g>
<g>
	<path fill="#FFFFFF" d="M313.3,674.4c-0.3,0-0.6-0.1-0.9-0.3c-0.6-0.4-0.9-1.2-0.7-1.9c5.9-18.4,19.2-19.2,25.6-19.6
		c1.3-0.1,2.8-0.2,3.2-0.4c0.8-0.5,1.8-0.2,2.3,0.6c0.5,0.8,0.2,1.8-0.6,2.3c-1.1,0.6-2.6,0.7-4.7,0.9c-5.7,0.4-14.8,0.9-20.5,12.2
		c8.4-4.6,18.5-4,22-1.7c0.8,0.5,1,1.6,0.4,2.3c-0.5,0.8-1.6,1-2.3,0.4c-3-2-14.9-2.3-22.7,4.8C314.1,674.3,313.7,674.4,313.3,674.4
		z"/>
</g>
<g>
	<path fill="#FFFFFF" d="M356.4,651.3c-0.6,0-1.3-0.4-1.5-1c-1.8-4-12.2-7.3-21.3-3.7c-0.7,0.3-1.5,0.1-1.9-0.5
		c-0.5-0.6-0.5-1.4-0.1-2c4.9-7,12.2-11.3,19.9-11.8c6.6-0.4,12.6,1.9,16.6,6.3c0.6,0.7,0.6,1.7-0.1,2.4c-0.7,0.6-1.7,0.6-2.4-0.1
		c-3.3-3.7-8.4-5.6-13.9-5.2c-5.2,0.3-10.1,2.6-14,6.4c9-1.4,18.1,2.1,20.3,6.9c0.4,0.8,0,1.8-0.9,2.2
		C356.9,651.2,356.6,651.3,356.4,651.3z"/>
</g>
<g>
	<path fill="#FFFFFF" d="M436.1,653.5c-0.8,0-1.5-0.6-1.7-1.4c-0.1-0.8,0.3-1.6,1.1-1.9c8.2-2.8,13.7-11.2,14.7-17.6
		c0.1-0.9,1-1.5,1.9-1.4c0.9,0.1,1.5,1,1.4,1.9c-0.8,5.6-4.3,12.1-9.9,16.4c11.9-1.9,20.7-8.3,20.7-15.8c0-0.9,0.8-1.7,1.7-1.7
		s1.7,0.8,1.7,1.7C467.7,644.8,453.8,653.5,436.1,653.5z"/>
</g>
<g>
	<path fill="#FFFFFF" d="M296.7,581c-0.8,0-1.5-0.6-1.7-1.4s0.3-1.6,1.1-1.9c7.7-2.8,13.7-10.6,13.8-15.7c0-0.9,0.8-1.6,1.7-1.6
		c0.9,0,1.7,0.8,1.6,1.7c-0.1,5.1-3.9,10.9-9.1,14.9c9.1-1.6,15.8-5.8,15.8-10.7c0-0.9,0.8-1.7,1.7-1.7s1.7,0.8,1.7,1.7
		C323.4,574.5,311.7,581,296.7,581z"/>
</g>
<g>
	<path fill="#FFFFFF" d="M235.7,478.6c-0.2,0-0.4,0-0.6-0.1c-0.8-0.3-1.2-1.1-1-1.9c4.9-23.2,18.7-22.8,23.9-22.6c0.3,0,0.7,0,0.9,0
		c0,0,0,0,0,0c0.9,0,1.7,0.7,1.7,1.7c0,0.9-0.7,1.7-1.7,1.7c-0.3,0-0.6,0-1,0c-4.3-0.1-13.8-0.4-18.9,14c5.2-3.4,12.5-4.4,17.2-3.5
		c0.9,0.2,1.5,1,1.4,1.9c-0.2,0.9-1,1.5-1.9,1.4c-5.5-0.9-15.2,1.1-18.5,6.7C236.8,478.3,236.2,478.6,235.7,478.6z"/>
</g>
<g>
	<path fill="#FFFFFF" d="M272.7,447.5c-0.9,0-1.6-0.7-1.7-1.6c-0.2-2.7-2-4.4-3.4-5.3c-4.2-2.5-10.8-2.3-17.3,0.5
		c-0.7,0.3-1.5,0.1-1.9-0.5c-0.5-0.6-0.5-1.4-0.1-2c4.7-7.3,11.8-11.8,19.4-12.4c6.8-0.5,13.4,2.1,18,7.2c0.6,0.7,0.6,1.7-0.1,2.4
		c-0.7,0.6-1.7,0.6-2.4-0.1c-3.9-4.3-9.5-6.6-15.3-6.1c-5,0.4-9.7,2.7-13.4,6.6c5.7-1.3,11-0.8,14.9,1.5c3,1.8,4.8,4.7,5,7.9
		c0.1,0.9-0.6,1.7-1.6,1.8C272.8,447.5,272.7,447.5,272.7,447.5z"/>
</g>
<g>
	<path fill="#FFFFFF" d="M298,436.1c-0.9,0-1.7-0.8-1.7-1.7c0-5.9-7.3-10.6-16.3-10.6c-0.7,0-1.4-0.5-1.6-1.2
		c-0.2-0.7,0.1-1.5,0.7-1.9c9.2-5.7,19.4-6.8,27.4-3c5,2.4,8.2,6.5,8.7,11.1c0.1,0.9-0.6,1.8-1.5,1.9c-0.9,0.1-1.8-0.6-1.9-1.5
		c-0.4-3.4-3-6.5-6.9-8.4c-5.6-2.7-12.6-2.5-19.3,0.3c8,1.7,13.9,7.1,13.9,13.4C299.7,435.3,299,436.1,298,436.1z"/>
</g>
<g>
	<path d="M460.4,438.7c-37.5,0-64.5-28.7-93.2-59c-47.3-50.1-96.2-101.8-198.6-31l-1.9-2.8c46.8-32.4,87.1-42.2,123.1-30.1
		c31.8,10.7,56.2,36.6,79.8,61.6c28.1,29.8,54.7,57.9,90.7,57.9V438.7z"/>
</g>
<g>
	<g>
		<path d="M137,392.7c-0.6,0-1.2-0.4-1.5-1c-3.6-7.7-0.3-17.4,5-19.9c0.4-0.2,0.9-0.2,1.4,0c0.4,0.2,0.8,0.6,0.9,1
			c1.2,3.8,2.8,12.1-0.2,16.7c-1.2,1.9-3.1,3-5.4,3.2C137.1,392.6,137.1,392.7,137,392.7z M140.2,376.1c-2.5,2.8-3.8,8.3-2.2,13
			c0.7-0.3,1.3-0.8,1.8-1.5C141.6,384.9,141,379.6,140.2,376.1z"/>
	</g>
	<g>
		<path d="M191.1,465.1c-6,0-13.2-3.6-18.2-9.5c-5-4.8-6-13.5-7.1-22.7c-1.4-11.2-2.9-23.8-11.5-31.5c-7.8,4.4-10.7,17.9-13.3,30
			c-2.1,9.6-3.8,17.8-7.9,21.2c-3.9,3.7-7.8,5.2-11,4c-2.4-0.9-5.3-3.6-6-11.4c-0.1-6.7,2-9.7,4.3-12.8c2.2-3,4.6-6.4,6-14.2
			c0.1-0.6,0-1.6,0-2.7c-0.3-4-0.8-10.6,4.5-17.7c-3.1-3-5-7.2-5.4-11.9c-0.4-5.1,1-10.2,3.6-13.1c13-14.2,16.2-26.2,19.5-39
			c1.7-6.5,3.4-13.1,6.5-20c2-4.2,4.5-7.9,6.8-11.5c4.6-6.9,9.4-14.1,11-25.2c0.1-0.6,0.6-1.2,1.2-1.4c0.6-0.2,1.3,0,1.7,0.5
			c2.4,2.7,6.7,18.6-1.4,27c-1,1.1-1.4,2.3-1.1,3.2c0.5,1.3,2.6,2.1,5.7,2.2c0.8,0,1.5,0.6,1.6,1.5c0.1,0.8-0.4,1.6-1.2,1.8
			c-5.7,1.7-10.2,5.7-11.1,9.9c-0.6,2.7,0.3,5.3,2.6,7.5c0.7,0.6,0.7,1.7,0.1,2.3c-3.5,4-5.6,6.7-6.7,8.5c1.5-1,4-2.7,7.8-5.7
			c3.7-3.3,7-7.9,10.2-12.4c6.8-9.4,13.8-19.2,26.4-20c0.7,0,1.4,0.4,1.6,1c0.3,0.6,0.1,1.4-0.4,1.9c-3.2,3.1-9.1,12.4-8.5,17.9
			c0.1,1.4,0.7,2.5,1.8,3.1c0.8,0.5,1,1.5,0.5,2.3c-0.5,0.8-1.5,1-2.3,0.5c-2-1.2-3.1-3.2-3.4-5.6c-0.5-5.2,3.1-12.3,6.5-17
			c-8.5,2.4-13.9,9.9-19.6,17.9c-3.3,4.6-6.7,9.3-10.8,13c-11,8.7-12.8,8.4-14,7c-1-1-2.3-2.4,7.2-13.4c-2.4-2.8-3.3-6.1-2.5-9.5
			c0.9-4,4-7.7,8.4-10.2c-1.9-0.9-2.8-2.2-3.2-3.1c-0.9-2.1-0.2-4.7,1.7-6.8c4.5-4.7,4.3-12.6,3.1-17.7c-2.2,8.8-6.4,15-10.4,21
			c-2.4,3.6-4.7,7.1-6.6,11.1c-3,6.6-4.7,13.2-6.3,19.5c-3.3,12.6-6.6,25.5-20.2,40.4c-2,2.2-3.1,6.5-2.7,10.6
			c0.4,4.4,2.3,8.2,5.4,10.7c0.4,0.3,0.6,0.7,0.6,1.1c0,0.4-0.1,0.9-0.4,1.2c-5.5,6.6-5,12.6-4.7,16.6c0.1,1.4,0.2,2.6,0,3.6
			c-1.5,8.5-4.3,12.4-6.6,15.6c-2.2,3-3.8,5.2-3.7,10.7c0.4,4.6,1.7,7.7,3.8,8.5c1.9,0.7,4.7-0.5,7.6-3.3c3.2-2.7,5-10.8,6.8-19.4
			c2.9-13.3,6.1-28.3,16.1-32.8c0.6-0.3,1.3-0.2,1.7,0.2c10.4,8.5,12.1,22.3,13.6,34.4c1,8.7,2,16.8,6.2,20.8c0,0,0.1,0.1,0.1,0.1
			c5.1,5.9,12.8,9.4,18.1,8.1c2.5-0.6,4.2-2.3,5.3-4.9c-5.8,0.7-7.7-1.7-8.3-3c-1-2-0.6-4.5,1-6.7c-3.4-0.7-5.5-1.9-6.5-3.8
			c-1.9-3.6,0.6-8.3,3.8-14.2c2.5-4.7,5.6-10.3,7-16.5c-3.9,3.7-9.4,7.3-14.7,10.6c-0.5,0.3-1.1,0.3-1.7,0.1
			c-0.5-0.3-0.9-0.8-0.9-1.4c-0.2-5.9,3.4-12,6.6-17.3c0.7-1.2,1.5-2.5,2.1-3.6c-0.6,0.3-1.2,0.5-1.7,0.8c-3.4,1.5-6.5,3-8.7,7.1
			c-0.4,0.7-1.2,1.1-2,0.8c-0.8-0.2-1.3-1-1.2-1.8c1.8-16.8,9.9-21.5,20.1-27.4c4.8-2.8,10.1-5.8,15.6-10.7
			c-7.3,1.1-13.4,2.7-18.2,3.9c-6.3,1.6-10.4,2.7-13.1,1.6c-0.9-0.3-1.3-1.3-1-2.2c0.3-0.9,1.3-1.3,2.2-1c1.7,0.6,5.8-0.4,11-1.8
			c5.9-1.5,13.9-3.6,23.7-4.6c0.7-0.1,1.4,0.3,1.7,0.9c0.3,0.6,0.2,1.4-0.3,1.9c-7.1,7.3-14,11.2-20.1,14.7
			c-8.3,4.8-14.6,8.4-17.4,18.7c1.9-1.5,4-2.5,6-3.4c2.1-1,4.1-1.9,5.7-3.5c0.5-0.5,1.4-0.6,2-0.3c0.7,0.4,1,1.1,0.8,1.9
			c-0.7,2.8-2.6,6-4.6,9.5c-2.3,3.9-4.9,8.2-5.8,12.3c5-3.2,12.2-8.2,14.6-12.4c0.4-0.7,1.2-1,1.9-0.8c0.7,0.2,1.3,0.9,1.2,1.7
			c-0.4,9.2-4.7,17.2-8.2,23.6c-2.6,4.8-4.9,9-3.8,11c0.7,1.3,3.1,2.1,7.1,2.5c0.7,0.1,1.3,0.5,1.5,1.2c0.2,0.7,0,1.4-0.6,1.8
			c-2.3,1.9-3,4-2.5,5.1c0.5,1,2.8,1.9,7.3,0.7c0.6-0.1,1.2,0,1.6,0.4c0.4,0.4,0.6,1,0.5,1.6c-1.4,6.8-5.4,9.2-8.5,10
			C193.3,464.9,192.2,465.1,191.1,465.1z"/>
	</g>
	<g>
		<path d="M117.8,488.9c-0.8,0-1.5-0.6-1.6-1.4c-0.1-0.8,0.3-1.6,1-1.9c4.2-1.7,6.5-3,7.8-3.9c-6.3-1.5-9.3-8.2-10.4-10.9
			c-0.3-0.7-0.1-1.4,0.4-1.9c0.5-0.5,1.3-0.6,1.9-0.3c10.4,5.4,19.8,3.9,25,0.6c3.6-2.2,5.6-5.3,5.6-8.7
			c-1.1-40.1,1.6-55.5,10.4-58.8c0.9-0.3,1.8,0.1,2.2,1c0.3,0.9-0.1,1.8-1,2.2c-6.9,2.6-9.3,18.7-8.2,55.6c0,4.6-2.6,8.8-7.3,11.6
			c-5.3,3.2-14,5-23.9,1.4c1.7,2.7,4.1,4.9,7.4,5.1l0.9,0c0.5,0,1,0.2,1.3,0.6s0.4,0.9,0.4,1.4c-0.3,1.5-1.4,2.8-3.5,4.2
			c16-2.3,28-11.1,28-21.5c0.1-3,0.1-6,0.2-8.9c0.6-31.3,1.2-46.4,7.6-46.9c0.9-0.1,1.7,0.6,1.8,1.5c0.1,0.9-0.6,1.7-1.5,1.8
			c-3.6,0.3-4.1,25.4-4.5,43.7c-0.1,2.9-0.1,5.9-0.2,8.9C157.5,477.4,139.7,488.9,117.8,488.9z"/>
	</g>
</g>
<g>
	<g>
		<path d="M270.8,196.9c-1.2,0-2.4-0.3-3.5-0.9c-0.6-0.3-1-1-0.9-1.7c1.2-8.4,9.4-14.6,15.2-13.8c0.5,0.1,0.9,0.3,1.2,0.7
			c0.3,0.4,0.3,0.9,0.2,1.4c-1,3.8-4.4,11.6-9.4,13.8C272.7,196.8,271.8,196.9,270.8,196.9z M270,193.5c0.8,0.2,1.5,0.1,2.3-0.2
			c2.9-1.3,5.4-5.9,6.7-9.3C275.4,184.8,271.3,188.8,270,193.5z"/>
	</g>
	<g>
		<path d="M278.6,288.3c-1.4,0-2.6-0.3-3.6-0.6c-6.3-2.2-11.6-10.3-12.8-19.4c-1.5-6.7,2.5-14.6,6.7-22.9
			c5.1-10.1,10.8-21.4,7.9-32.6c-8.9-0.7-18.9,9-27.7,17.6c-7,6.8-13.1,12.7-18.3,13.2c-5.3,1-9.4,0-11.4-2.8
			c-1.5-2-2.4-5.9,1.4-12.8c3.6-5.6,7.1-6.9,10.7-8.3c3.5-1.3,7.4-2.8,12.9-8.5c0.4-0.4,0.9-1.3,1.5-2.3c2-3.5,5.2-9.2,13.6-12.3
			c-0.9-4.2-0.2-8.8,2.1-12.9c2.5-4.5,6.5-8,10.2-9c18.7-4.6,28-12.9,37.8-21.6c5-4.4,10.1-9,16.5-13.1c4-2.4,8.1-4.1,12.1-5.8
			c7.7-3.2,15.6-6.5,23.1-14.9c0.4-0.5,1.1-0.7,1.7-0.5c0.6,0.2,1.1,0.7,1.2,1.4c0.5,3.5-4.7,19.2-16.1,21.7
			c-2.4,0.6-2.9,1.1-2.9,1.4c-0.1,0.2-0.2,1,1.2,3.3c0.3,0.5,0.3,1.1,0,1.6c-0.3,0.5-0.8,0.8-1.4,0.9c-7.1,0.4-11.5,1.9-13.5,4.5
			c-0.9,1.2-1.3,2.7-1.3,4.5c4.8-4.1,12.9-5.2,15.8-5.2c12.1-8.3,17.6-6.9,24.7-5.2c4.5,1.1,9.5,2.3,17.7,1.3
			c0.7-0.1,1.3,0.3,1.7,0.8c0.3,0.6,0.3,1.3-0.2,1.9c-0.6,0.8-1.2,1.6-1.7,2.4c-4.3,6.1-9.2,13.1-32.3,6.2c-0.9-0.3-1.4-1.2-1.1-2.1
			c0.3-0.9,1.2-1.4,2.1-1.1c20.2,6,24.4,1.1,28.3-4.4c-6.7,0.3-11.3-0.8-15.1-1.7c-6.8-1.6-11.3-2.7-22.5,5
			c-0.3,0.2-0.7,0.3-1.1,0.3c-1.7-0.2-12.7,1-15.8,6.5c-0.3,0.6-1,0.9-1.7,0.8c-0.7-0.1-1.2-0.6-1.4-1.3c-1.1-4.6-0.7-8.1,1.3-10.8
			c2.3-3.2,6.6-5,13.5-5.7c-0.5-1.3-0.7-2.7-0.2-4c0.8-2,3.1-2.8,5.3-3.3c6.4-1.4,10.5-8.1,12.4-13c-6.7,6.1-13.6,8.9-20.3,11.7
			c-4,1.7-7.9,3.3-11.6,5.5c-6.2,3.9-11.2,8.4-16.1,12.7c-9.7,8.6-19.7,17.6-39.2,22.4c-2.9,0.7-6.1,3.7-8.1,7.3
			c-2.1,3.9-2.6,8.1-1.4,11.9c0.1,0.4,0.1,0.9-0.1,1.3c-0.2,0.4-0.6,0.7-1,0.8c-8.2,2.5-11.2,7.7-13.2,11.2c-0.7,1.3-1.3,2.3-2,3
			c-6,6.2-10.5,7.9-14.1,9.3c-3.5,1.3-6,2.3-9,6.9c-2.2,4.1-2.8,7.4-1.5,9.1c1.2,1.7,4.2,2.2,8.2,1.5c4.2-0.4,10.1-6.2,16.4-12.3
			c9.7-9.4,20.8-20.2,31.6-18.3c0.6,0.1,1.1,0.6,1.3,1.2c4,12.8-2.3,25.2-7.8,36.2c-3.9,7.8-7.6,15.1-6.4,20.7c0,0.1,0,0.1,0,0.2
			c0.9,7.8,5.5,15,10.6,16.7c2.4,0.8,4.8,0.5,7.2-1.1c-5.2-2.6-5.5-5.7-5.3-7.1c0.3-2.2,2-4,4.6-5.1c-2.4-2.4-3.5-4.6-3.3-6.7
			c0.4-4,5.1-6.5,11-9.7c4.7-2.5,10.3-5.5,14.9-9.8c-5.3,0.9-11.9,0.9-18.1,0.7c-0.6,0-1.1-0.4-1.4-0.9c-0.3-0.5-0.3-1.2,0.1-1.7
			c3.1-5,9.5-8.1,15.1-10.7c1.3-0.6,2.6-1.2,3.8-1.8c-0.6-0.1-1.3-0.2-1.9-0.3c-3.6-0.6-7.1-1.1-11.1,1.1c-0.7,0.4-1.6,0.2-2.1-0.4
			c-0.5-0.6-0.5-1.5,0-2.1c10.9-13,20.2-12.4,31.9-11.6c5.5,0.4,11.7,0.8,18.9-0.2c-6.7-3.1-12.7-5.2-17.3-6.8
			c-6.1-2.1-10.1-3.5-11.8-5.9c-0.5-0.8-0.4-1.8,0.4-2.3c0.8-0.5,1.8-0.4,2.3,0.4c1,1.4,5,2.9,10.1,4.6c5.7,2,13.5,4.7,22.3,9.3
			c0.6,0.3,1,1,0.9,1.7c-0.1,0.7-0.6,1.3-1.3,1.4c-10,2.1-17.9,1.6-24.9,1.1c-9.5-0.6-16.8-1.1-24.8,5.9c2.5-0.2,4.7,0.2,6.9,0.5
			c2.3,0.4,4.5,0.7,6.7,0.3c0.7-0.1,1.5,0.2,1.8,0.9c0.3,0.7,0.2,1.5-0.4,2c-2.1,2-5.5,3.6-9.1,5.3c-4.1,2-8.6,4.1-11.6,7
			c5.9,0.1,14.7,0,19-2.2c0.7-0.4,1.5-0.2,2,0.4c0.5,0.6,0.5,1.5,0.1,2.1c-5.4,7.5-13.4,11.7-19.9,15.1c-4.9,2.6-9.1,4.8-9.3,7
			c-0.1,1.4,1.4,3.5,4.5,6c0.5,0.4,0.8,1.1,0.6,1.8c-0.2,0.7-0.8,1.1-1.5,1.2c-3,0.3-4.8,1.7-4.9,2.9c-0.1,1.2,1.3,3.1,5.7,4.6
			c0.5,0.2,1,0.6,1.1,1.2c0.1,0.6,0,1.2-0.5,1.6C284.3,287.3,281.2,288.3,278.6,288.3z"/>
	</g>
	<g>
		<path d="M226.1,274.8c-0.4,0-0.7,0-1.1,0c-8.8-0.3-18.4-3.6-27.2-9.4c-0.7-0.4-0.9-1.3-0.6-2.1c0.3-0.7,1.1-1.2,1.9-1
			c4.4,1,7.1,1.1,8.6,1c-4.4-4.8-3.1-12-2.6-14.9c0.1-0.7,0.7-1.2,1.4-1.4c0.7-0.1,1.4,0.2,1.7,0.8c5.7,10.3,14.3,14.2,20.5,14.4
			c4.2,0.2,7.7-1.3,9.5-4.1c21.3-34,32.1-45.3,41.3-43.2c0.9,0.2,1.5,1.1,1.2,2c-0.2,0.9-1.1,1.5-2,1.2
			c-7.2-1.7-18.1,10.4-37.7,41.7c-2.5,3.8-7.1,5.8-12.4,5.6c-6.2-0.2-14.4-3.6-20.7-12.1c-0.1,3.2,0.7,6.4,3.4,8.4l0.8,0.5
			c0.4,0.3,0.7,0.7,0.7,1.2c0.1,0.5-0.1,1-0.5,1.3c-1,1.1-2.7,1.6-5.3,1.6c6.1,2.9,12.3,4.5,18,4.7c7.9,0.2,14-2.3,17.2-7.1
			c1.7-2.5,3.4-4.9,5.1-7.3c17.9-25.7,26.8-38,32.3-34.9c0.8,0.4,1.1,1.5,0.7,2.3c-0.4,0.8-1.5,1.1-2.3,0.7
			c-3.2-1.8-17.5,18.8-28,33.8c-1.7,2.4-3.4,4.8-5.1,7.3C241.3,271.8,234.6,274.8,226.1,274.8z"/>
	</g>
</g>
<g>
	<g>
		<path d="M490.8,106.2c-0.3,0-0.7,0-1-0.1c-2.2-0.3-4.1-1.5-5.3-3.5c-0.4-0.6-0.3-1.4,0.1-1.9c5.3-6.6,15.5-7.8,20.1-4.2
			c0.4,0.3,0.6,0.7,0.6,1.2c0,0.5-0.2,1-0.5,1.3C502.2,101.6,496,106.2,490.8,106.2z M488.1,101.8c0.6,0.5,1.3,0.9,2.1,1
			c3.2,0.4,7.7-2.4,10.5-4.6C497.1,97.1,491.6,98.4,488.1,101.8z"/>
	</g>
	<g>
		<path d="M453.2,189.3c-4.3,0-7-2-8.6-3.9c-4.3-5.1-4.8-14.8-1.2-23.2c2.1-6.5,9.5-11.3,17.3-16.3c9.5-6.1,20.2-13,23.3-24.1
			c-7.3-5.1-20.8-1.8-32.8,1.1c-9.5,2.3-17.7,4.3-22.5,2.1c-5.1-1.8-8.1-4.8-8.4-8.2c-0.2-2.5,0.9-6.3,7.7-10.3
			c6-3,9.6-2.4,13.4-1.7c3.7,0.6,7.8,1.4,15.4-0.8c0.6-0.1,1.4-0.7,2.4-1.2c3.5-2,9.2-5.3,17.9-3.7c1.4-4.1,4.3-7.6,8.4-10.1
			c4.4-2.6,9.6-3.6,13.4-2.5c18.5,5.5,30.7,3.1,43.6,0.5c6.5-1.3,13.3-2.7,20.9-2.9c4.7,0,9.1,0.5,13.3,1.1
			c8.2,1.1,16.7,2.3,27.5-1.2c0.6-0.2,1.3,0,1.7,0.5c0.4,0.5,0.6,1.2,0.3,1.8c-1.4,3.3-13.7,14.1-24.8,10.5
			c-1.5-0.4-2.7-0.3-3.4,0.4c-0.9,1-0.7,3.3,0.5,6c0.3,0.8,0.1,1.6-0.6,2.1c-0.7,0.5-1.6,0.3-2.2-0.3c-4-4.4-9.5-6.7-13.8-5.7
			c-2.7,0.6-4.7,2.6-5.6,5.6c-0.1,0.4-0.4,0.8-0.8,1c-0.4,0.2-0.9,0.2-1.3,0.1c-6.8-2.4-9.5-1.5-10-1c0,0-0.1,0.1,0,0.4
			c0.6,1.2,3.2,2.8,7.3,2.7c11.3-0.7,31.6,0.4,40.4,15.9c0.3,0.6,0.3,1.3-0.1,1.8c-0.4,0.5-1.1,0.8-1.7,0.6
			c-5.5-1.2-18.2-4-21.1-1.5c-0.3,0.2-0.5,0.6-0.5,1.4c0,0.9-0.7,1.7-1.6,1.7c-0.9,0-1.7-0.7-1.7-1.6c-0.1-1.7,0.5-3.1,1.7-4.1
			c3.1-2.6,9.9-2,19.9,0c-8.8-10.8-25.4-11.5-35-10.9c-5.7,0.2-9.4-2.2-10.5-4.6c-0.7-1.4-0.5-3,0.5-4.1c1.9-2.1,6.1-2.2,12-0.4
			c1.4-3.3,4-5.5,7.4-6.3c4-0.9,8.7,0.3,12.9,3.1c0-2.1,0.8-3.5,1.4-4.2c1.5-1.7,4.1-2.3,6.9-1.4c6.2,2,13.2-1.6,17.3-4.9
			c-8.9,1.8-16.2,0.8-23.4-0.2c-4.3-0.6-8.4-1.2-12.8-1.1c-7.3,0.2-13.9,1.5-20.3,2.8c-12.7,2.6-25.9,5.2-45.1-0.6
			c-2.8-0.8-7.1,0.1-10.7,2.2c-3.8,2.3-6.4,5.6-7.3,9.5c-0.1,0.4-0.4,0.8-0.8,1.1c-0.4,0.2-0.8,0.3-1.3,0.2c-8.3-2-13.6,1-17,3
			c-1.3,0.7-2.2,1.3-3.2,1.5c-8.3,2.4-13.1,1.5-16.9,0.9c-3.7-0.6-6.3-1.1-11.2,1.4c-4,2.4-6.1,4.9-5.9,7.1c0.2,2,2.5,4,6.3,5.4
			c3.8,1.7,11.9-0.2,20.4-2.3c13.2-3.2,28.1-6.9,36.5,0.2c0.5,0.4,0.7,1.1,0.6,1.7c-3.1,13.1-14.7,20.6-25,27.2
			c-7.3,4.7-14.2,9.2-16,14.6c0,0.1,0,0.1-0.1,0.2c-3.1,7.2-2.9,15.7,0.6,19.8c1.6,1.9,3.9,2.8,6.7,2.6c-3.2-4.9-1.8-7.7-1-8.8
			c1.3-1.7,3.8-2.5,6.5-2c-0.9-3.3-0.7-5.7,0.6-7.5c2.4-3.3,7.7-3.1,14.4-2.8c5.3,0.2,11.7,0.5,17.9-0.9c-5-1.9-10.7-5.3-16-8.6
			c-0.5-0.3-0.8-0.9-0.8-1.5c0-0.6,0.4-1.1,0.9-1.4c5.2-2.8,12.3-2.1,18.4-1.6c1.4,0.1,2.9,0.3,4.2,0.3c-0.5-0.4-1-0.8-1.5-1.2
			c-2.8-2.3-5.5-4.6-10.2-4.7c-0.8,0-1.5-0.6-1.6-1.4c-0.1-0.8,0.3-1.6,1.1-1.8c15.9-5.7,23.6-0.4,33.4,6.2
			c4.6,3.1,9.7,6.6,16.4,9.4c-4.2-6.1-8.3-10.9-11.4-14.6c-4.2-4.9-6.9-8.2-7.2-11c-0.1-0.9,0.6-1.7,1.5-1.8
			c0.9-0.1,1.7,0.6,1.8,1.5c0.1,1.8,2.9,5,6.4,9.1c3.9,4.6,9.3,10.9,14.5,19.3c0.4,0.6,0.3,1.4-0.1,1.9c-0.4,0.6-1.2,0.8-1.9,0.6
			c-9.7-3.2-16.2-7.7-22-11.6c-7.9-5.4-14-9.5-24.4-7.5c2.2,1.1,4,2.5,5.7,3.9c1.8,1.5,3.5,2.9,5.6,3.6c0.7,0.3,1.2,0.9,1.1,1.7
			c0,0.7-0.6,1.4-1.3,1.5c-2.8,0.6-6.6,0.3-10.5-0.1c-4.5-0.4-9.5-0.8-13.6,0.1c5,3.1,12.7,7.4,17.5,7.7c0.8,0,1.4,0.6,1.6,1.4
			c0.1,0.8-0.3,1.5-1,1.8c-8.5,3.7-17.5,3.3-24.8,3c-5.5-0.2-10.2-0.4-11.6,1.4c-0.9,1.2-0.6,3.8,0.9,7.5c0.2,0.6,0.1,1.4-0.4,1.8
			c-0.5,0.5-1.2,0.6-1.9,0.3c-2.7-1.3-5-1-5.7,0c-0.7,0.9-0.5,3.3,2.6,6.9c0.4,0.4,0.5,1,0.3,1.6c-0.2,0.6-0.6,1-1.2,1.1
			C455.8,189.2,454.4,189.3,453.2,189.3z"/>
	</g>
	<g>
		<path d="M422,153.5c-4.4,0-9.2-1.5-13.9-4.5c-7.4-4.7-14.1-12.4-18.6-21.9c-0.4-0.7-0.1-1.6,0.5-2.1c0.6-0.5,1.5-0.4,2.1,0.1
			c3.3,3.1,5.5,4.6,6.9,5.3c-1.4-6.4,3.4-11.9,5.3-14.1c0.5-0.5,1.2-0.7,1.9-0.5c0.7,0.3,1.1,0.9,1.1,1.6
			c-0.3,11.7,5.2,19.5,10.4,22.8c3.5,2.3,7.3,2.7,10.3,1.3c35.6-18.5,50.7-22.8,57.5-16.3c0.7,0.6,0.7,1.7,0.1,2.4
			c-0.6,0.7-1.7,0.7-2.4,0.1c-5.3-5.1-20.8-0.2-53.6,16.9c-4.1,2-9,1.4-13.6-1.5c-5.2-3.3-10.6-10.4-11.7-20.9
			c-1.7,2.7-2.7,5.8-1.3,8.9l0.4,0.8c0.2,0.5,0.2,1,0,1.4c-0.2,0.5-0.6,0.8-1.1,0.9c-1.4,0.4-3.2,0-5.4-1.3
			c3.8,5.5,8.3,10.1,13.2,13.2c6.7,4.2,13.2,5.1,18.4,2.6c2.8-1.3,5.5-2.5,8.1-3.7c28.5-13.1,42.3-19.2,45.5-13.7
			c0.5,0.8,0.2,1.8-0.6,2.3c-0.8,0.5-1.8,0.2-2.3-0.6c-1.8-3.1-24.6,7.4-41.3,15c-2.6,1.2-5.3,2.5-8.1,3.7
			C427.3,153,424.7,153.5,422,153.5z"/>
	</g>
</g>
<g>
	<path d="M432.3,522.1c-0.3,0-0.6-0.1-0.8-0.2c-36.5-20.2-59.2-58.8-81.2-96.2c-22.7-38.7-44.2-75.2-77.9-82
		c-23.7-4.8-51.9,5.3-86.3,30.9c-0.7,0.6-1.8,0.4-2.3-0.3c-0.6-0.7-0.4-1.8,0.3-2.3c35.2-26.2,64.3-36.5,88.9-31.5
		c35.2,7.1,57,44.3,80.2,83.6c21.7,37,44.2,75.2,79.9,94.9c0.8,0.4,1.1,1.5,0.7,2.3C433.5,521.8,432.9,522.1,432.3,522.1z"/>
</g>
<g>
	<path d="M379.5,391.8C379.5,391.8,379.5,391.8,379.5,391.8c-1,0-1.7-0.8-1.7-1.7c0.4-19.7,2.8-41.7,5.2-63
		c5.6-50.2,11.5-102.1-11.5-120.9c-12.1-9.8-31.1-10.3-58.4-1.4c-0.9,0.3-1.8-0.2-2.1-1.1c-0.3-0.9,0.2-1.8,1.1-2.1
		c28.4-9.3,48.5-8.6,61.5,2c24.4,19.9,18.7,70.4,12.7,123.8c-2.4,21.2-4.8,43.2-5.2,62.7C381.2,391.1,380.4,391.8,379.5,391.8z"/>
</g>
<g>
	<path d="M431.2,406.7c-0.4,0-0.8-0.2-1.2-0.5c-20.6-19.7-16.9-57.5-13-97.5c5.5-56.1,11.7-119.7-48.6-145.8
		c-0.9-0.4-1.2-1.4-0.9-2.2c0.4-0.8,1.4-1.2,2.2-0.9c62.5,27,56.2,91.9,50.6,149.2c-3.8,39.2-7.4,76.2,12,94.8
		c0.7,0.6,0.7,1.7,0.1,2.4C432.1,406.5,431.6,406.7,431.2,406.7z"/>
</g>
<g>
	<path d="M419,307.7c-0.4,0-0.7-0.1-1.1-0.4c-0.7-0.6-0.8-1.6-0.2-2.4c22.6-27.7,51-47.8,76-65.6c29.5-21,52.8-37.5,54-57.6
		c0.7-12.1-7-25.3-23.5-40.2c-0.7-0.6-0.7-1.7-0.1-2.4s1.7-0.7,2.4-0.1c17.3,15.7,25.3,29.7,24.6,42.9
		c-1.3,21.6-25.2,38.6-55.4,60.1c-24.8,17.6-53,37.6-75.3,65C419.9,307.5,419.4,307.7,419,307.7z"/>
</g>
<g>
	<path d="M439.4,399.3c-0.8,0-1.4-0.5-1.6-1.3c-8.2-34.7-3.7-63,13.9-86.3c15.4-20.6,38.8-34.9,61.3-48.8
		c47.1-28.9,91.5-56.3,52.5-135.6c-0.4-0.8-0.1-1.8,0.8-2.2c0.8-0.4,1.8-0.1,2.2,0.8c40.4,82.1-5.3,110.2-53.7,140
		c-45,27.6-91.5,56.2-73.7,131.5c0.2,0.9-0.3,1.8-1.2,2C439.7,399.2,439.6,399.3,439.4,399.3z"/>
</g>
<g>
	<path d="M513.6,576c-0.7,0-1.3-0.4-1.5-1c-5.6-13.5-29.6-26-55-39.3c-8.6-4.5-17.4-9.1-25.6-13.8c-0.8-0.5-1.1-1.5-0.6-2.3
		c0.5-0.8,1.5-1.1,2.3-0.6c8.1,4.7,16.9,9.3,25.5,13.7c25.9,13.6,50.4,26.4,56.6,41c0.4,0.9,0,1.8-0.9,2.2
		C514.1,576,513.8,576,513.6,576z"/>
</g>
<g>
	<path d="M435.5,584.2c-0.7,0-1.4-0.5-1.6-1.3c-5.8-22.7-5.5-54.8-3.2-62.9c0.3-0.9,1.2-1.4,2.1-1.1c0.9,0.3,1.4,1.2,1.1,2.1
		c-2,6.8-2.8,37.7,3.2,61.2c0.2,0.9-0.3,1.8-1.2,2C435.8,584.2,435.6,584.2,435.5,584.2z"/>
</g>
<g>
	<path d="M460.4,636.5c-1.6,0-3.3-0.2-5-0.7c-0.9-0.2-1.4-1.2-1.2-2.1c0.2-0.9,1.2-1.4,2.1-1.2c14.2,3.8,22.9-12.3,32-29.4
		c7.1-13.2,14.4-26.8,24.8-30.5c0.9-0.3,1.8,0.2,2.1,1c0.3,0.9-0.2,1.8-1,2.1c-9.2,3.2-16.2,16.2-23,28.9
		C482.8,620.4,474.2,636.5,460.4,636.5z"/>
</g>
<g>
	<path d="M455.8,635.9c-0.2,0-0.3,0-0.5-0.1c-26.2-8.6-100.6-42.9-129-97.1c-0.4-0.8-0.1-1.8,0.7-2.3c0.8-0.4,1.8-0.1,2.3,0.7
		c27.9,53.2,101.2,86.9,127.1,95.4c0.9,0.3,1.4,1.2,1.1,2.1C457.2,635.4,456.5,635.9,455.8,635.9z"/>
</g>
<g>
	<path d="M435.5,584.2c-0.1,0-0.1,0-0.2,0c-62.2-7.8-115.5-77.7-118.9-155.9c0-0.9,0.7-1.7,1.6-1.7c0.9,0,1.7,0.7,1.7,1.6
		c3.3,76.6,55.4,145.1,116,152.7c0.9,0.1,1.6,1,1.5,1.9C437.1,583.6,436.3,584.2,435.5,584.2z"/>
</g>
<g>
	<path d="M323.2,568.2c-1,0-2.1-0.3-3.4-1c-0.8-0.4-1.1-1.4-0.7-2.3c0.4-0.8,1.4-1.1,2.3-0.7c1.7,0.9,2.4,0.5,2.6,0.4
		c3.2-2.1,2.6-15.3,2.3-21.6c-0.1-2-0.2-3.8-0.2-5.1c0-0.9,0.7-1.7,1.7-1.7c0,0,0,0,0,0c0.9,0,1.7,0.7,1.7,1.7c0,1.3,0.1,3,0.2,4.9
		c0.6,11.8,0.7,21.7-3.8,24.6C325.2,567.9,324.3,568.2,323.2,568.2z"/>
</g>
<g>
	<path d="M320.6,567.5c-0.2,0-0.4,0-0.6-0.1l-1.7-0.7c-9-3.6-21.4-8.5-16.5-21.3c0.3-0.9,1.3-1.3,2.2-1c0.9,0.3,1.3,1.3,1,2.2
		c-3.5,9,3.5,12.6,14.6,17l1.7,0.7c0.9,0.3,1.3,1.3,0.9,2.2C321.9,567.1,321.2,567.5,320.6,567.5z"/>
</g>
<g>
	<path d="M303.4,547.7c-0.2,0-0.3,0-0.5-0.1c-0.9-0.3-1.4-1.2-1.1-2.1c4.4-13.6,2.3-28.2-5.8-41.2c-9-14.4-24.2-24.3-40.6-26.6
		c-0.9-0.1-1.6-1-1.4-1.9c0.1-0.9,1-1.6,1.9-1.4c17.4,2.4,33.5,13,43,28.2c8.7,13.8,10.9,29.5,6.1,44
		C304.7,547.2,304.1,547.7,303.4,547.7z"/>
</g>
<g>
	<path d="M255.6,477.7c-0.9,0-1.7-0.8-1.7-1.7c0-13.6,3.4-27.4,10-27.4c0.9,0,1.7,0.8,1.7,1.7s-0.8,1.7-1.7,1.7
		c-2.7,0-6.6,9.4-6.6,24C257.2,476.9,256.5,477.7,255.6,477.7z"/>
</g>
<g>
	<path d="M312,495c-0.6,0-1.2-0.4-1.5-1c-10-21.4-35-39.9-46.9-42c-0.9-0.2-1.5-1-1.4-1.9c0.2-0.9,1-1.5,1.9-1.4
		c12.5,2.2,38.5,20.8,49.3,43.9c0.4,0.8,0,1.8-0.8,2.2C312.5,494.9,312.2,495,312,495z"/>
</g>
<g>
	<path d="M319.8,487.1c-0.5,0-1-0.2-1.4-0.7c-9.3-13.1-18.3-29.3-24.9-41.2c-2.7-4.8-4.9-8.9-6.5-11.5c-0.5-0.8-0.2-1.8,0.6-2.3
		c0.8-0.5,1.8-0.2,2.3,0.6c1.6,2.7,3.9,6.8,6.6,11.6c6.5,11.8,15.5,28,24.7,40.9c0.5,0.8,0.4,1.8-0.4,2.3
		C320.5,487,320.2,487.1,319.8,487.1z"/>
</g>
<g>
	<path d="M269.4,453.7c-0.2,0-0.4,0-0.6-0.1c-0.9-0.3-1.3-1.3-1-2.2c3.4-8.9,12.3-17.8,20.2-20.2c0.9-0.3,1.8,0.2,2.1,1.1
		c0.3,0.9-0.2,1.8-1.1,2.1c-6.9,2.1-15,10.3-18,18.2C270.7,453.3,270.1,453.7,269.4,453.7z"/>
</g>
<g>
	<path d="M292.1,440.7c-0.3,0-0.7-0.1-0.9-0.3c-0.8-0.5-1-1.6-0.5-2.3c4-5.9,18.5-10.4,27.1-11.6c0.9-0.1,1.8,0.5,1.9,1.4
		c0.1,0.9-0.5,1.8-1.4,1.9c-8.3,1.2-21.7,5.6-24.8,10.1C293.2,440.5,292.6,440.7,292.1,440.7z"/>
</g>
<g>
	<path d="M535,669.5c-0.4,0-0.8-0.2-1.2-0.5c-16-15.4-24.6-40.4-24.3-70.2c0.3-25.9,7.4-51.5,18.6-66.6c0.6-0.7,1.6-0.9,2.3-0.3
		c0.7,0.6,0.9,1.6,0.3,2.3c-21.7,29.3-28,100.2,5.3,132.4c0.7,0.6,0.7,1.7,0,2.4C535.9,669.3,535.5,669.5,535,669.5z"/>
</g>
<g>
	<path d="M460,698.4c-13.9,0-26.4-2.2-37.6-6.5c-23.1-9-40.3-27.1-51.3-53.9c-0.3-0.9,0.1-1.8,0.9-2.2c0.9-0.4,1.8,0.1,2.2,0.9
		c10.6,25.9,27.2,43.5,49.4,52.1c27.1,10.5,62.7,7.8,105.9-8c0.9-0.3,1.8,0.1,2.2,1c0.3,0.9-0.1,1.8-1,2.2
		C504.4,693.5,480.7,698.4,460,698.4z"/>
</g>
<g>
	<path d="M530.2,684c-0.7,0-1.4-0.5-1.6-1.2c-1.9-6.3,1-14.3,5.8-16.5c0.8-0.4,1.8,0,2.2,0.8c0.4,0.8,0,1.8-0.8,2.2
		c-3,1.4-5.5,7.4-4,12.5c0.3,0.9-0.2,1.8-1.1,2.1C530.5,684,530.3,684,530.2,684z"/>
</g>
<g>
	<path d="M496.3,729c-30,0-57.4-4.8-70.6-10.7c-0.8-0.4-1.2-1.4-0.8-2.2c0.4-0.8,1.4-1.2,2.2-0.8c28,12.5,121.3,20.2,163.9-14.4
		c0.7-0.6,1.8-0.5,2.4,0.2c0.6,0.7,0.5,1.8-0.2,2.4C569.7,722.4,531.3,729,496.3,729z"/>
</g>
<g>
	<path d="M427.1,753.6c-0.4,0-0.8-0.1-1.1-0.4c-8.9-8-9.2-17.6-8.6-22.7c0.8-6.9,4.1-13,8.3-15.3c0.8-0.4,1.8-0.1,2.3,0.7
		c0.4,0.8,0.1,1.8-0.7,2.3c-2.7,1.5-5.8,6.3-6.5,12.7c-0.5,4.4-0.2,12.8,7.5,19.8c0.7,0.6,0.7,1.7,0.1,2.4
		C428.1,753.4,427.6,753.6,427.1,753.6z"/>
</g>
<g>
	<path d="M396.7,751.8c-0.1,0-0.2,0-0.3,0c-0.9-0.2-1.5-1.1-1.3-2c2.7-14-0.7-26.3-9.5-34.7c-11.4-10.9-30.6-14.2-52.8-9
		c-0.9,0.2-1.8-0.4-2-1.3s0.3-1.8,1.3-2c23.3-5.4,43.6-1.9,55.8,9.9c9.7,9.3,13.4,22.7,10.5,37.8
		C398.2,751.2,397.5,751.8,396.7,751.8z"/>
</g>
<g>
	<path d="M380.2,692.7c-0.3,0-0.7-0.1-1-0.3c-12.5-8.6-32.9-14-47.5-12.4c-0.9,0.1-1.7-0.6-1.8-1.5c-0.1-0.9,0.6-1.7,1.5-1.8
		c15.3-1.6,36.7,3.9,49.8,13c0.8,0.5,1,1.6,0.4,2.3C381.3,692.4,380.7,692.7,380.2,692.7z"/>
</g>
<g>
	<path d="M391.8,685.4c-0.3,0-0.6-0.1-0.8-0.2c-12.2-6.9-33-21.8-45.4-33.8c-0.7-0.6-0.7-1.7,0-2.4c0.6-0.7,1.7-0.7,2.4,0
		c12.2,11.8,32.8,26.5,44.8,33.3c0.8,0.5,1.1,1.5,0.6,2.3C392.9,685.1,392.4,685.4,391.8,685.4z"/>
</g>
<g>
	<path d="M332.4,706.1c-0.6,0-1.2-0.3-1.5-0.9c-6-11.6-5.9-21.6-3.2-26c1-1.6,2.4-2.5,3.9-2.5c0.9,0,1.7,0.8,1.7,1.7
		s-0.8,1.7-1.7,1.7c-0.3,0-0.7,0.3-1,0.9c-1.8,2.9-2.4,11.6,3.3,22.7c0.4,0.8,0.1,1.8-0.7,2.3C332.9,706,332.6,706.1,332.4,706.1z"
		/>
</g>
<g>
	<path d="M339.9,679.7c-0.7,0-1.3-0.4-1.6-1.1c-3-8.6-2.4-19.2,1.2-25.1c1.7-2.8,4.2-4.5,7-4.9c0.9-0.1,1.8,0.5,1.9,1.4
		c0.1,0.9-0.5,1.8-1.4,1.9c-1.8,0.3-3.3,1.4-4.6,3.4c-3.1,5.1-3.5,14.6-0.9,22.3c0.3,0.9-0.2,1.8-1,2.1
		C340.2,679.7,340,679.7,339.9,679.7z"/>
</g>
<g>
	<path d="M351.7,656.5c-0.4,0-0.8-0.1-1.1-0.4c-0.7-0.6-0.8-1.7-0.2-2.4c5.9-6.8,16.6-18.3,21.4-18.4c1.1-0.1,1.8,0.4,2.2,0.8
		c0.7,0.7,0.7,1.7,0,2.4c-0.6,0.6-1.5,0.7-2.2,0.2c-1.7,0.2-8,4.9-18.8,17.3C352.6,656.3,352.2,656.5,351.7,656.5z"/>
</g>
<g>
	<path d="M410.3,757.6c-1.4,0-2.7-0.1-3.9-0.2c-10.4-0.9-11.6-5.1-11.4-7.5c0.1-0.9,0.9-1.6,1.8-1.5c0.9,0.1,1.6,0.9,1.5,1.8
		c0,0.4-0.1,1.6,2.6,2.7c7.2,2.8,22.7,0.6,24.6-1.4c0.2-0.8,0.9-1.4,1.8-1.3c0.9,0.1,1.6,0.9,1.5,1.8
		C428.5,756,418,757.6,410.3,757.6z M425.5,751.8C425.5,751.8,425.5,751.8,425.5,751.8S425.5,751.8,425.5,751.8z"/>
</g>
<g>
	<path d="M592.1,703.7c-0.2,0-0.4,0-0.6-0.1c-0.9-0.3-1.3-1.3-1-2.1c1.6-4.5,0-9.4-1.9-15.1c-3.2-10-7.2-22.5,5.7-37.2
		c0.6-0.7,1.7-0.8,2.4-0.2c0.7,0.6,0.8,1.7,0.2,2.4c-11.6,13.2-8.3,23.8-5,34c1.9,6,3.8,11.7,1.8,17.3
		C593.4,703.3,592.8,703.7,592.1,703.7z"/>
</g>
<g>
	<path d="M595.6,651.9c-0.4,0-0.8-0.1-1.1-0.4c-0.7-0.6-0.8-1.7-0.2-2.4c9.7-11.2,20.3-16.9,30.6-22.3c14.9-7.9,27.8-14.8,34.5-36.9
		c0.3-0.9,1.2-1.4,2.1-1.1c0.9,0.3,1.4,1.2,1.1,2.1c-7,23.5-21.2,31-36.1,38.9c-10,5.3-20.4,10.8-29.6,21.6
		C596.5,651.7,596,651.9,595.6,651.9z"/>
</g>
<g>
	<path d="M601.2,453c-0.3,0-0.6-0.1-0.9-0.2c-29.2-17.4-63.4-21.6-93.6-25.4c-34.7-4.3-62-7.7-68.9-29.3c-0.3-0.9,0.2-1.8,1.1-2.1
		c0.9-0.3,1.8,0.2,2.1,1.1c6.2,19.6,32.6,22.8,66.1,27c30.5,3.8,65.1,8.1,94.9,25.8c0.8,0.5,1.1,1.5,0.6,2.3
		C602.3,452.7,601.7,453,601.2,453z"/>
</g>
<g>
	<path d="M505.1,427.2c-0.4,0-0.9-0.2-1.2-0.5c-0.6-0.7-0.6-1.7,0-2.4c22.1-21.2,31.1-45.4,24.7-66.3c-4.9-16-18.4-27.7-35.4-30.7
		c-0.9-0.2-1.5-1-1.4-1.9c0.2-0.9,1-1.5,1.9-1.4c18.2,3.2,32.8,15.9,38.1,33.1c6.8,22.2-2.6,47.6-25.6,69.7
		C505.9,427,505.5,427.2,505.1,427.2z"/>
</g>
<g>
	<path d="M493.5,327.3c0,0-0.1,0-0.1,0c-5.1-0.4-7.9-2.1-8.3-5c-0.9-7,15.2-16.6,30.8-22c0.9-0.3,1.8,0.2,2.1,1
		c0.3,0.9-0.2,1.8-1,2.1c-18.3,6.4-29,15.1-28.6,18.4c0.1,1,2.1,1.8,5.2,2.1c0.9,0.1,1.6,0.9,1.5,1.8
		C495.1,326.6,494.4,327.3,493.5,327.3z"/>
</g>
<g>
	<path d="M741.2,800.3c-0.6,0-1.2-0.3-1.5-0.9c-0.4-0.8-0.1-1.8,0.7-2.3c137-72,166.4-239.7,115.7-360.2
		C812.7,333.5,700.8,244.1,517,303.4c-0.9,0.3-1.8-0.2-2.1-1.1c-0.3-0.9,0.2-1.8,1.1-2.1c185.9-60,299.3,30.6,343.3,135.4
		c26.4,62.9,30.9,136.6,12.2,202.4c-20.2,71.3-66.2,128.8-129.5,162.1C741.7,800.2,741.5,800.3,741.2,800.3z"/>
</g>
<g>
	<path d="M741.2,800.3c-0.4,0-0.8-0.2-1.2-0.5c-0.7-0.6-0.7-1.7,0-2.4c66.5-68.3,106.2-136.8,98.6-170.5c-1.9-8.3-6.7-14-14.4-16.9
		c-0.9-0.3-1.3-1.3-1-2.2c0.3-0.9,1.3-1.3,2.2-1c8.8,3.3,14.4,9.8,16.5,19.3c7.8,34.7-32.2,104.5-99.5,173.5
		C742.1,800.1,741.7,800.3,741.2,800.3z"/>
</g>
<g>
	<path d="M824.8,610.2c-0.2,0-0.3,0-0.5-0.1c-0.9-0.3-1.4-1.2-1.1-2.1c15.7-54.3,16.7-94.1,2.6-106.5c-6-5.2-14.7-5.4-25.9-0.6
		c-0.9,0.4-1.8,0-2.2-0.9c-0.4-0.9,0-1.8,0.9-2.2c12.5-5.4,22.4-5.1,29.5,1.1c15.3,13.5,14.8,53.6-1.6,110
		C826.2,609.7,825.5,610.2,824.8,610.2z"/>
</g>
<g>
	<path d="M799.2,501.1C799.2,501.1,799.2,501.1,799.2,501.1c-1,0-1.7-0.8-1.7-1.7c1.9-58.4-24.1-99.4-42.9-102
		c-7.8-1.1-13.8,4.9-16.7,17c-0.2,0.9-1.1,1.4-2,1.2c-0.9-0.2-1.4-1.1-1.2-2c3.4-13.7,10.8-20.8,20.5-19.5
		c10.9,1.5,22.7,13.4,31.6,31.7c10,20.7,15.1,46.8,14.2,73.7C800.9,500.3,800.1,501.1,799.2,501.1z"/>
</g>
<g>
	<path d="M736.3,415.6c-0.5,0-1-0.2-1.3-0.6c-35.4-42.8-64.9-59.7-75.6-54.4c-6.1,3-7.4,13.2-3.6,29.4c0.2,0.9-0.4,1.8-1.3,2
		c-0.9,0.2-1.8-0.4-2-1.3c-4.2-18.2-2.4-29.4,5.4-33.2c14.4-7.1,46.4,15.1,79.7,55.2c0.6,0.7,0.5,1.8-0.2,2.4
		C737.1,415.5,736.7,415.6,736.3,415.6z"/>
</g>
<g>
	<path d="M599.4,413.1c-0.7,0-1.3-0.4-1.6-1.1c-6.6-18.2-5.6-32.3,2.9-38.7c10.4-7.8,29.7-2.2,54.4,15.8c0.7,0.5,0.9,1.6,0.4,2.3
		c-0.5,0.7-1.6,0.9-2.3,0.4c-23-16.8-41.4-22.6-50.4-15.8c-7.1,5.3-7.7,18.4-1.7,34.8c0.3,0.9-0.1,1.8-1,2.2
		C599.8,413.1,599.6,413.1,599.4,413.1z"/>
</g>
<g>
	<path d="M552.1,434.6c-0.2,0-0.4,0-0.6-0.1c-0.9-0.4-1.3-1.3-0.9-2.2c6.3-15,28.3-25.1,49.1-22.5c0.9,0.1,1.6,1,1.5,1.9
		c-0.1,0.9-0.9,1.6-1.9,1.5c-19.4-2.4-39.8,6.7-45.6,20.4C553.4,434.2,552.7,434.6,552.1,434.6z"/>
</g>
<g>
	<path d="M429.7,841c-23.3,0-46.3-2.6-68.6-7.9c-48.4-11.5-91-34.8-126.5-69.2c-39.6-38.4-69.1-89.6-87.7-152.3
		c-0.3-0.9,0.2-1.8,1.1-2.1c0.9-0.3,1.8,0.2,2.1,1.1c34.7,117.2,109.9,195,211.7,219.1c100.3,23.8,217-9.3,283.8-80.4
		c46.2-49.2,61.7-109.1,43.6-168.6c-0.3-0.9,0.2-1.8,1.1-2.1c0.9-0.3,1.8,0.2,2.1,1.1c18.5,60.7,2.7,121.8-44.3,171.9
		c-32.1,34.2-77.6,61.2-128,76.1C490.3,836.6,459.8,841,429.7,841z"/>
</g>
<g>
	<path d="M579.2,453.8c-0.6,0-1.2,0-1.8,0c-0.9,0-1.7-0.8-1.7-1.7c0-0.9,0.8-1.7,1.7-1.7h0c17.1,0,57.2,0.1,75.9-18.7
		c6.9-6.9,10.3-15.9,10.2-26.7c0-0.9,0.7-1.7,1.7-1.7c0,0,0,0,0,0c0.9,0,1.7,0.7,1.7,1.7c0.1,11.7-3.7,21.5-11.2,29.1
		C636.7,453.2,597.5,453.8,579.2,453.8z"/>
</g>
<g>
	<path d="M665.2,406.7c-0.9,0-1.6-0.7-1.7-1.6c-0.4-6.4,1.1-10.5,4.6-12c5.6-2.4,14,3.2,17.3,6.8c0.6,0.7,0.6,1.7-0.1,2.4
		c-0.7,0.6-1.7,0.6-2.4-0.1c-2.7-2.9-9.9-7.6-13.6-6c-2.5,1.1-2.8,5.3-2.6,8.6c0.1,0.9-0.6,1.7-1.6,1.8
		C665.3,406.7,665.2,406.7,665.2,406.7z"/>
</g>
<g>
	<path d="M502.7,885.5c-23.6,0-47.7-2.3-72.2-7c-0.9-0.2-1.5-1.1-1.3-2c0.2-0.9,1.1-1.5,2-1.3c175.7,33.6,300.9-57.1,347.2-161.8
		c38.5-87.1,33.7-214.6-95.1-311c-0.7-0.6-0.9-1.6-0.3-2.3c0.6-0.7,1.6-0.9,2.3-0.3c56.2,42.1,94.1,95.1,109.6,153.3
		c14.3,53.6,9.6,109.5-13.4,161.7c-25.6,57.9-72.1,106.3-131.2,136.4C605.4,873.9,555.4,885.5,502.7,885.5z"/>
</g>
<g>
	<path d="M430.8,878.5c-0.9,0-1.6-0.7-1.7-1.6c0-0.9,0.7-1.7,1.6-1.7c37-1.4,159.6-8.9,182.7-45.8c4.4-7,4.7-14.5,1-22.8
		c-0.4-0.8,0-1.8,0.9-2.2c0.9-0.4,1.8,0,2.2,0.9c4.1,9.3,3.7,18.1-1.3,26C592.3,869.5,468.3,877.1,430.8,878.5
		C430.8,878.5,430.8,878.5,430.8,878.5z"/>
</g>
<g>
	<path d="M616,807.5c-0.8,0-1.5-0.5-1.6-1.3c-0.2-0.9,0.4-1.8,1.3-2c69.4-14.9,87.2-31.9,89.9-43.5c1.8-8-2.8-16.4-13.8-25.1
		c-0.7-0.6-0.9-1.6-0.3-2.4c0.6-0.7,1.6-0.9,2.4-0.3c12.1,9.5,17.2,19.1,15,28.5c-4.2,18.3-35.3,33.8-92.4,46.1
		C616.2,807.5,616.1,807.5,616,807.5z"/>
</g>
<g>
	<path d="M692.7,736c-0.7,0-1.4-0.5-1.6-1.2c-0.3-0.9,0.2-1.8,1.1-2.1c28-8.2,47.8-43,51.3-65c1.4-8.5,0.2-14.7-3.1-17
		c-3-2.1-8-1.2-14.6,2.6c-0.8,0.5-1.8,0.2-2.3-0.6s-0.2-1.8,0.6-2.3c7.8-4.5,13.9-5.4,18.1-2.5c4.5,3.1,6.1,10.3,4.5,20.3
		c-3.6,22.8-24.3,59-53.7,67.7C693,736,692.9,736,692.7,736z"/>
</g>
<g>
	<path d="M725,653.5c-0.1,0-0.3,0-0.4-0.1c-0.9-0.2-1.4-1.2-1.2-2.1c12.1-43.8,12.1-73,0.3-80.3c-8.1-4.9-21.7,0.8-38.3,16.2
		c-0.7,0.6-1.7,0.6-2.4-0.1c-0.6-0.7-0.6-1.7,0.1-2.4c18.1-16.7,32.7-22.5,42.3-16.6c13.5,8.2,13.9,38,1.2,84
		C726.4,653,725.7,653.5,725,653.5z"/>
</g>
<g>
	<path d="M684.2,587.8c0,0-0.1,0-0.1,0c-0.9-0.1-1.6-0.9-1.5-1.8c2.6-31.4-3.5-56.8-14.9-61.8c-6.6-2.8-14.9,1.1-24.2,11.4
		c-0.6,0.7-1.7,0.7-2.4,0.1c-0.7-0.6-0.7-1.7-0.1-2.4c13.1-14.5,22.5-14.6,28.1-12.2c13.1,5.7,19.8,31.3,16.9,65.2
		C685.8,587.1,685.1,587.8,684.2,587.8z"/>
</g>
<g>
	<path d="M642.1,536.1c-0.8,0-1.5-0.6-1.7-1.4c-4.5-26.2-33.8-35.9-53.2-34.4c-0.9,0.1-1.7-0.6-1.8-1.5c-0.1-0.9,0.6-1.7,1.5-1.8
		c20.6-1.6,51.8,8.9,56.7,37.2c0.2,0.9-0.5,1.8-1.4,1.9C642.3,536.1,642.2,536.1,642.1,536.1z"/>
</g>
<g>
	<path d="M437.2,807.7c-48,0-99.3-13.4-145.2-38.3c-59.4-32.3-101.1-79.2-117.3-131.9c-0.3-0.9,0.2-1.8,1.1-2.1
		c0.9-0.3,1.8,0.2,2.1,1.1c34.7,112.6,182.2,180.4,290.9,165.8c88.6-11.9,141.2-73,144.1-167.5c0-0.9,0.8-1.6,1.7-1.6
		c0.9,0,1.7,0.8,1.6,1.7c-3,96.3-56.6,158.6-147,170.7C458.8,807,448.1,807.7,437.2,807.7z"/>
</g>
<g>
	<path d="M150.8,578.6c0,0-0.1,0-0.1,0c-0.9-0.1-1.6-0.9-1.6-1.8c2.3-34.7,37.8-57.8,69.3-59.2c33.7-1.6,57.3,19.6,63.3,56.5
		c0.1,0.9-0.5,1.8-1.4,1.9c-0.9,0.1-1.8-0.5-1.9-1.4c-5.6-35.1-28-55.2-59.8-53.7c-30.2,1.4-64,24.3-66.1,56.1
		C152.5,577.9,151.7,578.6,150.8,578.6z"/>
</g>
<g>
	<path d="M208,646.5c-13,0-25.1-3.3-36-10c-33.3-20.4-52.5-70.6-51.3-134.3c0-0.9,0.8-1.6,1.7-1.6c0.9,0,1.7,0.8,1.6,1.7
		c-1.2,62.5,17.4,111.6,49.7,131.4c22.7,13.9,51.5,12.4,83-4.4c0.8-0.4,1.8-0.1,2.3,0.7c0.4,0.8,0.1,1.8-0.7,2.3
		C240.6,641.7,223.7,646.5,208,646.5z"/>
</g>
<g>
	<path d="M208.9,627.7c-9.6,0-18.6-2.5-26.9-7.6c-34.1-20.6-47.7-76.4-43.6-120.9c0.1-0.9,0.9-1.6,1.8-1.5c0.9,0.1,1.6,0.9,1.5,1.8
		c-4,43.4,9.1,97.8,42,117.7c18.6,11.3,41.2,9,65.3-6.6c0.8-0.5,1.8-0.3,2.3,0.5c0.5,0.8,0.3,1.8-0.5,2.3
		C236.2,622.9,222.1,627.7,208.9,627.7z"/>
</g>
<g>
	<path d="M257.7,632.4c-0.6,0-1.2-0.3-1.5-0.9c-0.4-0.8-0.1-1.8,0.7-2.3c14.3-7.7,26.2-37.8,21.6-54.5c-0.2-0.9,0.3-1.8,1.2-2.1
		c0.9-0.2,1.8,0.3,2.1,1.2c5,18.2-7.6,49.8-23.3,58.3C258.2,632.3,257.9,632.4,257.7,632.4z"/>
</g>
<g>
	<path d="M249.9,613.7c-0.5,0-1-0.2-1.3-0.6c-0.6-0.7-0.5-1.8,0.3-2.4c14.1-11.3,17.5-28,9.3-44.7c-8.3-16.7-28.3-31.2-47.4-26.5
		c-0.9,0.2-1.8-0.3-2-1.2c-0.2-0.9,0.3-1.8,1.2-2c20.7-5.2,42.3,10.3,51.2,28.2c9,18.2,5.2,36.4-10.2,48.8
		C250.7,613.6,250.3,613.7,249.9,613.7z"/>
</g>
<g>
	<path d="M163.5,602.1c-0.8,0-1.5-0.6-1.7-1.4c-4.9-33.1,13.6-57.7,48.1-64.3c0.9-0.2,1.8,0.4,2,1.3c0.2,0.9-0.4,1.8-1.3,2
		c-32.6,6.2-50,29.4-45.5,60.5c0.1,0.9-0.5,1.8-1.4,1.9C163.6,602.1,163.6,602.1,163.5,602.1z"/>
</g>
<g>
	<path d="M122.4,503.8c-0.4,0-0.8-0.1-1.1-0.4c-0.7-0.6-0.7-1.6-0.1-2.3c2.3-2.5,12.5-3.6,18.9-3.4c0.9,0,1.7,0.8,1.6,1.7
		c0,0.9-0.8,1.7-1.7,1.6c-8-0.3-15.4,1.3-16.3,2.3C123.3,503.7,122.9,503.8,122.4,503.8z"/>
</g>
<g>
	<path d="M758.8,241.4c-0.4,0-0.8-0.1-1.1-0.4c-40.1-34.4-88.8-44.1-105.6-29.8c-0.7,0.6-1.8,0.5-2.4-0.2c-0.6-0.7-0.5-1.8,0.2-2.4
		c20.1-17.1,71.4-3.2,109.9,29.8c0.7,0.6,0.8,1.7,0.2,2.4C759.7,241.2,759.2,241.4,758.8,241.4z"/>
</g>
<g>
	<path d="M763.2,227.3c-0.4,0-0.8-0.1-1.1-0.4c-38.4-34.9-79.5-48.6-112.8-37.6c-0.9,0.3-1.8-0.2-2.1-1.1c-0.3-0.9,0.2-1.8,1.1-2.1
		c34.5-11.4,76.8,2.6,116.1,38.3c0.7,0.6,0.7,1.7,0.1,2.4C764.1,227.1,763.6,227.3,763.2,227.3z"/>
</g>
<g>
	<path d="M665.6,255.6c-10,0-20.8-8.9-24.5-20.3c-3.4-10.4-0.1-20.1,9-26.7c0.8-0.5,1.8-0.4,2.3,0.4c0.5,0.7,0.4,1.8-0.4,2.3
		c-10.7,7.8-9.5,17.8-7.8,23c3.3,10,12.8,18,21.4,18c0,0,0.1,0,0.1,0c0.9,0,1.7,0.7,1.7,1.7c0,0.9-0.7,1.7-1.7,1.7
		C665.6,255.6,665.6,255.6,665.6,255.6z"/>
</g>
<g>
	<path d="M665.8,255.6c-0.1,0-0.1,0-0.1,0c-0.9,0-1.7-0.8-1.7-1.7c0-0.9,0.8-1.7,1.7-1.7c0,0,0.1,0,0.1,0c8,0,14-2.3,17.8-6.9
		c8.9-10.7,4.9-31.6,3.2-40.6c-0.2-0.9,0.4-1.8,1.3-2c0.9-0.2,1.8,0.4,2,1.3c1.8,9.4,5.9,31.5-4,43.4
		C681.7,252.9,674.9,255.6,665.8,255.6z"/>
</g>
<g>
	<path d="M652,270.5c-0.2,0-0.4,0-0.5-0.1c-16.3-5.6-30.3-27.4-30.5-47.5c-0.2-17.3,9.5-30.4,27.2-36.9c0.9-0.3,1.8,0.1,2.2,1
		c0.3,0.9-0.1,1.8-1,2.2c-16.3,6-25.1,18-25,33.7c0.2,18.5,13.4,39.2,28.2,44.3c0.9,0.3,1.3,1.3,1,2.1
		C653.3,270.1,652.7,270.5,652,270.5z"/>
</g>
<g>
	<path d="M670.6,273.5c-6,0-12.4-1-19.1-3c-0.9-0.3-1.4-1.2-1.1-2.1c0.3-0.9,1.2-1.4,2.1-1.1c17.3,5.2,32.2,3.3,42.9-5.5
		c12.3-10.1,18.1-28.3,15.9-50c-0.1-0.9,0.6-1.7,1.5-1.8c0.9-0.1,1.7,0.6,1.8,1.5c2.3,22.8-4,42.1-17.1,52.9
		C690.1,270.4,681,273.5,670.6,273.5z"/>
</g>
<g>
	<path d="M705.9,191.5c-0.5,0-1-0.2-1.4-0.7c-17.1-23.2-57.8-46.9-102.7-47.1c-0.9,0-1.7-0.8-1.7-1.7c0-0.9,0.8-1.7,1.7-1.7
		c0,0,0,0,0,0c40.5,0.2,84.8,20.6,105.3,48.5c0.5,0.7,0.4,1.8-0.4,2.3C706.6,191.4,706.3,191.5,705.9,191.5z"/>
</g>
<g>
	<path d="M676.2,185.6c-0.3,0-0.6-0.1-0.9-0.2c-16.9-10-44.1-17.2-59.7-18.3c-0.9-0.1-1.6-0.9-1.6-1.8c0.1-0.9,0.9-1.6,1.8-1.6
		c15.9,1,43.8,8.5,61.1,18.7c0.8,0.5,1.1,1.5,0.6,2.3C677.3,185.3,676.7,185.6,676.2,185.6z"/>
</g>
<g>
	<path d="M615.8,167.1c-0.3,0-0.5-0.1-0.8-0.2c-15.4-8-15.5-22-14.7-25.3c0.2-0.9,1.1-1.4,2-1.2c0.9,0.2,1.4,1.1,1.2,2
		c-0.6,2.6-0.4,14.6,13,21.5c0.8,0.4,1.1,1.4,0.7,2.3C617,166.7,616.4,167.1,615.8,167.1z"/>
</g>
<g>
	<path d="M866.7,406.7c-0.7,0-1.4-0.5-1.6-1.2c-21.5-79.5-77.5-134.8-107.5-164.5c-0.7-0.7-0.7-1.7,0-2.4c0.7-0.7,1.7-0.7,2.4,0
		c30.3,29.9,86.7,85.7,108.4,166c0.2,0.9-0.3,1.8-1.2,2.1C867,406.6,866.9,406.7,866.7,406.7z"/>
</g>
<g>
	<path d="M873.4,402.8c-0.7,0-1.4-0.4-1.6-1.1c-0.7-2-1.4-4.3-2.3-6.9C859.3,363,838,296.9,762,226.9c-0.7-0.6-0.7-1.7-0.1-2.4
		c0.6-0.7,1.7-0.7,2.4-0.1c76.6,70.6,98.9,139.8,108.5,169.3c0.8,2.5,1.6,4.8,2.2,6.8c0.3,0.9-0.2,1.8-1.1,2.1
		C873.8,402.7,873.6,402.8,873.4,402.8z"/>
</g>
<g>
	<path d="M855.6,409c-0.1,0-0.2,0-0.4,0c-0.9-0.2-1.5-1.1-1.3-2c0.8-3.4,2.8-4.8,4.3-5.3c3.5-1.2,7.9,0.7,9.5,2
		c0.7,0.6,0.8,1.6,0.2,2.4c-0.6,0.7-1.6,0.8-2.4,0.2c-0.9-0.7-4.1-2.2-6.3-1.4c-1.1,0.4-1.8,1.3-2.2,2.9
		C857,408.5,856.3,409,855.6,409z"/>
</g>
<g>
	<path d="M873.4,402.8c-0.9,0-1.7-0.8-1.7-1.7c0-6.5,7-11.7,15.5-11.7c0.9,0,1.7,0.8,1.7,1.7s-0.8,1.7-1.7,1.7
		c-6.7,0-12.2,3.8-12.2,8.4C875.1,402,874.4,402.8,873.4,402.8z"/>
</g>
<g>
	<path d="M901.7,542.4c-0.9,0-1.7-0.8-1.7-1.7c0-92.4-7.6-146.2-12.8-148c-0.9,0-1.6-0.7-1.6-1.7s0.8-1.7,1.7-1.7
		c2.2,0,7.5,0,11.9,45.3c2.7,28.3,4.2,66,4.2,106.1C903.4,541.7,902.6,542.4,901.7,542.4z"/>
</g>
<g>
	<path d="M901.7,542.4c-0.8,0-1.6-0.6-1.7-1.5c-7.8-59.6-22.4-81.9-33.2-98.2c-7.2-11-13-19.7-13-35.3c0-0.9,0.8-1.7,1.7-1.7
		c0.9,0,1.7,0.8,1.7,1.7c0,14.6,5.2,22.5,12.4,33.5c10.9,16.6,25.8,39.3,33.7,99.7c0.1,0.9-0.5,1.8-1.4,1.9
		C901.8,542.4,901.7,542.4,901.7,542.4z"/>
</g>
</svg>
