<?xml version="1.0" encoding="utf-8"?>
<!-- Generator: Adobe Illustrator 22.1.0, SVG Export Plug-In . SVG Version: 6.00 Build 0)  -->
<svg version="1.1" xmlns="http://www.w3.org/2000/svg" xmlns:xlink="http://www.w3.org/1999/xlink" x="0px" y="0px"
	 viewBox="0 0 1000 1000" enable-background="new 0 0 1000 1000" xml:space="preserve">
<g id="Layer_1">
	
		<image overflow="visible" width="400" height="480" xlink:href="F6ABE629.jpg"  transform="matrix(2.3103 0 0 2.3103 -1326.0674 6.0192)">
	</image>
</g>
<g id="Layer_3">
	<circle fill="#D4C5AC" cx="500" cy="500" r="500"/>
</g>
<g id="Layer_2">
	<g>
		<path d="M491.2,648.4c-22.5,0-46.3-1.6-65-5.8c-1.1-0.2-1.8-1.3-1.5-2.4c0.2-1.1,1.3-1.8,2.4-1.5c42.9,9.6,115.2,5.3,132.7-0.8
			c1-0.4,2.2,0.2,2.6,1.2c0.4,1-0.2,2.2-1.2,2.6C550.5,645.4,521.9,648.4,491.2,648.4z"/>
	</g>
	<g>
		<path d="M518.3,433.7c-0.1,0-0.1,0-0.2,0c-1.1-0.1-1.9-1.1-1.8-2.2c1.1-10.9,17.2-16.5,48-16.5c0,0,0,0,0,0
			c84.6,0,103.7-10.7,118.1-43c8.3-22,6.5-44.9-5-62.6c-9.2-14.3-23.9-24-41.1-27.4c24.9,16.7,32,36.9,25.6,49.3
			c-4.8,9.2-18.5,16-42.3,7.2c14.7,18.1,17.5,33.2,14.8,41.8c-1.7,5.4-5.5,9-10.7,10.1c-0.2,0-0.4,0.1-0.5,0
			c-12.4-0.7-20.3-9.9-27.8-18.8c-5.7-6.7-11.2-13.1-18.2-15.1c8.5,12.2,11.3,22.7,8.5,31.3c-2.9,8.7-11.3,15.1-25,19
			c-0.7,0.2-1.4,0-1.9-0.5s-0.7-1.2-0.6-1.9c2.8-13.1,0.2-26.8-6.9-36.6c-3.9-5.4-8.7-9.1-14.1-10.9c6.1,10.5,9.5,25.8,7.5,36.4
			c-1,5.8-3.6,10-7.4,12.4c-0.5,0.3-1.2,0.4-1.8,0.2c-0.6-0.2-1-0.7-1.2-1.4c-2.4-9.4-10.3-19.8-19.1-25.8c11.4,20,1.9,30.2-11.9,45
			c-1.8,2-3.8,4-5.7,6.2c-0.7,0.8-2,0.9-2.8,0.1c-0.8-0.7-0.9-2-0.1-2.8c2-2.2,3.9-4.3,5.8-6.3c14.8-15.9,23-24.7,7.3-46.6
			c-0.5-0.7-0.5-1.7,0-2.4c0.5-0.7,1.5-1,2.3-0.6c11.3,4.5,22.9,17.1,27.2,29.2c1.7-1.9,2.9-4.5,3.5-8c2.2-12.1-3.2-29.2-9.6-37.5
			c-0.5-0.6-0.6-1.5-0.2-2.2c0.4-0.7,1.2-1.1,2-1c8.3,1,15.9,5.8,21.5,13.6c7.1,9.9,10.1,23.3,8.1,36.5c10.5-3.5,17-8.7,19.2-15.4
			c2.7-8.1-0.9-18.7-10.6-31.5c-0.5-0.6-0.5-1.4-0.2-2.1s1-1.1,1.8-1.1c11,0,18.4,8.7,25.6,17.1c7,8.2,14.2,16.6,24.8,17.4
			c3.7-0.9,6.2-3.4,7.5-7.3c2.7-8.5-1.1-24.7-19.6-44.4c-0.7-0.7-0.7-1.8-0.2-2.5c0.6-0.8,1.6-1,2.5-0.6
			c24.5,11.5,40.3,7.3,45.1-2.1c6-11.7-3.2-32.8-32.1-48.9c-0.8-0.5-1.2-1.4-0.9-2.3c0.3-0.9,1.1-1.5,2-1.4
			c22.3,1.4,41.8,12.5,53.3,30.4c12.2,18.9,14.1,43,5.3,66.3c0,0,0,0.1,0,0.1c-16.3,36.5-40.2,45.4-121.7,45.4c0,0,0,0,0,0
			c-27.2,0-43.2,4.7-44,12.9C520.2,432.9,519.4,433.7,518.3,433.7z"/>
	</g>
	<g>
		<path d="M474.2,433.7c-1,0-1.9-0.8-2-1.8c-0.8-8.2-16.8-12.9-44-12.9c0,0,0,0,0,0c-81.6,0-105.5-8.9-121.7-45.4c0,0,0-0.1,0-0.1
			c-8.8-23.2-6.8-47.4,5.3-66.3c11.5-17.9,31-28.9,53.3-30.4c0.9-0.1,1.8,0.5,2,1.4c0.3,0.9-0.1,1.9-0.9,2.3
			c-28.9,16.1-38.1,37.3-32.1,48.9c4.8,9.3,20.6,13.6,45.1,2.1c0.9-0.4,1.9-0.1,2.5,0.6s0.5,1.8-0.2,2.5
			c-18.5,19.8-22.3,35.9-19.6,44.4c1.2,3.9,3.8,6.4,7.5,7.3c10.6-0.8,17.8-9.2,24.8-17.4c7.2-8.4,14.6-17.1,25.6-17.1
			c0.8,0,1.5,0.4,1.8,1.1s0.3,1.5-0.2,2.1c-9.7,12.7-13.3,23.3-10.6,31.5c2.2,6.7,8.7,11.9,19.2,15.4c-1.9-13.2,1-26.6,8.1-36.5
			c5.6-7.8,13.3-12.6,21.5-13.6c0.8-0.1,1.6,0.3,2,1c0.4,0.7,0.3,1.6-0.2,2.2c-6.4,8.3-11.8,25.4-9.6,37.5c0.6,3.4,1.8,6.1,3.5,8
			c4.3-12.1,16-24.7,27.2-29.2c0.8-0.3,1.8-0.1,2.3,0.6c0.5,0.7,0.6,1.7,0,2.4c-15.7,21.9-7.6,30.7,7.3,46.6c1.9,2,3.8,4,5.8,6.3
			c0.7,0.8,0.7,2.1-0.1,2.8c-0.8,0.7-2.1,0.7-2.8-0.1c-2-2.2-3.9-4.2-5.7-6.2c-13.8-14.8-23.3-25-11.9-45
			c-8.7,6-16.6,16.3-19.1,25.8c-0.2,0.6-0.6,1.1-1.2,1.4c-0.6,0.2-1.3,0.2-1.8-0.2c-3.8-2.4-6.3-6.6-7.4-12.4
			c-1.9-10.6,1.4-25.9,7.5-36.4c-5.4,1.8-10.2,5.6-14.1,10.9c-7.1,9.8-9.6,23.5-6.9,36.7c0.1,0.7-0.1,1.4-0.6,1.9
			c-0.5,0.5-1.2,0.7-1.9,0.5c-13.7-3.9-22.1-10.3-25-19c-2.8-8.6,0-19.1,8.5-31.3c-7,1.9-12.4,8.4-18.2,15.1
			c-7.6,8.9-15.4,18.1-27.8,18.8c-0.2,0-0.4,0-0.5,0c-5.2-1.1-9-4.7-10.7-10.1c-2.7-8.6,0.1-23.7,14.8-41.8
			c-23.7,8.7-37.5,2-42.3-7.2c-6.4-12.4,0.7-32.6,25.6-49.3c-17.2,3.4-31.8,13-41.1,27.4c-11.5,17.8-13.3,40.6-5,62.6
			c14.4,32.3,33.5,43,118.1,43c0,0,0,0,0,0c30.8,0,46.9,5.5,48,16.5c0.1,1.1-0.7,2.1-1.8,2.2C474.3,433.7,474.2,433.7,474.2,433.7z"
			/>
	</g>
	<g>
		<path d="M530.8,444.5c-0.1,0-0.2,0-0.3,0c-9.1-1.2-14.6-6.3-14.2-12.9c0.1-1.1,1-1.9,2.1-1.9c1.1,0.1,1.9,1,1.9,2.1
			c-0.3,4.4,4,7.8,10.8,8.7c1.1,0.1,1.9,1.1,1.7,2.2C532.7,443.8,531.8,444.5,530.8,444.5z"/>
	</g>
	<g>
		<path d="M625.5,493.2c-0.1,0-0.3,0-0.4,0c-24.2-5.3-43.2-18.5-60-30.2c-13-9.1-24.2-16.9-34.6-18.4c-1.1-0.2-1.8-1.2-1.7-2.3
			c0.2-1.1,1.2-1.8,2.3-1.7c11.3,1.7,22.9,9.8,36.3,19.1c16.4,11.5,35.1,24.5,58.5,29.6c1.1,0.2,1.8,1.3,1.5,2.4
			C627.3,492.5,626.4,493.2,625.5,493.2z"/>
	</g>
	<g>
		<path d="M567.7,455.6c-0.5,0-1-0.2-1.4-0.5c-12.4-11.4-29-17.6-34.9-18c-1.1-0.1-1.9-1-1.9-2.1c0.1-1.1,1-1.9,2.1-1.9
			c7.3,0.4,24.8,7.4,37.4,19c0.8,0.7,0.9,2,0.1,2.8C568.7,455.4,568.2,455.6,567.7,455.6z"/>
	</g>
	<g>
		<path d="M596.6,439.1c-0.2,0-0.4,0-0.6-0.1c-8.9-2.6-47.1-5.1-64.2-2c-1.1,0.2-2.1-0.5-2.3-1.6s0.5-2.1,1.6-2.3
			c17.5-3.3,56.8-0.6,66,2c1.1,0.3,1.7,1.4,1.4,2.5C598.2,438.5,597.5,439.1,596.6,439.1z"/>
	</g>
	<g>
		<path d="M567.7,455.6c-0.6,0-1.3-0.3-1.6-0.9c-0.6-0.9-0.4-2.2,0.5-2.8l0.5-0.3c8.1-5.6,19.3-13.3,29-16.1
			c1.1-0.3,2.2,0.3,2.5,1.4c0.3,1.1-0.3,2.2-1.4,2.5c-9.1,2.6-20,10.1-27.9,15.6l-0.5,0.3C568.5,455.5,568.1,455.6,567.7,455.6z"/>
	</g>
	<g>
		<path d="M624.7,518c-0.9,0-1.7-0.6-1.9-1.5c-0.3-1.1,0.3-2.2,1.4-2.5c7.7-2.1,10.2-7.1,10.1-11.2c-0.2-4-3.1-8.6-9.1-9.8
			c-1.1-0.2-1.8-1.2-1.6-2.3c0.2-1.1,1.2-1.8,2.3-1.6c7,1.3,12.1,6.9,12.4,13.5c0.2,5.6-3.1,12.5-13,15.2
			C625.1,518,624.9,518,624.7,518z"/>
	</g>
	<g>
		<path d="M608.5,521.1c-0.6,0-1.1-0.3-1.5-0.7c-1.1-1.4-0.8-2.5-0.6-3.1c0.9-1.9,3.3-2,7.7-2.2c3-0.1,6.7-0.3,10.2-1
			c1.1-0.2,2.1,0.5,2.4,1.6c0.2,1.1-0.5,2.1-1.6,2.4c-3.9,0.8-7.8,1-10.9,1.1c-1.3,0.1-2.8,0.1-3.8,0.2c-0.1,0.5-0.3,1-0.7,1.4
			C609.3,521,608.9,521.1,608.5,521.1z"/>
	</g>
	<g>
		<path d="M614.3,539.6c-0.8,0-1.7-0.2-2.7-0.6c-1-0.4-1.5-1.6-1-2.6c0.4-1,1.6-1.5,2.6-1c0.9,0.4,1.2,0.3,1.2,0.3
			c0.1-0.1,0.3-0.8,0.1-2.5c-0.6-4.1-3.6-10.1-7-12.3c-0.9-0.6-1.2-1.8-0.7-2.8c0.6-0.9,1.8-1.2,2.8-0.7c6,3.7,10.8,15.3,8.4,20
			C617.6,538.1,616.5,539.6,614.3,539.6z"/>
	</g>
	<g>
		<path d="M612.3,539.2c-0.4,0-0.8-0.1-1.2-0.4c-12.3-8.8-47.6-11.7-70.9-8.4c-1.1,0.2-2.1-0.6-2.3-1.7s0.6-2.1,1.7-2.3
			c24.1-3.4,60.3-0.5,73.8,9.1c0.9,0.6,1.1,1.9,0.5,2.8C613.6,538.9,613,539.2,612.3,539.2z"/>
	</g>
	<g>
		<path d="M537.8,530.5c-12.7,0-31.9-7-44.4-19.6c-10.3-10.4-15-23.5-13.8-37.8c0.1-1.1,1.1-1.9,2.2-1.8c1.1,0.1,1.9,1.1,1.8,2.2
			c-1.2,13.3,3.1,25,12.7,34.6c13.7,13.9,33.7,19,43.6,18.3c1.1-0.1,2.1,0.7,2.1,1.8c0.1,1.1-0.7,2.1-1.8,2.1
			C539.4,530.4,538.6,530.5,537.8,530.5z"/>
	</g>
	<g>
		<path d="M481.6,475.3c-0.6,0-1.2-0.3-1.6-0.8c-3.6-4.8-22.3-13.1-40.4-6.9c-1,0.4-2.2-0.2-2.5-1.2c-0.4-1,0.2-2.2,1.2-2.5
			c19-6.5,39.8,1.7,44.9,8.3c0.7,0.9,0.5,2.1-0.4,2.8C482.5,475.1,482,475.3,481.6,475.3z"/>
	</g>
	<g>
		<path d="M476,477.6c-0.3,0-0.6-0.1-0.9-0.2c-10.9-5.5-19.7-6.3-26.2-6.9c-5.3-0.5-9.2-0.8-11.4-3.6c-0.7-0.9-0.6-2.1,0.3-2.8
			c0.9-0.7,2.1-0.5,2.8,0.3c1.2,1.5,4.3,1.8,8.7,2.1c6.8,0.6,16.1,1.4,27.7,7.3c1,0.5,1.4,1.7,0.9,2.7
			C477.4,477.2,476.7,477.6,476,477.6z"/>
	</g>
	<g>
		<path d="M523.2,535.2c-0.2,0-0.4,0-0.6-0.1c-13.7-4.1-26.7-11.6-35.4-20.7c-11.1-11.4-15.6-24.9-13.1-39.2
			c0.2-1.1,1.2-1.8,2.3-1.6c1.1,0.2,1.8,1.2,1.6,2.3c-5.5,31.2,26.2,49.4,45.8,55.3c1.1,0.3,1.7,1.4,1.3,2.5
			C524.8,534.6,524,535.2,523.2,535.2z"/>
	</g>
	<g>
		<path d="M547.8,587.8c-0.6,0-1.1-0.2-1.5-0.7c-10.3-12-23-33.2-25.1-53.7c-0.1-1.1,0.7-2.1,1.8-2.2c1.1-0.1,2.1,0.7,2.2,1.8
			c2,19.6,14.2,40,24.1,51.5c0.7,0.8,0.6,2.1-0.2,2.8C548.7,587.6,548.2,587.8,547.8,587.8z"/>
	</g>
	<g>
		<g>
			<path d="M567.5,603.8c-0.2,0-0.4,0-0.7-0.1c-2.9-1-4.7-3.3-5-6.2c-0.3-3.6,1.8-7.3,5.2-9.1c3.6-1.9,7.8-1.3,11.6,1.7
				c0.9,0.7,1,1.9,0.4,2.8c-0.7,0.9-1.9,1-2.8,0.4c-2.6-2-5.1-2.5-7.3-1.3c-1.9,1-3.2,3.3-3.1,5.2c0.1,1.3,0.9,2.3,2.3,2.8
				c1,0.4,1.6,1.5,1.2,2.6C569.1,603.3,568.4,603.8,567.5,603.8z"/>
		</g>
		<g>
			<path d="M560.2,613.5c-0.3,0-0.7-0.1-1-0.3c-1-0.6-1.3-1.8-0.7-2.7c3.7-6.3,9-11.6,13.7-16.3c5.2-5.2,9.7-9.7,9.7-13.2
				c-12.8-7.5-23.6-5.1-28.4,0.4c-4.6,5.3-3.7,13,2.3,20.1c0.4,0.5,0.6,1.2,0.4,1.8c-0.2,0.6-0.6,1.1-1.2,1.4
				c-7.1,2.8-17.3,0.4-22.4-5c-6.1,5-13.5,7.4-20.3,6.4c-5.2-0.8-9.6-3.5-11.8-7.6c-0.5-1-0.2-2.2,0.8-2.7c1-0.5,2.2-0.2,2.7,0.8
				c1.7,3,4.9,5,8.9,5.6c6.2,0.9,13.1-1.6,18.5-6.8c0.4-0.4,1-0.6,1.6-0.5c0.6,0.1,1.1,0.4,1.4,0.9c2.9,4.3,10.4,6.9,16.3,6
				c-6.6-9.5-4.7-17.9-0.4-22.9c6-6.9,19.3-10.1,34.4-0.7c0.5,0.3,0.8,0.8,0.9,1.3c1.2,5.7-4.4,11.2-10.7,17.6
				c-4.5,4.5-9.7,9.7-13.1,15.5C561.5,613.1,560.9,613.5,560.2,613.5z"/>
		</g>
	</g>
	<g>
		<g>
			<path d="M422.4,603.8c-0.8,0-1.6-0.5-1.9-1.3c-0.4-1,0.2-2.2,1.2-2.6c1.4-0.5,2.2-1.4,2.3-2.8c0.2-2-1.2-4.2-3.1-5.2
				c-2.2-1.2-4.7-0.7-7.3,1.3c-0.9,0.7-2.1,0.5-2.8-0.4c-0.7-0.9-0.5-2.1,0.4-2.8c3.8-3,8.1-3.6,11.6-1.7c3.3,1.8,5.4,5.5,5.2,9.1
				c-0.2,2.9-2,5.2-5,6.2C422.9,603.8,422.6,603.8,422.4,603.8z"/>
		</g>
		<g>
			<path d="M429.8,613.5c-0.7,0-1.4-0.4-1.7-1c-3.4-5.8-8.6-11-13.1-15.5c-6.4-6.4-11.9-11.9-10.7-17.6c0.1-0.5,0.4-1,0.9-1.3
				c15.1-9.4,28.4-6.2,34.4,0.7c4.3,5,6.2,13.4-0.4,22.9c5.9,0.9,13.5-1.6,16.3-6c0.3-0.5,0.9-0.8,1.4-0.9c0.6-0.1,1.2,0.1,1.6,0.5
				c5.4,5.2,12.4,7.7,18.5,6.8c4-0.6,7.3-2.6,8.9-5.6c0.5-1,1.8-1.3,2.7-0.8c1,0.5,1.3,1.8,0.8,2.7c-2.3,4-6.6,6.8-11.8,7.6
				c-6.8,1-14.2-1.4-20.3-6.4c-5.1,5.4-15.3,7.8-22.4,5c-0.6-0.2-1-0.7-1.2-1.4c-0.2-0.6,0-1.3,0.4-1.8c6-7.1,6.9-14.8,2.3-20.1
				c-4.8-5.5-15.7-7.9-28.4-0.4c0,3.5,4.5,8,9.7,13.2c4.7,4.7,10,10,13.7,16.3c0.6,1,0.2,2.2-0.7,2.7
				C430.5,613.4,430.1,613.5,429.8,613.5z"/>
		</g>
	</g>
	<g>
		<path d="M502.3,599.5c-1.1,0-2-0.9-2-2s0.9-2,2-2c6,0,8.7-5.2,8.7-10.1c0-6.8-5-14.2-15.9-14.2c-1.1,0-2-0.9-2-2s0.9-2,2-2
			c13.1,0,19.9,9.2,19.9,18.2c0,3.7-1.1,7.1-3.2,9.7C509.4,597.9,506.1,599.5,502.3,599.5z"/>
	</g>
	<g>
		<path d="M487.8,599.5c-8.3,0-12.7-7.1-12.7-14.1c0-4.6,1.8-9.1,4.9-12.4c2.5-2.7,7.2-5.8,15.1-5.8c1.1,0,2,0.9,2,2s-0.9,2-2,2
			c-11,0-15.9,7.4-15.9,14.2c0,4.9,2.7,10.1,8.7,10.1c1.1,0,2,0.9,2,2S488.9,599.5,487.8,599.5z"/>
	</g>
	<g>
		<path d="M495,593.4c-3.5,0-6.4-2.9-6.4-6.4s2.9-6.4,6.4-6.4s6.4,2.9,6.4,6.4S498.5,593.4,495,593.4z M495,584.6
			c-1.3,0-2.4,1.1-2.4,2.4s1.1,2.4,2.4,2.4s2.4-1.1,2.4-2.4S496.3,584.6,495,584.6z"/>
	</g>
	<g>
		<path d="M426.6,626.8c-0.8,0-1.6-0.5-1.9-1.3c-0.4-1,0.2-2.2,1.2-2.6c18.2-6.4,90.6-10.8,134.8-0.9c1.1,0.2,1.8,1.3,1.5,2.4
			c-0.2,1.1-1.3,1.8-2.4,1.5c-42.9-9.6-115.2-5.3-132.7,0.8C427.1,626.7,426.8,626.8,426.6,626.8z"/>
	</g>
	<g>
		<path d="M426.6,636c-0.8,0-1.6-0.5-1.9-1.3c-0.4-1,0.2-2.2,1.2-2.6c18.2-6.4,90.6-10.8,134.8-0.9c1.1,0.2,1.8,1.3,1.5,2.4
			c-0.2,1.1-1.3,1.8-2.4,1.5c-42.9-9.6-115.2-5.3-132.7,0.8C427.1,636,426.8,636,426.6,636z"/>
	</g>
	<g>
		<path d="M426.6,642.6c-0.8,0-1.6-0.5-1.9-1.3c-0.4-1,0.2-2.2,1.2-2.6c18.2-6.4,90.6-10.8,134.8-0.9c1.1,0.2,1.8,1.3,1.5,2.4
			c-0.2,1.1-1.3,1.8-2.4,1.5c-42.9-9.6-115.2-5.3-132.7,0.8C427.1,642.6,426.8,642.6,426.6,642.6z"/>
	</g>
	<g>
		<path d="M426.6,642.4c-0.3,0-0.5-0.1-0.8-0.2c-1.4-0.6-2.3-2.4-2.6-4c-0.4-2.2,0.4-4.2,2-5.7c0.8-0.7,2.1-0.7,2.8,0.2
			s0.7,2.1-0.2,2.8c-0.5,0.4-0.7,1-0.8,1.6c0,0.7,0.3,1.3,0.4,1.5c0.9,0.5,1.2,1.6,0.8,2.5C428.1,641.9,427.4,642.4,426.6,642.4z
			 M427.7,638.7L427.7,638.7L427.7,638.7z"/>
	</g>
	<g>
		<path d="M426.6,636c-0.7,0-1.4-0.4-1.8-1.1c-1.7-3.3-2.2-7.1-1.1-9.7c0.6-1.5,1.6-2.1,2.2-2.4c1-0.4,2.2,0.2,2.5,1.2
			c0.3,1-0.1,2-1,2.5c-0.4,0.7-0.7,3.4,0.9,6.6c0.5,1,0.1,2.2-0.9,2.7C427.3,636,426.9,636,426.6,636z"/>
	</g>
	<g>
		<path d="M560.4,641.8c-0.8,0-1.5-0.5-1.8-1.2c-0.4-0.9,0-2,0.8-2.5c0.2-0.2,0.5-1,0.5-1.8c0-0.7-0.3-1.2-0.8-1.6
			c-0.8-0.7-0.9-2-0.2-2.8c0.7-0.8,2-0.9,2.8-0.2c1.6,1.5,2.4,3.6,2,5.9c-0.3,1.6-1.1,3.4-2.5,4
			C560.9,641.7,560.6,641.8,560.4,641.8z M559.6,637.9C559.6,637.9,559.6,637.9,559.6,637.9C559.6,637.9,559.6,637.9,559.6,637.9z"
			/>
	</g>
	<g>
		<path d="M560.4,635.2c-0.3,0-0.6-0.1-0.9-0.2c-1-0.5-1.4-1.7-0.9-2.7c1.6-3.1,1.3-5.9,0.9-6.6c-0.9-0.4-1.3-1.5-1-2.5
			c0.4-1,1.5-1.6,2.5-1.2c0.7,0.2,1.6,0.8,2.2,2.4c1,2.6,0.6,6.4-1.1,9.7C561.8,634.8,561.1,635.2,560.4,635.2z"/>
	</g>
	<g>
		<path d="M426.6,626.8c-1.1,0-2-0.9-2-2c0-3.6,0.4-15.2,5.2-15.2c1.1,0,2,0.9,2,2c0,0.9-0.6,1.7-1.4,1.9c-0.7,1-1.7,4.9-1.7,11.3
			C428.6,625.9,427.7,626.8,426.6,626.8z"/>
	</g>
	<g>
		<path d="M560.4,625.9c-1.1,0-2-0.9-2-2c0-6.9-0.1-11.1-0.2-11.9c0-0.1-0.1-0.3-0.1-0.5c0-1.1,0.9-2,2-2c2,0,2,2,2.1,2.9
			c0,0.6,0,1.6,0.1,2.7c0,2.3,0.1,5.5,0.1,8.8C562.4,625,561.5,625.9,560.4,625.9z M560.2,613.5
			C560.2,613.5,560.2,613.5,560.2,613.5C560.2,613.5,560.2,613.5,560.2,613.5z M559.2,613.3c0.3,0.2,0.6,0.2,1,0.2
			C559.8,613.5,559.5,613.4,559.2,613.3z M558.3,612.2c0.1,0.3,0.3,0.6,0.5,0.8C558.6,612.7,558.4,612.5,558.3,612.2z"/>
	</g>
	<g>
		<path d="M424.8,572.1c-3.5,0-7.9-1.1-9.9-2.6c-0.9-0.7-1.1-1.9-0.4-2.8c0.7-0.9,1.9-1.1,2.8-0.4c1.3,1,5.9,2,8.5,1.7
			c1.1-0.1,2.1,0.7,2.2,1.8s-0.7,2.1-1.8,2.2C425.8,572,425.3,572.1,424.8,572.1z"/>
	</g>
	<g>
		<path d="M425.6,576.3c-0.1,0-0.2,0-0.3,0c-1.1-0.2-1.9-1.2-1.7-2.3c0.1-0.8,0.2-1.7,0.3-2.5c0.1-1,0.2-1.6,0.2-1.9
			c0.2-1.1,1.3-1.8,2.4-1.5c1.1,0.2,1.8,1.3,1.5,2.4c0,0.2-0.1,0.9-0.2,1.5c-0.1,0.8-0.2,1.8-0.3,2.6
			C427.4,575.5,426.6,576.3,425.6,576.3z"/>
	</g>
	<g>
		<path d="M416.1,569.9c-0.6,0-1.2-0.3-1.6-0.8c-0.7-0.9-0.5-2.1,0.3-2.8c5.8-4.6,10.8-15.5,13.5-24.2c0.3-1.1,1.5-1.6,2.5-1.3
			c1.1,0.3,1.6,1.5,1.3,2.5c-1.4,4.5-6.7,19.6-14.9,26.1C417,569.7,416.6,569.9,416.1,569.9z"/>
	</g>
	<g>
		<path d="M426.1,545.3c-2.8,0-5.6-0.6-7.1-1.7c-0.9-0.6-1.1-1.9-0.5-2.8c0.6-0.9,1.9-1.1,2.8-0.5c1.1,0.8,5.1,1.4,8.5,0.5
			c1.1-0.3,2.2,0.3,2.4,1.4s-0.3,2.2-1.4,2.4C429.4,545.1,427.7,545.3,426.1,545.3z"/>
	</g>
	<g>
		<path d="M420.1,544c-0.7,0-1.3-0.3-1.7-0.9c-0.6-0.9-0.3-2.2,0.6-2.8c6.5-4.1,13.4-13.3,15.3-20.5c0.3-1.1,1.4-1.7,2.5-1.4
			c1.1,0.3,1.7,1.4,1.4,2.5c-2.2,8.2-9.7,18.2-17.1,22.9C420.9,543.9,420.5,544,420.1,544z"/>
	</g>
	<g>
		<path d="M434.4,522.4c-3.3,0-7-1.1-8.4-3.2c-0.6-0.9-0.3-2.2,0.6-2.8c0.9-0.6,2.2-0.3,2.8,0.6c0.5,0.6,3.8,1.8,6.5,1.3
			c1.1-0.2,2.1,0.5,2.4,1.6c0.2,1.1-0.5,2.1-1.6,2.4C436,522.4,435.2,522.4,434.4,522.4z"/>
	</g>
	<g>
		<path d="M427.8,520.1c-0.6,0-1.2-0.3-1.6-0.8c-0.7-0.9-0.5-2.1,0.3-2.8c5.1-4,8-9.6,10.6-14.6c2.9-5.6,5.6-10.9,11-12.8
			c1-0.4,2.2,0.2,2.5,1.3c0.4,1-0.2,2.2-1.3,2.5c-3.9,1.3-6.1,5.7-8.8,10.8c-2.7,5.3-5.8,11.3-11.6,15.9
			C428.6,520,428.2,520.1,427.8,520.1z"/>
	</g>
	<g>
		<path d="M448.8,493.1c-0.8,0-1.5-0.4-1.8-1.2c-0.5-1,0-2.2,1-2.6c1.5-0.7,3.5-1.3,5.4-1.9c2.2-0.7,5.9-1.8,6.5-2.6
			c0.7-0.9,2-1,2.8-0.3c0.9,0.7,1,2,0.3,2.8c-1.3,1.6-4,2.5-8.4,3.9c-1.8,0.6-3.6,1.1-4.9,1.7C449.3,493.1,449,493.1,448.8,493.1z"
			/>
	</g>
	<g>
		<path d="M455.8,488.3c-27.5,0-44.3-17.2-60.5-36.4c-0.7-0.8-0.6-2.1,0.2-2.8c0.8-0.7,2.1-0.6,2.8,0.2
			c16.6,19.7,33.8,37.2,62.8,34.8c1.1-0.1,2.1,0.7,2.2,1.8c0.1,1.1-0.7,2.1-1.8,2.2C459.6,488.2,457.7,488.3,455.8,488.3z"/>
	</g>
	<g>
		<path d="M396.8,452.6c-1,0-1.8-0.7-2-1.7c-0.2-1.1,0.6-2.1,1.7-2.3c8.9-1.4,15.1-3.5,21.1-5.5c7.9-2.6,15.4-5.1,27.4-5.1
			c1.1,0,2,0.9,2,2s-0.9,2-2,2c-11.3,0-18.2,2.3-26.1,4.9c-5.8,2-12.5,4.2-21.7,5.6C397,452.6,396.9,452.6,396.8,452.6z"/>
	</g>
	<g>
		<path d="M479.5,458c-0.5,0-1-0.2-1.4-0.6C467.8,447.2,456.7,442,445,442c-1.1,0-2-0.9-2-2s0.9-2,2-2c12.8,0,24.9,5.6,35.9,16.6
			c0.8,0.8,0.8,2,0,2.8C480.5,457.8,480,458,479.5,458z"/>
	</g>
	<g>
		<path d="M479.5,458C479.5,458,479.5,458,479.5,458c-1.1,0-2-0.9-2-2c0-4.4-4.3-9-8.5-12.9c-0.8-0.8-0.9-2-0.1-2.8
			c0.8-0.8,2-0.9,2.8-0.1c4.9,4.5,9.8,9.9,9.8,15.8C481.5,457.1,480.6,458,479.5,458z"/>
	</g>
	<g>
		<path d="M470.3,443.6c-0.5,0-1.1-0.2-1.4-0.6c-0.8-0.8-0.7-2.1,0.1-2.8c2.2-2.1,3.1-4.6,3.2-8.6c0-1.1,0.9-2,2-2c1.1,0,2,0.9,2,2
			c-0.1,3.1-0.6,7.7-4.5,11.4C471.3,443.4,470.8,443.6,470.3,443.6z"/>
	</g>
	<g>
		<path d="M534.1,488.1c-5.9,0-10.8-4.8-10.8-10.8s4.8-10.8,10.8-10.8s10.8,4.8,10.8,10.8S540,488.1,534.1,488.1z M534.1,470.6
			c-3.7,0-6.8,3-6.8,6.8s3,6.8,6.8,6.8s6.8-3,6.8-6.8S537.8,470.6,534.1,470.6z"/>
	</g>
	<g>
		<path d="M534.4,480.9c-2,0-3.6-1.6-3.6-3.6s1.6-3.6,3.6-3.6s3.6,1.6,3.6,3.6S536.4,480.9,534.4,480.9z M534.4,476.9
			c-0.2,0-0.4,0.2-0.4,0.4s0.2,0.4,0.4,0.4s0.4-0.2,0.4-0.4S534.6,476.9,534.4,476.9z"/>
	</g>
	<g>
		<path d="M477.1,718c0,0-0.1,0-0.1,0c-1.1-0.1-1.9-1-1.9-2.1c0.6-10-1.9-17-4.6-24.4c-3.3-9-7-19.2-5.4-36.1
			c0.1-1.1,1.1-1.9,2.2-1.8c1.1,0.1,1.9,1.1,1.8,2.2c-1.5,16,1.9,25.3,5.2,34.4c2.8,7.8,5.5,15.2,4.8,26.1
			C479,717.2,478.1,718,477.1,718z"/>
	</g>
	<g>
		<path d="M483.8,815.3c-0.1,0-0.1,0-0.2,0c-5.8-0.5-10.2-2.7-13.2-6.7c-8.4-11-4.3-32.9-0.1-56c2.4-12.8,4.8-26,4.8-36.5
			c0-1.1,0.9-2,2-2c0,0,0,0,0,0c1.1,0,2,0.9,2,2c0,10.9-2.4,24.3-4.8,37.3c-3.9,21.3-8,43.3-0.7,52.9c2.3,3.1,5.7,4.7,10.4,5.1
			c1.1,0.1,1.9,1.1,1.8,2.2C485.7,814.5,484.8,815.3,483.8,815.3z"/>
	</g>
	<g>
		<path d="M485.3,815.3c-0.6,0-1.1,0-1.7-0.1c-1.1-0.1-1.9-1-1.9-2.1s1-2,2.1-1.9c5.8,0.4,10.1-1.3,13-5c5.3-6.9,4.4-19.5,1.3-28.8
			c-0.4-1,0.2-2.2,1.3-2.5c1.1-0.4,2.2,0.2,2.5,1.3c3.3,9.6,4.7,23.9-1.9,32.5C496.7,813,491.6,815.3,485.3,815.3z"/>
	</g>
	<g>
		<path d="M500,778.8c-0.8,0-1.5-0.5-1.8-1.2c-6-14.4-6.3-53.2-0.5-64.9c0.5-1,1.7-1.4,2.7-0.9c1,0.5,1.4,1.7,0.9,2.7
			c-4.8,9.7-5.2,47.5,0.6,61.6c0.4,1-0.1,2.2-1.1,2.6C500.5,778.7,500.3,778.8,500,778.8z"/>
	</g>
	<g>
		<path d="M499.4,715.5c-0.3,0-0.6-0.1-0.9-0.2c-1-0.5-1.4-1.7-0.9-2.7c4.8-9.6,5.6-24.3,4.4-29.1c-0.3-1.1,0.4-2.2,1.5-2.4
			c1.1-0.3,2.2,0.4,2.4,1.5c1.5,6,0.4,21.8-4.7,31.9C500.8,715.1,500.1,715.5,499.4,715.5z"/>
	</g>
	<g>
		<path d="M529,789c-0.8,0-1.6-0.5-1.9-1.4c-0.7-2.1-2.2-4.2-4.2-6.9c-5.4-7.5-13.7-18.7-13.7-45.5c0-1.1,0.9-2,2-2s2,0.9,2,2
			c0,25.4,7.4,35.7,12.9,43.1c2.1,2.8,3.9,5.3,4.8,8c0.3,1-0.2,2.2-1.3,2.5C529.4,789,529.2,789,529,789z"/>
	</g>
	<g>
		<path d="M511.3,737.3c-0.1,0-0.2,0-0.2,0c-1.1-0.1-1.9-1.1-1.7-2.2c1.6-12.7,2.2-26.1-7.2-51.3c-0.4-1,0.1-2.2,1.2-2.6
			c1-0.4,2.2,0.1,2.6,1.2c9.7,26,9,40,7.4,53.2C513.1,736.5,512.2,737.3,511.3,737.3z"/>
	</g>
	<g>
		<path d="M487.7,852.5c-0.4,0-0.8,0-1.2,0c-1.1,0-2-0.9-2-2c0-1.1,0.9-2,2-2c20.9,0.3,35-5.8,42.1-17.9c7.6-13.1,5-31.7-1.3-42.6
			c-0.6-1-0.2-2.2,0.7-2.7c1-0.6,2.2-0.2,2.7,0.7c5.7,9.9,10.8,30.4,1.3,46.7C526.8,841.8,514.8,852.5,487.7,852.5z"/>
	</g>
	<g>
		<path d="M486.5,852.5C486.5,852.5,486.5,852.5,486.5,852.5c-15.5-0.2-28.4-6.3-37.6-17.7c-12.5-15.6-17.3-40.2-12.4-64.2
			c0.2-1.1,1.3-1.8,2.4-1.6c1.1,0.2,1.8,1.3,1.6,2.4c-4.6,22.6,0,46.5,11.6,60.9c8.5,10.5,20.1,16,34.5,16.2c1.1,0,2,0.9,2,2
			C488.5,851.6,487.6,852.5,486.5,852.5z"/>
	</g>
	<g>
		<path d="M438.5,773c-0.1,0-0.3,0-0.4,0c-1.1-0.2-1.8-1.3-1.5-2.4c1.8-8.2,5-15.4,8.3-22.9c4.5-10.2,9.1-20.7,10.5-34.3
			c0.1-1.1,1.1-1.9,2.2-1.8c1.1,0.1,1.9,1.1,1.8,2.2c-1.4,14.3-6.2,25.1-10.8,35.5c-3.3,7.4-6.3,14.3-8.1,22.2
			C440.2,772.4,439.4,773,438.5,773z"/>
	</g>
	<g>
		<path d="M457.3,715.5C457.3,715.5,457.3,715.5,457.3,715.5c-1.2,0-2-0.9-2-2c0.3-14.3,4.3-47.6,9.9-58.8c0.5-1,1.7-1.4,2.7-0.9
			c1,0.5,1.4,1.7,0.9,2.7c-4.9,9.9-9.1,41.5-9.5,57.2C459.3,714.6,458.4,715.5,457.3,715.5z"/>
	</g>
	<g>
		<path d="M439.7,768.5c-0.3,0-0.5,0-0.8-0.2c-26.4-10.8-22.8-39.9-19.7-65.6c1.1-8.9,2.1-17.3,2-24.8c0-1.1,0.9-2,2-2
			c1.1,0,2,0.9,2,2c0.1,7.7-0.9,16.3-2,25.3c-3.1,25.4-6.4,51.7,17.2,61.4c1,0.4,1.5,1.6,1.1,2.6
			C441.2,768.1,440.4,768.5,439.7,768.5z"/>
	</g>
	<g>
		<path d="M423.2,680c-1.1,0-2-0.9-2-2c0-20.2-7.8-31.5-15.4-42.4c-7.5-10.8-14.5-21-13.5-38.2c0.1-1.1,1-2,2.1-1.9
			c1.1,0.1,1.9,1,1.9,2.1c-1,15.9,5.7,25.5,12.8,35.7c7.6,10.9,16.1,23.2,16.1,44.7C425.2,679.1,424.3,680,423.2,680z"/>
	</g>
	<g>
		<path d="M438.5,808.9c-0.1,0-0.1,0-0.2,0c-15.5-1.7-27.4-6.4-36.5-14.4C387.6,782,381.3,762,383,735.1c0.1-1.1,1-1.9,2.1-1.9
			c1.1,0.1,1.9,1,1.9,2.1c-2.7,42.2,14.7,65.6,51.7,69.5c1.1,0.1,1.9,1.1,1.8,2.2C440.4,808.1,439.5,808.9,438.5,808.9z"/>
	</g>
	<g>
		<path d="M385,737.3C385,737.3,385,737.3,385,737.3c-1.2,0-2-1-2-2.1c0.6-17.7,5.9-29.9,10.2-39.8c2.8-6.4,5.2-11.9,5.9-17.7
			c0.1-1.1,1.1-1.9,2.2-1.7c1.1,0.1,1.9,1.1,1.7,2.2c-0.8,6.3-3.3,12.1-6.2,18.8c-4.3,10-9.2,21.3-9.8,38.3
			C387,736.4,386.1,737.3,385,737.3z"/>
	</g>
	<g>
		<path d="M401,680c-0.1,0-0.2,0-0.3,0c-1.1-0.2-1.9-1.2-1.7-2.3c1.3-9.6-0.9-18.1-3.5-28c-3.6-13.9-7.8-29.6-3.1-52.6
			c0.2-1.1,1.3-1.8,2.4-1.6c1.1,0.2,1.8,1.3,1.6,2.4c-4.4,22.1-0.4,37.3,3.1,50.8c2.6,9.9,5.1,19.2,3.6,29.6
			C402.8,679.3,402,680,401,680z"/>
	</g>
	<g>
		<path d="M394.8,698.6c-0.7,0-1.5-0.4-1.8-1.1c-12.3-25.2-29.3-59.8-18.8-132.2c0.2-1.1,1.2-1.8,2.3-1.7c1.1,0.2,1.9,1.2,1.7,2.3
			c-10.3,71.2,6.3,105.1,18.4,129.9c0.5,1,0.1,2.2-0.9,2.7C395.4,698.5,395.1,698.6,394.8,698.6z"/>
	</g>
	<g>
		<path d="M376.3,567.5c-0.1,0-0.2,0-0.2,0c-1.1-0.1-1.9-1.1-1.7-2.2c2.6-21.2-7.5-36.4-16.4-49.8c-6.4-9.6-11.9-17.9-11.9-26.9
			c0-1.1,0.9-2,2-2s2,0.9,2,2c0,7.8,5.2,15.6,11.2,24.7c8.8,13.3,19.8,29.8,17,52.4C378.1,566.8,377.2,567.5,376.3,567.5z"/>
	</g>
	<g>
		<path d="M362.3,571.2c-0.1,0-0.3,0-0.4,0c-1.1-0.2-1.8-1.3-1.6-2.4c1.2-6.3-2.4-15.3-6.6-25.8c-6.5-16-14.5-36-7.6-55.1
			c0.4-1,1.5-1.6,2.6-1.2c1,0.4,1.6,1.5,1.2,2.6c-6.3,17.7,1.1,36.1,7.6,52.2c4.5,11,8.3,20.6,6.8,28
			C364.1,570.5,363.3,571.2,362.3,571.2z"/>
	</g>
	<g>
		<path d="M339.5,653.8c-0.9,0-1.8-0.7-2-1.6c-4.7-25,2.5-37.8,10.1-51.4c5-9,10.1-18.2,12.8-31.9c0.2-1.1,1.3-1.8,2.3-1.6
			c1.1,0.2,1.8,1.3,1.6,2.3c-2.7,14.3-8.3,24.3-13.2,33.1c-7.5,13.5-14,25.2-9.6,48.8c0.2,1.1-0.5,2.1-1.6,2.3
			C339.7,653.7,339.6,653.8,339.5,653.8z"/>
	</g>
	<g>
		<path d="M385.3,732c-0.4,0-0.9-0.1-1.2-0.4c-26.9-20.8-42.1-46.8-46.6-79.5c-0.1-1.1,0.6-2.1,1.7-2.3c1.1-0.2,2.1,0.6,2.3,1.7
			c4.3,31.7,19,56.8,45.1,76.9c0.9,0.7,1,1.9,0.4,2.8C386.5,731.7,385.9,732,385.3,732z"/>
	</g>
	<g>
		<path d="M350.2,602.2c-1,0-1.8-0.7-2-1.7c-2.4-18-14.9-36.7-25.6-44.3c-0.9-0.6-1.1-1.9-0.5-2.8c0.6-0.9,1.9-1.1,2.8-0.5
			c13.2,9.4,24.9,29.6,27.3,47c0.1,1.1-0.6,2.1-1.7,2.3C350.4,602.1,350.3,602.2,350.2,602.2z"/>
	</g>
	<g>
		<path d="M323.7,556.5c-0.3,0-0.7-0.1-1-0.3c-18.8-11.2-14.9-53.3-10.1-68.2c0.3-1.1,1.5-1.6,2.5-1.3c1.1,0.3,1.6,1.5,1.3,2.5
			c-4.7,14.7-7.5,54.1,8.4,63.6c1,0.6,1.3,1.8,0.7,2.7C325.1,556.1,324.4,556.5,323.7,556.5z"/>
	</g>
	<g>
		<path d="M314.5,490.6c-0.2,0-0.4,0-0.6-0.1c-1.1-0.3-1.6-1.4-1.3-2.5c10.5-33.7,0.6-78.4-14.7-88.3c-0.9-0.6-1.2-1.8-0.6-2.8
			c0.6-0.9,1.8-1.2,2.8-0.6c16.6,10.8,27.6,56.7,16.3,92.9C316.1,490.1,315.4,490.6,314.5,490.6z"/>
	</g>
	<g>
		<path d="M296,472.6c-0.4,0-0.7-0.1-1.1-0.3c-0.9-0.6-1.2-1.8-0.6-2.8c9.9-15.6,7.7-55.4,2.8-71c-0.3-1.1,0.3-2.2,1.3-2.5
			c1.1-0.3,2.2,0.3,2.5,1.3c5,15.9,7.6,57.1-3.2,74.3C297.3,472.3,296.7,472.6,296,472.6z"/>
	</g>
	<g>
		<path d="M338.1,637.2c-0.3,0-0.7-0.1-1-0.3c-24.7-14.1-44.6-42.5-53.2-75.9c-8.6-33.3-4.8-66.6,10.4-91.5c0.6-0.9,1.8-1.2,2.8-0.7
			c0.9,0.6,1.2,1.8,0.7,2.8c-14.6,23.9-18.3,56.1-10,88.4c8.4,32.4,27.5,59.9,51.3,73.5c1,0.5,1.3,1.8,0.7,2.7
			C339.4,636.9,338.8,637.2,338.1,637.2z"/>
	</g>
	<g>
		<path d="M296,470.4c-0.3,0-0.7-0.1-1-0.3c-24.7-14.2-29.2-68.7-17.9-110.7c0.3-1.1,1.4-1.7,2.4-1.4c1.1,0.3,1.7,1.4,1.4,2.4
			c-12,44.8-4.5,94.4,16.1,106.2c1,0.5,1.3,1.8,0.7,2.7C297.4,470.1,296.7,470.4,296,470.4z"/>
	</g>
	<g>
		<path d="M279,362c-0.2,0-0.4,0-0.6-0.1c-1-0.3-1.6-1.5-1.3-2.5c9-27.4,6.2-62.1-2.3-74.8c-0.6-0.9-0.4-2.2,0.6-2.8
			c0.9-0.6,2.2-0.4,2.8,0.6c10.1,15.2,11.4,51.8,2.7,78.2C280.6,361.5,279.8,362,279,362z"/>
	</g>
	<g>
		<path d="M239.5,404c-0.1,0-0.1,0-0.2,0c-1.1-0.1-1.9-1.1-1.8-2.2c1.9-18,8.3-29.4,15.1-41.5c9.4-16.7,20-35.6,21.9-76.9
			c0.1-1.1,1-2,2.1-1.9c1.1,0.1,2,1,1.9,2.1c-1.9,42.2-12.8,61.6-22.4,78.6c-6.9,12.3-12.8,22.8-14.7,40
			C241.4,403.2,240.5,404,239.5,404z"/>
	</g>
	<g>
		<path d="M282.3,513.3c-0.4,0-0.8-0.1-1.2-0.4c-30.4-22.5-48.8-69.3-43.6-111.1c0.1-1.1,1.1-1.9,2.2-1.7c1.1,0.1,1.9,1.1,1.7,2.2
			c-5,40.5,12.6,85.7,42,107.4c0.9,0.7,1.1,1.9,0.4,2.8C283.5,513,282.9,513.3,282.3,513.3z"/>
	</g>
	<g>
		<path d="M258,357.3c-0.7,0-1.4-0.4-1.7-1c-9-15.3-8-49-3.4-64.5c0.3-1.1,1.4-1.7,2.5-1.3c1.1,0.3,1.7,1.4,1.3,2.5
			c-5,16.8-4.6,48.4,3,61.3c0.6,1,0.2,2.2-0.7,2.7C258.7,357.2,258.3,357.3,258,357.3z"/>
	</g>
	<g>
		<path d="M254.8,294.3c-0.2,0-0.4,0-0.6-0.1c-1.1-0.3-1.7-1.4-1.4-2.5c5.1-17.5,5.1-36-0.1-50.6c-0.4-1,0.2-2.2,1.2-2.6
			c1-0.4,2.2,0.2,2.6,1.2c5.4,15.4,5.5,34.8,0.2,53.1C256.5,293.8,255.7,294.3,254.8,294.3z"/>
	</g>
	<g>
		<path d="M254.7,242.5c-0.8,0-1.5-0.5-1.8-1.2c-4.5-10.6-5-20.1-5.4-26.9c-0.1-1.8-0.2-3.4-0.3-4.8c-0.1-1.1,0.7-2.1,1.8-2.2
			c1.1-0.1,2.1,0.7,2.2,1.8c0.2,1.5,0.2,3.1,0.4,5c0.4,6.6,0.8,15.6,5,25.6c0.4,1,0,2.2-1.1,2.6C255.2,242.5,255,242.5,254.7,242.5z
			"/>
	</g>
	<g>
		<path d="M243.8,241.2c-0.9,0-1.7-0.6-1.9-1.5c-2.9-11-1-21.6,5.6-31.4c0.6-0.9,1.9-1.2,2.8-0.6c0.9,0.6,1.2,1.9,0.6,2.8
			c-5.9,8.9-7.6,18.4-5.1,28.2c0.3,1.1-0.4,2.2-1.4,2.4C244.2,241.1,244,241.2,243.8,241.2z"/>
	</g>
	<g>
		<path d="M232.8,277.5c-0.5,0-0.9-0.2-1.3-0.5c-0.8-0.7-0.9-2-0.2-2.8c6.4-7.6,13-21.2,10.6-34.7c-0.2-1.1,0.5-2.1,1.6-2.3
			c1.1-0.2,2.1,0.5,2.3,1.6c2.7,14.9-4.1,29.4-11.4,38C234,277.3,233.4,277.5,232.8,277.5z"/>
	</g>
	<g>
		<path d="M241.4,393.2c-0.7,0-1.3-0.3-1.7-0.9c-12-19.4-19.5-42.3-21.2-64.4c-1.7-22.4,2.9-41.4,12.8-53.6c0.7-0.9,2-1,2.8-0.3
			c0.9,0.7,1,2,0.3,2.8c-19.2,23.6-15.4,74.5,8.7,113.4c0.6,0.9,0.3,2.2-0.7,2.8C242.1,393.1,241.7,393.2,241.4,393.2z"/>
	</g>
	<g>
		<path d="M528,786.7C528,786.7,528,786.7,528,786.7c-1.2,0-2-0.9-2-2.1c0.3-13.4,9.4-32.1,22-45.6c0.8-0.8,2-0.8,2.8-0.1
			c0.8,0.8,0.8,2,0.1,2.8c-11.8,12.6-20.6,30.7-21,42.9C530,785.9,529.1,786.7,528,786.7z"/>
	</g>
	<g>
		<path d="M549.5,742.5c-0.6,0-1.2-0.3-1.6-0.8c-0.7-0.9-0.5-2.1,0.4-2.8c4.7-3.6,4.7-15.2-2.2-25.3c-0.6-0.9-0.4-2.2,0.5-2.8
			c0.9-0.6,2.2-0.4,2.8,0.5c7.7,11.3,8.3,25.3,1.3,30.7C550.4,742.4,549.9,742.5,549.5,742.5z"/>
	</g>
	<g>
		<path d="M547.8,714.5c-0.6,0-1.2-0.3-1.6-0.8c-13.7-17.6-10.6-49.7,6.2-63.5c0.9-0.7,2.1-0.6,2.8,0.3s0.6,2.1-0.3,2.8
			c-15,12.4-17.8,42.2-5.6,58c0.7,0.9,0.5,2.1-0.4,2.8C548.6,714.4,548.2,714.5,547.8,714.5z"/>
	</g>
	<g>
		<path d="M561.8,705.8c-0.6,0-1.2-0.3-1.6-0.8c-11.6-14.9-13.5-20.7-8.6-53.5c0.2-1.1,1.2-1.8,2.3-1.7c1.1,0.2,1.8,1.2,1.7,2.3
			c-4.9,32.9-2.8,36.9,7.8,50.5c0.7,0.9,0.5,2.1-0.3,2.8C562.7,705.6,562.2,705.8,561.8,705.8z"/>
	</g>
	<g>
		<path d="M535.3,812.8c-1,0-1.9-0.7-2-1.8c-0.1-1.1,0.7-2.1,1.8-2.2c16.7-2,31.5-13.9,38.8-31.1c9.5-22.4,4.5-48.9-13.7-72.7
			c-0.7-0.9-0.5-2.1,0.4-2.8c0.9-0.7,2.1-0.5,2.8,0.4c19.1,25,24.2,52.9,14.2,76.7c-7.8,18.5-23.9,31.4-42,33.5
			C535.5,812.7,535.4,812.8,535.3,812.8z"/>
	</g>
	<g>
		<path d="M571.8,721.6c-0.4,0-0.8-0.1-1.2-0.4c-0.9-0.7-1.1-1.9-0.4-2.8c14.8-19.9,21-50.6,14.4-71.4c-0.3-1.1,0.2-2.2,1.3-2.5
			c1.1-0.3,2.2,0.2,2.5,1.3c7,21.9,0.6,54.2-15,75C573,721.3,572.4,721.6,571.8,721.6z"/>
	</g>
	<g>
		<path d="M586.5,648.4c-0.9,0-1.7-0.6-1.9-1.5c-2.4-9.2-2.4-36.1,12.2-48.2c0.8-0.7,2.1-0.6,2.8,0.3s0.6,2.1-0.3,2.8
			c-13,10.8-13,35.9-10.8,44c0.3,1.1-0.4,2.2-1.4,2.4C586.8,648.3,586.7,648.4,586.5,648.4z"/>
	</g>
	<g>
		<path d="M598,602.3c-0.4,0-0.9-0.2-1.3-0.5c-0.9-0.7-1-2-0.3-2.8c9.3-11.2,9.4-20.6,9.7-33.7l0-1.6c0-1.1,1-2,2-2c1.1,0,2,0.9,2,2
			l0,1.6c-0.2,13.3-0.4,23.8-10.6,36.1C599.1,602,598.6,602.3,598,602.3z"/>
	</g>
	<g>
		<path d="M608.5,615.3c-0.3,0-0.6-0.1-0.9-0.2c-1-0.5-1.4-1.7-0.9-2.7c12.4-25.3,3.6-44.4,0.2-47c-0.9-0.7-1-1.9-0.4-2.8
			c0.7-0.9,1.9-1,2.8-0.4c4.2,3.3,14.8,23.7,0.9,52C609.9,614.8,609.2,615.3,608.5,615.3z"/>
	</g>
	<g>
		<path d="M619.8,671c-0.7,0-1.3-0.3-1.7-0.9c-12.7-19.5-21.6-36.1-11.4-57.7c0.5-1,1.7-1.4,2.7-0.9c1,0.5,1.4,1.7,0.9,2.7
			c-9.4,19.8-0.9,35.4,11.1,53.8c0.6,0.9,0.3,2.2-0.6,2.8C620.5,670.9,620.1,671,619.8,671z"/>
	</g>
	<g>
		<path d="M578.9,741.2c-1,0-1.8-0.7-2-1.7c-0.2-1.1,0.5-2.1,1.6-2.3c11.5-2,26.8-17.5,35.6-36.1c6.1-13,7.6-24.6,3.8-31.1
			c-0.5-1-0.2-2.2,0.7-2.7c1-0.6,2.2-0.2,2.7,0.7c4.4,7.7,3.1,20.4-3.7,34.8c-8.1,17.2-23.9,35.9-38.5,38.3
			C579.1,741.1,579,741.2,578.9,741.2z"/>
	</g>
	<g>
		<path d="M616.6,664.8c-0.5,0-1.1-0.2-1.5-0.6c-0.8-0.8-0.7-2.1,0.1-2.8c11.4-10.7,24-33.2,24.6-57.3c0-1.1,1-2,2-2
			c1.1,0,2,0.9,2,2c-0.6,25.3-13.8,48.9-25.8,60.2C617.5,664.6,617.1,664.8,616.6,664.8z"/>
	</g>
	<g>
		<path d="M641.8,606c-0.1,0-0.2,0-0.3,0c-1.1-0.1-1.9-1.1-1.7-2.2c1.3-10.8-0.1-15.7-2.4-23.2c-1.4-4.7-3.2-10.6-4.6-19.5
			c-0.2-1.1,0.6-2.1,1.7-2.3c1.1-0.2,2.1,0.6,2.3,1.7c1.4,8.6,3,14.1,4.5,19c2.3,7.7,4,13.2,2.5,24.8
			C643.6,605.3,642.7,606,641.8,606z"/>
	</g>
	<g>
		<path d="M634.7,562.8c-1,0-1.9-0.8-2-1.8c-2.7-23.2,7.9-34.7,14.3-41.6c0.7-0.8,2-0.9,2.8-0.1c0.8,0.7,0.9,2,0.1,2.8
			c-6.3,6.8-15.7,17.1-13.2,38.4c0.1,1.1-0.7,2.1-1.8,2.2C634.9,562.7,634.8,562.8,634.7,562.8z"/>
	</g>
	<g>
		<path d="M667.2,602.3c-1.1,0-1.9-0.8-2-1.9c-0.6-10.4-4.4-19.3-8.4-28.6c-5.7-13.3-12.2-28.4-10.4-51.2c0.1-1.1,1-1.9,2.2-1.8
			c1.1,0.1,1.9,1.1,1.8,2.2c-1.8,21.8,4.2,35.8,10,49.3c4.1,9.7,8.1,18.8,8.7,29.9c0.1,1.1-0.8,2-1.9,2.1
			C667.3,602.2,667.3,602.3,667.2,602.3z"/>
	</g>
	<g>
		<path d="M621.2,688.8c-0.9,0-1.7-0.6-1.9-1.5c-0.3-1.1,0.4-2.2,1.4-2.4c31-7.8,47.6-39.4,44.5-84.5c-0.1-1.1,0.8-2.1,1.9-2.1
			c1.1-0.1,2.1,0.8,2.1,1.9c1.5,21.5-1.6,40.9-9,56.1c-8.2,17-21.5,28.2-38.6,32.5C621.5,688.8,621.4,688.8,621.2,688.8z"/>
	</g>
	<g>
		<path d="M662.9,583.3c-1,0-1.9-0.8-2-1.9c-1.2-16,1.8-30.3,9.6-46.2c0.5-1,1.7-1.4,2.7-0.9c1,0.5,1.4,1.7,0.9,2.7
			c-7.5,15.2-10.3,28.8-9.2,44.1c0.1,1.1-0.8,2.1-1.9,2.1C663,583.3,663,583.3,662.9,583.3z"/>
	</g>
	<g>
		<path d="M672.3,538.2c-0.2,0-0.5,0-0.7-0.1c-1-0.4-1.5-1.6-1.1-2.6c2.2-5.5,3.3-20.2,0-29.6c-0.4-1,0.2-2.2,1.2-2.5
			c1-0.4,2.2,0.2,2.5,1.2c3.7,10.6,2.5,26,0,32.4C673.9,537.7,673.1,538.2,672.3,538.2z"/>
	</g>
	<g>
		<path d="M672.3,507.2c-0.9,0-1.7-0.6-1.9-1.5c-3.2-12.8,1.8-25.1,3.5-28.5c0.5-1,1.7-1.4,2.7-1c1,0.5,1.4,1.7,1,2.7
			c-1.5,3.1-6.1,14.3-3.2,25.8c0.3,1.1-0.4,2.2-1.5,2.4C672.7,507.1,672.5,507.2,672.3,507.2z"/>
	</g>
	<g>
		<path d="M675.7,480c-0.4,0-0.7-0.1-1-0.3c-0.9-0.6-1.2-1.8-0.7-2.8c3.3-5.3,3.1-24.2-0.3-40.4c-0.2-1.1,0.5-2.1,1.5-2.4
			c1.1-0.2,2.1,0.5,2.4,1.5c3.2,15.4,4,36.3-0.3,43.3C677,479.7,676.3,480,675.7,480z"/>
	</g>
	<g>
		<path d="M691.8,474.8c-1,0-1.9-0.8-2-1.8c-0.9-11-7.7-28.5-15.5-35.3c-0.8-0.7-0.9-2-0.2-2.8c0.7-0.8,2-0.9,2.8-0.2
			c8.8,7.7,15.9,26.2,16.8,38c0.1,1.1-0.7,2.1-1.8,2.2C691.9,474.8,691.9,474.8,691.8,474.8z"/>
	</g>
	<g>
		<path d="M697.3,505.6c-0.7,0-1.3-0.3-1.7-0.9c-4.9-7.7-5-14.6-5.1-21.3c-0.1-3.3-0.1-6.6-0.7-10.2c-0.2-1.1,0.6-2.1,1.6-2.3
			c1.1-0.2,2.1,0.6,2.3,1.6c0.6,3.9,0.7,7.4,0.7,10.8c0.1,6.7,0.2,12.4,4.5,19.2c0.6,0.9,0.3,2.2-0.6,2.8
			C698.1,505.5,697.7,505.6,697.3,505.6z"/>
	</g>
	<g>
		<path d="M667.5,616.9c-1.1,0-2-0.9-2-2c0-1.1,0.8-2,1.9-2c4-0.1,14.2-1.3,22.3-9.9c7.7-8.2,11.3-20.6,10.7-37c0-1.1,0.8-2,1.9-2.1
			c1.1,0,2,0.8,2.1,1.9c0.7,17.4-3.3,30.8-11.8,39.8C686.3,612.6,677.1,616.7,667.5,616.9C667.5,616.9,667.5,616.9,667.5,616.9z"/>
	</g>
	<g>
		<path d="M702.5,568c-1.1,0-2-0.9-2-1.9c-0.1-4.2,0.6-8.5,1.5-13.5c1.1-6.5,2.5-14.5,2.5-25.5c0-1.1,0.9-2,2-2s2,0.9,2,2
			c0,11.3-1.4,19.6-2.6,26.2c-0.8,4.8-1.5,8.9-1.4,12.7C704.5,567.1,703.7,568,702.5,568C702.5,568,702.5,568,702.5,568z"/>
	</g>
	<g>
		<path d="M706.5,529.1c-1.1,0-2-0.9-2-2c0-10.7,0-14.2-8.5-22c-0.8-0.7-0.9-2-0.1-2.8c0.7-0.8,2-0.9,2.8-0.1
			c9.8,8.9,9.8,14,9.8,24.9C708.5,528.2,707.6,529.1,706.5,529.1z"/>
	</g>
	<g>
		<path d="M705.4,545.6c-0.3,0-0.6-0.1-0.9-0.2c-1-0.5-1.4-1.7-0.9-2.7c6-12.2,15.5-21,23.9-28.8c11.6-10.8,21.6-20.1,20-35.1
			c0-0.1,0-0.1,0-0.2c0-16.1-3.7-39.6-21.5-60.1c-0.1-0.1-0.1-0.2-0.2-0.3c-7.4-12-18-29.5-18.5-49.1c-3.4,7.6-5.3,19.2-4.6,29.9
			c0.8,10,2.6,16.8,4.4,23.5c2.3,8.4,4.6,17.2,4.6,31.9c0.7,17.4-5.5,30.7-10.9,42.5c-0.9,1.9-1.8,3.9-2.6,5.8c-0.4,1-1.6,1.5-2.6,1
			c-1-0.4-1.5-1.6-1-2.6c0.9-1.9,1.8-3.9,2.7-5.8c5.5-11.9,11.2-24.2,10.5-40.7c0-14.3-2.2-22.4-4.5-30.9
			c-1.8-6.8-3.7-13.9-4.5-24.2c-1-15.6,3.2-32.4,9.6-39c0.6-0.6,1.5-0.8,2.3-0.4c0.8,0.4,1.2,1.2,1.1,2.1
			c-2.6,21.1,9.4,40.9,17.4,54.1c14.6,16.9,22.3,38.5,22.3,62.5c1.7,17-9.5,27.4-21.3,38.3c-8.5,7.9-17.3,16.1-23,27.6
			C706.9,545.2,706.2,545.6,705.4,545.6z"/>
	</g>
	<g>
		<path d="M747.2,459.1c-0.6,0-1.1-0.2-1.5-0.7c-0.7-0.8-0.6-2.1,0.2-2.8c10.1-8.8,19.2-32.3,15.4-63.1
			c-2.7-26.8-7.3-37.2-18.3-60.1c0,0,0-0.1-0.1-0.1c-2.7-6.8-7.1-12.9-11.3-18.9c-6-8.6-12.2-17.4-14.4-28.4
			c-6.1,16.9-0.4,40.6,10.1,50.1c10.1,9.2,10.6,30.6,8.1,40c0,0.1,0,0.1-0.1,0.2c-3.8,10.3-4.6,31.7-1.8,46.7
			c0.2,1.1-0.5,2.1-1.6,2.3c-1.1,0.2-2.1-0.5-2.3-1.6c-2.9-15.6-2-37.9,2-48.8c2.1-8.1,1.7-28.1-6.9-35.9
			c-13.2-12-19.5-42.6-7.9-61.3c0.5-0.8,1.4-1.1,2.2-0.9c0.9,0.2,1.5,1,1.5,1.9c0.3,13.3,7.2,23,14.4,33.3
			c4.3,6.2,8.8,12.5,11.7,19.7c11.2,23.4,15.9,34,18.7,61.4c4,32.3-5.5,56.7-16.7,66.5C748.2,458.9,747.7,459.1,747.2,459.1z"/>
	</g>
	<g>
		<path d="M764.2,391.5c-0.5,0-0.9-0.2-1.3-0.5c-0.8-0.7-1-2-0.3-2.8c27.7-33.3,16-84-1-109.4c-0.1-0.1-0.1-0.2-0.2-0.4
			c-1.8-4.3-4.2-7.4-6.6-10.4c-5.4-6.8-10.5-13.3-7.7-31.5c-4.9,13.3-7.5,36.1-3.9,55.6c0,0,0,0.1,0,0.1c0.9,7.3,0.8,23.2-3.2,28.7
			c-0.7,0.9-1.9,1.1-2.8,0.4c-0.9-0.7-1.1-1.9-0.4-2.8c2.6-3.6,3.5-17,2.4-25.8c-4.7-25.6,0.9-60.5,11-69.2c0.7-0.6,1.6-0.6,2.4-0.2
			c0.7,0.5,1.1,1.4,0.9,2.2c-6.8,25.6-1.6,32.2,4.4,39.8c2.5,3.2,5.1,6.4,7,11.1c17.7,26.5,29.6,79.2,0.7,114
			C765.3,391.3,764.7,391.5,764.2,391.5z"/>
	</g>
	<g>
		<path d="M510.7,268.4C510.7,268.4,510.7,268.4,510.7,268.4c-29-0.8-53-13.2-76.2-25.2c-46.9-24.2-91.3-47.1-174.8,18
			c-0.9,0.7-2.1,0.5-2.8-0.3c-0.7-0.9-0.5-2.1,0.3-2.8c38.3-29.9,72.3-44,104-43.2c28.3,0.7,52.1,13,75,24.8
			c22.8,11.8,46.4,24,74.4,24.7c1.1,0,2,1,1.9,2.1C512.7,267.6,511.8,268.4,510.7,268.4z"/>
	</g>
	<g>
		<path d="M510.7,268.4c-1.1,0-2-0.9-2-2s0.9-2,2-2c20.7,0,37.9-9,56.1-18.5c38.8-20.2,82.7-43.1,174.6,11.3c1,0.6,1.3,1.8,0.7,2.7
			c-0.6,1-1.8,1.3-2.7,0.7c-90-53.2-132.9-30.9-170.7-11.2C550,259.2,532.4,268.4,510.7,268.4z"/>
	</g>
	<g>
		<path d="M403.1,228.1c-0.3,0-0.7-0.1-1-0.2c-17.5-9.6-27.8-18.7-23.7-63.3c0.1-1.1,1.1-1.9,2.2-1.8c1.1,0.1,1.9,1.1,1.8,2.2
			c-4,43,5.6,50.6,21.6,59.4c1,0.5,1.3,1.7,0.8,2.7C404.5,227.7,403.8,228.1,403.1,228.1z"/>
	</g>
	<g>
		<path d="M380.5,166.8c-0.1,0-0.1,0-0.2,0c-1.1-0.1-1.9-1.1-1.8-2.2c1.3-13-14.6-19.7-19.4-21.4c-1-0.4-1.6-1.5-1.2-2.6
			s1.5-1.6,2.6-1.2c5.6,2,23.6,9.7,22.1,25.6C382.4,166,381.5,166.8,380.5,166.8z"/>
	</g>
	<g>
		<path d="M359.7,143.3c-0.3,0-0.5,0-0.8-0.2c-6.5-2.7-9.5-11.8-8.1-18.3c0.2-1.1,1.3-1.8,2.4-1.5c1.1,0.2,1.8,1.3,1.5,2.4
			c-0.9,4.3,0.8,11.7,5.7,13.7c1,0.4,1.5,1.6,1.1,2.6C361.3,142.8,360.5,143.3,359.7,143.3z"/>
	</g>
	<g>
		<path d="M375.1,140.1c-13.6,0-24.3-6.5-24.3-14.9c0-1.1,0.9-2,2-2s2,0.9,2,2c0,5.9,9.3,10.9,20.3,10.9c1.1,0,2,0.9,2,2
			S376.2,140.1,375.1,140.1z"/>
	</g>
	<g>
		<path d="M400.1,187c-0.1,0-0.1,0-0.2,0c-1.1-0.1-1.9-1.1-1.8-2.2c1.4-15-1.9-28.8-8.8-37c-3.9-4.6-8.9-7.3-14.4-7.7
			c-1.1-0.1-1.9-1-1.8-2.1c0.1-1.1,1-1.9,2.1-1.8c6.6,0.5,12.5,3.7,17.1,9.1c7.7,9.1,11.2,23.7,9.7,39.9
			C402,186.2,401.1,187,400.1,187z"/>
	</g>
	<g>
		<path d="M443,217.5c-0.3,0-0.5-0.1-0.8-0.2c-2.5-1.1-5.8-2.2-9.3-3.4c-14.4-4.9-34.2-11.7-34.8-28.8c0-1.1,0.8-2,1.9-2.1
			c1.1,0,2,0.8,2.1,1.9c0.5,14.4,18,20.4,32.1,25.2c3.5,1.2,6.9,2.4,9.6,3.5c1,0.4,1.5,1.6,1,2.6C444.5,217.1,443.8,217.5,443,217.5
			z"/>
	</g>
	<g>
		<path d="M443,217.5c-0.3,0-0.7-0.1-1-0.3c-22.6-12.7-37-28.2-36.8-39.5c0-1.1,1-2,2-2c1.1,0,2,0.9,2,2c-0.2,9.7,13.7,24.1,34.7,36
			c1,0.5,1.3,1.8,0.8,2.7C444.4,217.1,443.7,217.5,443,217.5z"/>
	</g>
	<g>
		<path d="M407.2,179.8c-1.1,0-2-0.8-2-1.9c-0.3-7.1,2.5-11.7,5.3-16.2c2.2-3.5,4.2-6.8,4.8-11.4c0.1-1.1,1.1-1.9,2.2-1.7
			c1.1,0.1,1.9,1.1,1.7,2.2c-0.7,5.5-3,9.3-5.3,13c-2.5,4.1-4.9,8-4.7,13.9C409.3,178.8,408.4,179.7,407.2,179.8
			C407.3,179.7,407.3,179.8,407.2,179.8z"/>
	</g>
	<g>
		<path d="M417.3,152.5c-0.1,0-0.1,0-0.2,0c-1.1-0.1-1.9-1.1-1.8-2.2c1.2-13.3-8.5-16.3-18.5-18.2l-1.3-0.3
			c-1.1-0.2-1.8-1.3-1.6-2.4c0.2-1.1,1.3-1.8,2.4-1.6l1.3,0.2c7.6,1.5,23.3,4.5,21.7,22.5C419.2,151.7,418.3,152.5,417.3,152.5z"/>
	</g>
	<g>
		<path d="M395.9,131.9c-0.1,0-0.1,0-0.2,0c-11.2-1.2-18.6-5-22-11.4c-6.5-11.9,2.4-29.3,8.3-40.9c1.9-3.6,3.6-7,3.8-8.5
			c0.2-1.1,1.2-1.8,2.3-1.6c1.1,0.2,1.8,1.2,1.6,2.3c-0.3,2.1-2,5.2-4.2,9.7c-5.5,10.8-13.9,27-8.4,37.1c2.8,5.1,9.2,8.3,18.9,9.3
			c1.1,0.1,1.9,1.1,1.8,2.2C397.8,131.1,396.9,131.9,395.9,131.9z"/>
	</g>
	<g>
		<path d="M411.1,116.3C411.1,116.3,411.1,116.3,411.1,116.3c-12.9-0.3-19.2-1.9-22.6-5.6c-3.5-3.9-3.2-9.4-2.7-17.1
			c0.4-5.8,0.9-12.9-0.1-21.8c-0.1-1.1,0.7-2.1,1.8-2.2c1.1-0.1,2.1,0.7,2.2,1.8c1,9.2,0.5,16.6,0.1,22.5
			c-0.5,6.9-0.8,11.5,1.6,14.2c2.5,2.7,8.4,4,19.7,4.3c1.1,0,2,0.9,1.9,2.1C413.1,115.4,412.2,116.3,411.1,116.3z"/>
	</g>
	<g>
		<path d="M446.3,147c-0.2,0-0.3,0-0.5-0.1c-1.1-0.3-1.7-1.4-1.5-2.4c2.2-8.9,1.5-15.7-2.1-20.2c-6-7.5-19.1-8.3-31.1-8.1
			c0,0,0,0,0,0c-1.1,0-2-0.9-2-2c0-1.1,0.9-2,2-2c13-0.2,27.2,0.7,34.3,9.6c4.4,5.5,5.3,13.5,2.8,23.6
			C448,146.4,447.1,147,446.3,147z"/>
	</g>
	<g>
		<path d="M445.5,182c-0.8,0-1.6-0.5-1.9-1.3c-5.5-15.7-4-30.9,4-41.7c7.2-9.7,19.1-15,32.6-14.5c1.1,0,2,1,1.9,2.1
			c0,1.1-0.9,2-2.1,1.9c-12.2-0.5-22.8,4.2-29.2,12.9c-7.2,9.7-8.4,23.5-3.4,38c0.4,1-0.2,2.2-1.2,2.5
			C445.9,182,445.7,182,445.5,182z"/>
	</g>
	<g>
		<path d="M514.8,129.5c-9.9,0-21.5-0.4-34.8-1c-1.1-0.1-2-1-1.9-2.1c0-1.1,1-2,2.1-1.9c46.5,2.1,71.7,1.4,80.4-8.4
			c3.5-3.9,4.5-9.5,3.2-17.6c-0.2-1.1,0.6-2.1,1.7-2.3c1.1-0.2,2.1,0.6,2.3,1.7c1.5,9.4,0.2,16.1-4.2,20.9
			C556.5,126.8,541.3,129.5,514.8,129.5z"/>
	</g>
	<g>
		<path d="M565.8,100.2c-0.9,0-1.7-0.6-1.9-1.5c-6.6-25.9-1.7-44.7,12.7-49.2c1.1-0.3,2.2,0.3,2.5,1.3c0.3,1.1-0.3,2.2-1.3,2.5
			c-12.2,3.8-16,20.8-10,44.4c0.3,1.1-0.4,2.2-1.4,2.4C566.2,100.1,566,100.2,565.8,100.2z"/>
	</g>
	<g>
		<path d="M451.8,139.1c-0.1,0-0.3,0-0.4,0c-1.1-0.2-1.8-1.3-1.6-2.4c3.7-18.4,11.3-28.4,46.7-48.5c1-0.5,2.2-0.2,2.7,0.8
			c0.5,1,0.2,2.2-0.8,2.7c-36.2,20.4-41.6,30.1-44.7,45.8C453.6,138.5,452.7,139.1,451.8,139.1z"/>
	</g>
	<g>
		<path d="M497.5,92c-0.6,0-1.2-0.3-1.6-0.8c-0.7-0.9-0.5-2.1,0.4-2.8c12.3-9.5,8.8-26.9,5.7-36.5c-0.3-1,0.2-2.2,1.3-2.5
			c1.1-0.3,2.2,0.2,2.5,1.3c3.5,10.5,7.2,29.9-7,40.9C498.4,91.9,497.9,92,497.5,92z"/>
	</g>
	<g>
		<path d="M503.8,53.3c-0.8,0-1.5-0.5-1.8-1.2c-1.9-4.7-3-17.2-2.7-25.4c0-1.1,1-2,2.1-1.9c1.1,0,2,1,1.9,2.1
			c-0.4,8.2,0.8,19.9,2.3,23.6c0.4,1-0.1,2.2-1.1,2.6C504.3,53.3,504.1,53.3,503.8,53.3z"/>
	</g>
	<g>
		<path d="M519.5,60.3c-1,0-1.8-0.7-2-1.7c-0.8-5.7-4.1-9.8-8-14.6c-3.5-4.4-7.6-9.4-10.1-16.5c-0.4-1,0.2-2.2,1.2-2.6
			c1-0.4,2.2,0.2,2.6,1.2c2.3,6.4,6,11,9.5,15.4c4,5,7.8,9.8,8.8,16.5c0.2,1.1-0.6,2.1-1.7,2.3C519.7,60.3,519.6,60.3,519.5,60.3z"
			/>
	</g>
	<g>
		<path d="M491.7,129c-0.7,0-1.3-0.3-1.7-0.9c-0.6-0.9-0.3-2.2,0.6-2.8c23.4-14.5,30.4-43.9,26.9-66.6c-0.2-1.1,0.6-2.1,1.7-2.3
			c1.1-0.2,2.1,0.6,2.3,1.7c3.6,24-3.8,55.2-28.8,70.6C492.4,128.9,492,129,491.7,129z"/>
	</g>
	<g>
		<path d="M547.5,147.6c-1.9,0-3.9-0.1-5.9-0.3c-1.1-0.1-1.9-1.1-1.8-2.2c0.1-1.1,1.1-1.9,2.2-1.8c15.2,1.4,27.6-2.7,34.1-11.2
			c5.9-7.7,6.6-18.4,2-31.1c-0.4-1,0.2-2.2,1.2-2.6c1-0.4,2.2,0.2,2.6,1.2c6.4,17.7,2.1,28.8-2.6,34.9
			C572.7,143,561.4,147.6,547.5,147.6z"/>
	</g>
	<g>
		<path d="M580,102.4c-0.7,0-1.4-0.4-1.8-1.1c-5.4-10.1-13.5-37-2.7-51.2c0.7-0.9,1.9-1,2.8-0.4c0.9,0.7,1,1.9,0.4,2.8
			c-8.4,10.9-3.5,34.6,3,46.9c0.5,1,0.2,2.2-0.8,2.7C580.6,102.3,580.3,102.4,580,102.4z"/>
	</g>
	<g>
		<path d="M507.8,216.5c-0.6,0-1.1-0.2-1.5-0.7c-9.6-11.3-25.4-37.5-16.3-55.6c6.4-12.9,23.9-18.5,51.9-16.9c1.1,0.1,1.9,1,1.9,2.1
			c-0.1,1.1-1,1.9-2.1,1.9c-26.3-1.6-42.4,3.3-48.1,14.6c-7.5,15,5.4,38.8,15.8,51.2c0.7,0.8,0.6,2.1-0.2,2.8
			C508.8,216.3,508.3,216.5,507.8,216.5z"/>
	</g>
	<g>
		<path d="M505.3,244.8c-1,0-1.9-0.8-2-1.9c-1.7-27.4,7.4-51,24.9-64.8c14.4-11.4,32.5-14.6,51-8.9c1.1,0.3,1.7,1.4,1.3,2.5
			c-0.3,1.1-1.4,1.7-2.5,1.3c-17.2-5.2-34.1-2.3-47.4,8.2c-16.4,13-24.9,35.3-23.4,61.4c0.1,1.1-0.8,2.1-1.9,2.1
			C505.4,244.8,505.4,244.8,505.3,244.8z"/>
	</g>
	<g>
		<path d="M517.6,194.6c-0.6,0-1.3-0.3-1.7-0.9c-5-7.4-8.5-15.3-11.7-22.3c-3.1-6.9-6.1-13.5-8.6-14.6c-1-0.5-1.5-1.6-1-2.6
			c0.5-1,1.6-1.5,2.6-1c3.9,1.8,6.7,8,10.6,16.6c3.1,6.8,6.6,14.6,11.4,21.7c0.6,0.9,0.4,2.2-0.5,2.8
			C518.4,194.5,518,194.6,517.6,194.6z"/>
	</g>
	<g>
		<path d="M584.7,173.8c-2.3,0-4.5-0.2-6.5-0.7c-1.1-0.2-1.7-1.3-1.5-2.4c0.2-1.1,1.3-1.7,2.4-1.5c8.8,2,21.4-0.9,28.4-10.3
			c8.8-11.9,6.4-31.1-6.8-54c-0.6-1-0.2-2.2,0.7-2.7c1-0.6,2.2-0.2,2.7,0.7c18,31.2,13.5,49,6.5,58.4
			C604.3,170,593.8,173.8,584.7,173.8z"/>
	</g>
	<g>
		<path d="M620.7,168.4c-0.3,0-0.7-0.1-1-0.3c-1-0.6-1.3-1.8-0.7-2.7c5.4-9.1,6.7-21.4,3.5-32.9c-3.2-11.7-10.7-21.2-21-26.8
			c-1-0.5-1.3-1.7-0.8-2.7c0.5-1,1.7-1.3,2.7-0.8c11.3,6.1,19.5,16.5,23,29.3c3.5,12.5,2,26-4,36C622.1,168,621.4,168.4,620.7,168.4
			z"/>
	</g>
	<g>
		<path d="M560.5,200.9c-1,0-1.8-0.7-2-1.7c-0.2-1.1,0.6-2.1,1.7-2.3c25.6-4.1,50.1-19.3,58.9-31.7c0.6-0.9,1.9-1.1,2.8-0.5
			c0.9,0.6,1.1,1.9,0.5,2.8c-9.3,13.1-34.9,29.1-61.6,33.3C560.7,200.9,560.6,200.9,560.5,200.9z"/>
	</g>
	<g>
		<path d="M540,233.5c-1,0-1.8-0.7-2-1.7c-2.8-18.9,5.7-32.3,22.2-34.9c1.1-0.2,2.1,0.6,2.3,1.7c0.2,1.1-0.6,2.1-1.7,2.3
			c-14.3,2.3-21.3,13.6-18.8,30.4c0.2,1.1-0.6,2.1-1.7,2.3C540.2,233.5,540.1,233.5,540,233.5z"/>
	</g>
	<g>
		<path d="M531,254.1c-0.1,0-0.3,0-0.4,0c-1.1-0.2-1.8-1.3-1.6-2.4c4.7-23.1,31-51.8,57.9-54c1.1-0.1,2.1,0.7,2.2,1.8
			c0.1,1.1-0.7,2.1-1.8,2.2c-25.3,2.1-50,29-54.3,50.8C532.8,253.5,531.9,254.1,531,254.1z"/>
	</g>
	<g>
		<path d="M587.1,201.8c-1.1,0-1.9-0.8-2-1.9c-0.1-1.1,0.8-2,1.9-2.1c29.8-1.7,46-16.4,45.6-41.3c0-1.1,0.9-2,2-2c0,0,0,0,0,0
			c1.1,0,2,0.9,2,2c0.3,15.9-5.8,42.9-49.4,45.4C587.2,201.7,587.2,201.8,587.1,201.8z"/>
	</g>
	<g>
		<path d="M573.5,246.7c-1.1,0-2-0.9-2-2c0-17.2,13.1-31.2,29.3-31.2c1.1,0,2,0.9,2,2s-0.9,2-2,2c-13.9,0-25.3,12.2-25.3,27.2
			C575.5,245.9,574.6,246.7,573.5,246.7z"/>
	</g>
	<g>
		<path d="M600.7,217.5c-0.9,0-1.8-0.7-2-1.6c-0.2-1.1,0.5-2.1,1.6-2.3c14.3-2.8,24.4-8.6,29.8-17.1c6-9.4,6.8-22.4,2.5-39.6
			c-0.3-1.1,0.4-2.2,1.5-2.4c1.1-0.3,2.2,0.4,2.4,1.5c4.6,18.4,3.6,32.3-3,42.7c-6,9.5-16.9,15.8-32.4,18.9
			C601,217.5,600.9,217.5,600.7,217.5z"/>
	</g>
	<g>
		<path d="M517.9,268.1c-0.8,0-1.6-0.5-1.9-1.3c-0.4-1,0.1-2.2,1.1-2.6c6-2.3,11.1-8.5,11.9-12.5c0.2-1.1,1.3-1.8,2.3-1.6
			c1.1,0.2,1.8,1.3,1.6,2.3c-1.2,5.9-7.6,12.8-14.3,15.4C518.4,268,518.1,268.1,517.9,268.1z"/>
	</g>
</g>
</svg>
