<?xml version="1.0" encoding="utf-8"?>
<!-- Generator: Adobe Illustrator 22.1.0, SVG Export Plug-In . SVG Version: 6.00 Build 0)  -->
<svg version="1.1" id="Layer_1" xmlns="http://www.w3.org/2000/svg" xmlns:xlink="http://www.w3.org/1999/xlink" x="0px" y="0px"
	 viewBox="0 0 1529 198" enable-background="new 0 0 1529 198" xml:space="preserve">
<g>
	<g>
		<path fill="#FFFFFF" d="M20,111.3c-3.6-11.8-0.7-25.2,8.7-34.6c13.5-13.5,35.5-13.5,49,0s13.5,35.5,0,49s-35.5,13.5-49,0
			c-1-1-1.9-2-2.7-3"/>
		<path d="M53.2,137.9c-9.4,0-18.8-3.6-25.9-10.7c-1-1-2-2.1-2.8-3.2c-0.7-0.9-0.5-2.1,0.3-2.8c0.9-0.7,2.1-0.5,2.8,0.3
			c0.8,1,1.6,2,2.5,2.9c12.7,12.7,33.5,12.7,46.2,0c6.2-6.2,9.6-14.4,9.6-23.1c0-8.7-3.4-16.9-9.6-23.1c-12.7-12.7-33.5-12.7-46.2,0
			c-8.5,8.5-11.7,21-8.2,32.6c0.3,1.1-0.3,2.2-1.3,2.5c-1.1,0.3-2.2-0.3-2.5-1.3c-3.9-13-0.4-27,9.2-36.6C41.6,61,64.8,61,79.1,75.3
			c6.9,6.9,10.7,16.1,10.7,25.9c0,9.8-3.8,19-10.7,25.9C72,134.3,62.6,137.9,53.2,137.9z"/>
	</g>
	<g>
		<path d="M171.3,80.6H79.4c-1.1,0-2-0.9-2-2s0.9-2,2-2h91.9c1.1,0,2,0.9,2,2S172.4,80.6,171.3,80.6z"/>
	</g>
	<g>
		<path d="M171.3,124.9h-91c-1.1,0-2-0.9-2-2s0.9-2,2-2h91c1.1,0,2,0.9,2,2S172.4,124.9,171.3,124.9z"/>
	</g>
	<g>
		<path d="M185.3,186.6c-4.7,0-15.3-2.3-16-22.6c0-1.1,0.8-2,1.9-2.1c1.1,0,2,0.8,2.1,1.9c0.4,12.1,4.7,18.8,12,18.8
			c0,0,0.1,0,0.1,0c6.6,0,13.4-5.6,13.5-8.6c0-1.8-3.8-2.1-5-2.2c-1.1-0.1-2-1-1.9-2.1c0.1-1.1,1-1.9,2.1-1.9
			c8.1,0.4,8.9,4.5,8.8,6.3C202.7,180,193.6,186.6,185.3,186.6C185.3,186.6,185.3,186.6,185.3,186.6z"/>
	</g>
	<g>
		<path d="M171.3,40C171.3,40,171.2,40,171.3,40c-1.2,0-2-1-2-2.1c0.7-20.4,11.3-22.6,16-22.6c0,0,0.1,0,0.1,0
			c8.2,0.1,17.4,6.6,17.5,12.5c0,1.8-0.8,5.9-8.8,6.3c-1.1,0-2-0.8-2.1-1.9c-0.1-1.1,0.8-2,1.9-2.1c1.2-0.1,5.1-0.4,5-2.2
			c-0.1-3.1-6.9-8.6-13.5-8.6c0,0-0.1,0-0.1,0c-7.3,0-11.5,6.7-12,18.8C173.2,39.1,172.4,40,171.3,40z"/>
	</g>
	<g>
		<path fill="none" stroke="#000000" stroke-width="4" stroke-linecap="round" stroke-miterlimit="10" d="M193.1,32.9"/>
	</g>
	<g>
		<path fill="none" stroke="#000000" stroke-width="4" stroke-linecap="round" stroke-miterlimit="10" d="M205.1,20.7"/>
	</g>
	<g>
		<path d="M190.4,75.1c-0.5,0-1.1-0.2-1.5-0.6c-8.2-8.8-11.6-26.6-6.9-36.8c2.4-5.2,6.7-7.9,12-7.6c1.1,0.1,2,1,1.9,2.1
			c-0.1,1.1-1,2-2.1,1.9c-3.7-0.2-6.5,1.6-8.2,5.3c-4,8.7-1,24.7,6.2,32.4c0.8,0.8,0.7,2.1-0.1,2.8
			C191.4,74.9,190.9,75.1,190.4,75.1z"/>
	</g>
	<g>
		<path d="M193.3,171.8c-5,0-9-2.7-11.3-7.6c-4.7-10.1-1.3-28,6.9-36.8c0.8-0.8,2-0.8,2.8-0.1c0.8,0.8,0.8,2,0.1,2.8
			c-7.1,7.6-10.2,23.6-6.2,32.3c1.7,3.7,4.5,5.5,8.2,5.3c1.1,0,2,0.8,2.1,1.9c0.1,1.1-0.8,2-1.9,2.1
			C193.8,171.8,193.5,171.8,193.3,171.8z"/>
	</g>
	<g>
		<path d="M190.4,130.8c-0.5,0-1-0.2-1.4-0.6c-0.8-0.8-0.8-2,0-2.8c14.6-14.6,14.6-38.3,0-52.9c-0.8-0.8-0.8-2,0-2.8
			c0.8-0.8,2-0.8,2.8,0c16.1,16.1,16.1,42.4,0,58.6C191.4,130.6,190.9,130.8,190.4,130.8z"/>
	</g>
	<g>
		<path d="M171.3,165.9c-1.1,0-2-0.9-2-2V115c-0.5-2.5-6.3-10.2-12.2-12.1c-0.8-0.3-1.4-1-1.4-1.9s0.6-1.6,1.4-1.9
			c5.9-1.9,11.7-9.6,12.2-12.1V37.6c0-1.1,0.9-2,2-2s2,0.9,2,2v49.6c0,0.1,0,0.2,0,0.3c-0.5,3.4-5.4,10-11,13.6
			c5.7,3.6,10.5,10.1,11,13.6c0,0.1,0,0.2,0,0.3v49.1C173.3,165,172.4,165.9,171.3,165.9z"/>
	</g>
	<g>
		<path d="M483.4,155.3H181.9c-1.1,0-2-0.9-2-2s0.9-2,2-2h301.5c1.1,0,2,0.9,2,2S484.5,155.3,483.4,155.3z"/>
	</g>
	<g>
		<path d="M483.4,53.4H240.8c-1.1,0-2-0.9-2-2s0.9-2,2-2h242.6c1.1,0,2,0.9,2,2S484.5,53.4,483.4,53.4z"/>
	</g>
	<g>
		<path d="M208.1,53.4h-26.2c-1.1,0-2-0.9-2-2s0.9-2,2-2h26.2c1.1,0,2,0.9,2,2S209.2,53.4,208.1,53.4z"/>
	</g>
	<g>
		<path d="M585.8,104.3c-0.3,0-0.6-0.1-0.9-0.2l-102.5-51c-1-0.5-1.4-1.7-0.9-2.7c0.5-1,1.7-1.4,2.7-0.9l102.5,51
			c1,0.5,1.4,1.7,0.9,2.7C587.3,103.9,586.6,104.3,585.8,104.3z"/>
	</g>
	<g>
		<path d="M483.4,155.3c-0.7,0-1.4-0.4-1.8-1.1c-0.5-1-0.1-2.2,0.9-2.7l102.5-51c1-0.5,2.2-0.1,2.7,0.9c0.5,1,0.1,2.2-0.9,2.7
			l-102.5,51C484,155.3,483.7,155.3,483.4,155.3z"/>
	</g>
	<g>
		<path d="M340.3,102.9H218.2c-1.1,0-2-0.9-2-2c0-1.1,0.9-2,2-2h122.1c1.1,0,2,0.9,2,2C342.3,102,341.4,102.9,340.3,102.9z"/>
	</g>
	<g>
		<path d="M370.2,102.9h-17.8c-1.1,0-2-0.9-2-2c0-1.1,0.9-2,2-2h17.8c1.1,0,2,0.9,2,2C372.2,102,371.3,102.9,370.2,102.9z"/>
	</g>
	<g>
		<path d="M379.6,102.9c-0.5,0-1-0.2-1.4-0.6c-0.8-0.8-0.8-2.1,0-2.8c0.8-0.8,2-0.8,2.8,0l0,0c0.8,0.8,0.8,2,0,2.8
			C380.7,102.8,380.2,102.9,379.6,102.9z"/>
	</g>
	<g>
		<path d="M218.3,53.4h-2.9c-1.1,0-2-0.9-2-2s0.9-2,2-2h2.9c1.1,0,2,0.9,2,2S219.4,53.4,218.3,53.4z"/>
	</g>
	<g>
		<path d="M225,53.4c-0.5,0-1-0.2-1.4-0.6c-0.8-0.8-0.8-2.1,0-2.8c0.8-0.8,2-0.8,2.8,0l0,0c0.8,0.8,0.8,2,0,2.8
			C226.1,53.2,225.6,53.4,225,53.4z"/>
	</g>
	<g>
		<path d="M21.9,118.1c-0.5,0-1-0.2-1.4-0.6c-0.8-0.8-0.8-2.1,0-2.8c0.8-0.8,2-0.8,2.8,0l0,0c0.8,0.8,0.8,2,0,2.8
			C22.9,117.9,22.4,118.1,21.9,118.1z"/>
	</g>
	<g>
		<polygon fill="#FFFFFF" points="191.9,105.3 191.9,96.6 184.4,92.3 176.9,96.6 176.9,105.3 184.4,109.6 		"/>
		<path d="M184.4,111.6c-0.3,0-0.7-0.1-1-0.3l-7.5-4.3c-0.6-0.4-1-1-1-1.7v-8.7c0-0.7,0.4-1.4,1-1.7l7.5-4.3c0.6-0.4,1.4-0.4,2,0
			l7.5,4.3c0.6,0.4,1,1,1,1.7v8.7c0,0.7-0.4,1.4-1,1.7l-7.5,4.3C185.1,111.5,184.7,111.6,184.4,111.6z M178.9,104.1l5.5,3.2l5.5-3.2
			v-6.3l-5.5-3.2l-5.5,3.2V104.1z M191.9,105.3L191.9,105.3L191.9,105.3z"/>
	</g>
</g>
<g>
	<path fill="#FFFFFF" d="M1503.1,90.6c3.6,11.8,0.7,25.2-8.7,34.6c-13.5,13.5-35.5,13.5-49,0c-13.5-13.5-13.5-35.5,0-49
		c13.5-13.5,35.5-13.5,49,0c1,1,1.9,2,2.7,3"/>
	<path d="M1469.9,137.3c-9.8,0-19-3.8-25.9-10.7c-6.9-6.9-10.7-16.1-10.7-25.9c0-9.8,3.8-19,10.7-25.9c6.9-6.9,16.1-10.7,25.9-10.7
		c9.8,0,19,3.8,25.9,10.7c1,1,2,2.1,2.8,3.2c0.7,0.9,0.5,2.1-0.3,2.8c-0.9,0.7-2.1,0.5-2.8-0.3c-0.8-1-1.6-1.9-2.5-2.9
		c-6.2-6.2-14.4-9.6-23.1-9.6c-8.7,0-16.9,3.4-23.1,9.6s-9.6,14.4-9.6,23.1s3.4,16.9,9.6,23.1s14.4,9.6,23.1,9.6
		c8.7,0,16.9-3.4,23.1-9.6c8.5-8.5,11.7-21,8.2-32.6c-0.3-1.1,0.3-2.2,1.3-2.5c1.1-0.3,2.2,0.3,2.5,1.3c3.9,13,0.4,27-9.2,36.6
		C1488.9,133.5,1479.7,137.3,1469.9,137.3z"/>
</g>
<g>
	<path d="M1443.7,125.3h-91.9c-1.1,0-2-0.9-2-2s0.9-2,2-2h91.9c1.1,0,2,0.9,2,2S1444.8,125.3,1443.7,125.3z"/>
</g>
<g>
	<path d="M1442.9,81h-91c-1.1,0-2-0.9-2-2s0.9-2,2-2h91c1.1,0,2,0.9,2,2S1444,81,1442.9,81z"/>
</g>
<g>
	<path d="M1351.9,39.9c-1.1,0-2-0.9-2-1.9c-0.4-12.1-4.7-18.8-12-18.8c0,0-0.1,0-0.1,0c-6.6,0-13.4,5.6-13.5,8.6
		c0,1.8,3.8,2.1,5,2.2c1.1,0.1,2,1,1.9,2.1c-0.1,1.1-1,1.9-2.1,1.9c-8.1-0.4-8.9-4.5-8.8-6.3c0.1-5.9,9.3-12.5,17.5-12.5
		c0,0,0.1,0,0.1,0c4.6,0,15.3,2.3,16,22.6C1353.9,39,1353,39.9,1351.9,39.9C1351.9,39.9,1351.9,39.9,1351.9,39.9z"/>
</g>
<g>
	<path d="M1337.9,186.6C1337.8,186.6,1337.8,186.6,1337.9,186.6c-8.3-0.1-17.5-6.6-17.6-12.5c0-1.8,0.8-5.9,8.8-6.3
		c1.1,0,2,0.8,2.1,1.9c0.1,1.1-0.8,2-1.9,2.1c-1.2,0.1-5.1,0.4-5,2.2c0.1,3.1,6.9,8.6,13.5,8.6c0,0,0.1,0,0.1,0
		c7.3,0,11.6-6.7,12-18.8c0-1.1,1-2,2.1-1.9c1.1,0,2,1,1.9,2.1C1353.1,184.4,1342.5,186.6,1337.9,186.6z"/>
</g>
<g>
	<path fill="none" stroke="#000000" stroke-width="4" stroke-linecap="round" stroke-miterlimit="10" d="M1330,168.9"/>
</g>
<g>
	<path fill="none" stroke="#000000" stroke-width="4" stroke-linecap="round" stroke-miterlimit="10" d="M1318,181.1"/>
</g>
<g>
	<path d="M1329.8,171.8c-0.2,0-0.5,0-0.7,0c-1.1-0.1-2-1-1.9-2.1c0.1-1.1,1-1.9,2.1-1.9c3.7,0.2,6.5-1.6,8.2-5.3
		c4-8.7,1-24.7-6.2-32.4c-0.8-0.8-0.7-2.1,0.1-2.8c0.8-0.8,2.1-0.7,2.8,0.1c8.2,8.8,11.6,26.6,6.9,36.8
		C1338.8,169.2,1334.8,171.8,1329.8,171.8z"/>
</g>
<g>
	<path d="M1332.8,75.1c-0.5,0-1-0.2-1.4-0.5c-0.8-0.8-0.8-2-0.1-2.8c7.1-7.6,10.2-23.6,6.2-32.4c-1.7-3.7-4.5-5.5-8.2-5.3
		c-1.1,0.1-2-0.8-2.1-1.9c-0.1-1.1,0.8-2,1.9-2.1c5.4-0.3,9.6,2.5,12,7.6c4.7,10.1,1.3,28-6.9,36.8
		C1333.8,74.9,1333.3,75.1,1332.8,75.1z"/>
</g>
<g>
	<path d="M1332.8,130.8c-0.5,0-1-0.2-1.4-0.6c-16.1-16.1-16.1-42.4,0-58.6c0.8-0.8,2-0.8,2.8,0c0.8,0.8,0.8,2,0,2.8
		c-14.6,14.6-14.6,38.3,0,52.9c0.8,0.8,0.8,2,0,2.8C1333.8,130.6,1333.3,130.8,1332.8,130.8z"/>
</g>
<g>
	<path d="M1351.9,166.3c-1.1,0-2-0.9-2-2v-49.6c0-0.1,0-0.2,0-0.3c0.5-3.4,5.4-10,11-13.6c-5.7-3.6-10.5-10.1-11-13.6
		c0-0.1,0-0.2,0-0.3V37.9c0-1.1,0.9-2,2-2s2,0.9,2,2v48.9c0.5,2.5,6.3,10.2,12.2,12.1c0.8,0.3,1.4,1,1.4,1.9s-0.6,1.6-1.4,1.9
		c-5.9,1.9-11.7,9.6-12.2,12.1v49.4C1353.9,165.4,1353,166.3,1351.9,166.3z"/>
</g>
<g>
	<path d="M1341.3,50.5h-301.5c-1.1,0-2-0.9-2-2s0.9-2,2-2h301.5c1.1,0,2,0.9,2,2S1342.4,50.5,1341.3,50.5z"/>
</g>
<g>
	<path d="M1282.4,152.5h-242.6c-1.1,0-2-0.9-2-2s0.9-2,2-2h242.6c1.1,0,2,0.9,2,2S1283.5,152.5,1282.4,152.5z"/>
</g>
<g>
	<path d="M1341.3,152.5h-26.2c-1.1,0-2-0.9-2-2s0.9-2,2-2h26.2c1.1,0,2,0.9,2,2S1342.4,152.5,1341.3,152.5z"/>
</g>
<g>
	<path d="M1039.8,152.5c-0.3,0-0.6-0.1-0.9-0.2l-102.5-51c-1-0.5-1.4-1.7-0.9-2.7c0.5-1,1.7-1.4,2.7-0.9l102.5,51
		c1,0.5,1.4,1.7,0.9,2.7C1041.2,152.1,1040.5,152.5,1039.8,152.5z"/>
</g>
<g>
	<path d="M937.3,101.5c-0.7,0-1.4-0.4-1.8-1.1c-0.5-1-0.1-2.2,0.9-2.7l102.5-51c1-0.5,2.2-0.1,2.7,0.9c0.5,1,0.1,2.2-0.9,2.7
		l-102.5,51C937.9,101.5,937.6,101.5,937.3,101.5z"/>
</g>
<g>
	<path d="M1304.9,102.9h-122.1c-1.1,0-2-0.9-2-2s0.9-2,2-2h122.1c1.1,0,2,0.9,2,2S1306,102.9,1304.9,102.9z"/>
</g>
<g>
	<path d="M1170.7,102.9h-17.8c-1.1,0-2-0.9-2-2s0.9-2,2-2h17.8c1.1,0,2,0.9,2,2S1171.8,102.9,1170.7,102.9z"/>
</g>
<g>
	<path d="M1143.5,102.9c-0.5,0-0.9-0.2-1.3-0.5l0,0c-0.8-0.7-0.9-2-0.2-2.8s2-0.9,2.8-0.2c0.8,0.7,0.9,2,0.2,2.8
		C1144.6,102.7,1144.1,102.9,1143.5,102.9z"/>
</g>
<g>
	<path d="M1307.7,152.5h-2.9c-1.1,0-2-0.9-2-2s0.9-2,2-2h2.9c1.1,0,2,0.9,2,2S1308.8,152.5,1307.7,152.5z"/>
</g>
<g>
	<path d="M1298.1,152.5c-0.5,0-0.9-0.2-1.3-0.5l0,0c-0.8-0.7-0.9-2-0.2-2.8c0.7-0.8,2-0.9,2.8-0.2c0.8,0.7,0.9,2,0.2,2.8
		C1299.2,152.3,1298.7,152.5,1298.1,152.5z"/>
</g>
<g>
	<path d="M1501.2,87.8c-0.5,0-1-0.2-1.4-0.6l0,0c-0.8-0.8-0.8-2,0-2.8c0.8-0.8,2-0.8,2.8,0c0.8,0.8,0.8,2.1,0,2.8
		C1502.2,87.6,1501.7,87.8,1501.2,87.8z"/>
</g>
<g>
	<polygon fill="#FFFFFF" points="1331.2,96.6 1331.2,105.3 1338.7,109.6 1346.2,105.3 1346.2,96.6 1338.7,92.3 	"/>
	<path d="M1338.7,111.6c-0.3,0-0.7-0.1-1-0.3l-7.5-4.3c-0.6-0.4-1-1-1-1.7v-8.7c0-0.7,0.4-1.4,1-1.7l7.5-4.3c0.6-0.4,1.4-0.4,2,0
		l7.5,4.3c0.6,0.4,1,1,1,1.7v8.7c0,0.7-0.4,1.4-1,1.7l-7.5,4.3C1339.4,111.5,1339.1,111.6,1338.7,111.6z M1333.2,104.1l5.5,3.2
		l5.5-3.2v-6.3l-5.5-3.2l-5.5,3.2V104.1z"/>
</g>
<g>
	<path d="M666.3,163.1c-9.9-3.9-17.5-8.9-22.8-15.1l3.9-5.2c5,5.8,12.1,10.5,21.1,14.2c9,3.7,18.6,5.5,28.8,5.5
		c15.1,0,26.5-3,34.3-9c7.7-6,11.6-13.6,11.6-23c0-7.2-2-13-6.1-17.4c-4-4.4-9-7.7-14.9-9.9c-5.9-2.2-14-4.6-24.2-7
		c-10.9-2.7-19.7-5.4-26.4-8c-6.6-2.6-12.2-6.6-16.9-11.9c-4.6-5.3-6.9-12.5-6.9-21.4c0-7.1,1.9-13.5,5.6-19.4
		c3.7-5.9,9.5-10.6,17.2-14.2c7.7-3.5,17.3-5.3,28.8-5.3c8.2,0,16.3,1.2,24.3,3.7c8,2.5,14.8,5.8,20.4,10.2l-3.2,5.8
		c-5.9-4.3-12.5-7.6-19.8-9.8c-7.3-2.2-14.4-3.3-21.5-3.3c-14.7,0-25.8,3.1-33.4,9.2c-7.6,6.1-11.3,13.9-11.3,23.2
		c0,7.3,2.1,13.2,6.2,17.6c4.1,4.4,9.1,7.7,15.1,10c6,2.3,14,4.7,24.1,7.1c10.9,2.7,19.7,5.4,26.4,7.9c6.6,2.5,12.2,6.4,16.7,11.7
		c4.5,5.3,6.8,12.3,6.8,21.1c0,7.1-1.9,13.5-5.7,19.4c-3.8,5.9-9.7,10.6-17.6,14c-7.9,3.5-17.7,5.2-29.4,5.2
		C686.6,168.9,676.2,167,666.3,163.1z"/>
	<path d="M796.8,163.1c-9.9-3.9-17.5-8.9-22.8-15.1l3.9-5.2c5,5.8,12.1,10.5,21.1,14.2c9,3.7,18.6,5.5,28.8,5.5
		c15.1,0,26.5-3,34.3-9c7.7-6,11.6-13.6,11.6-23c0-7.2-2-13-6.1-17.4c-4-4.4-9-7.7-14.9-9.9c-5.9-2.2-14-4.6-24.2-7
		c-10.9-2.7-19.7-5.4-26.4-8c-6.6-2.6-12.2-6.6-16.9-11.9c-4.6-5.3-6.9-12.5-6.9-21.4c0-7.1,1.9-13.5,5.6-19.4
		c3.7-5.9,9.5-10.6,17.2-14.2c7.7-3.5,17.3-5.3,28.8-5.3c8.2,0,16.3,1.2,24.3,3.7c8,2.5,14.8,5.8,20.4,10.2l-3.2,5.8
		c-5.9-4.3-12.5-7.6-19.8-9.8c-7.3-2.2-14.4-3.3-21.5-3.3c-14.7,0-25.8,3.1-33.4,9.2c-7.6,6.1-11.3,13.9-11.3,23.2
		c0,7.3,2.1,13.2,6.2,17.6c4.1,4.4,9.1,7.7,15.1,10c6,2.3,14,4.7,24.1,7.1c10.9,2.7,19.7,5.4,26.4,7.9c6.6,2.5,12.2,6.4,16.7,11.7
		c4.5,5.3,6.8,12.3,6.8,21.1c0,7.1-1.9,13.5-5.7,19.4c-3.8,5.9-9.7,10.6-17.6,14c-7.9,3.5-17.7,5.2-29.4,5.2
		C817.1,168.9,806.7,167,796.8,163.1z"/>
</g>
</svg>
