<?xml version="1.0" encoding="utf-8"?>
<!-- Generator: Adobe Illustrator 22.1.0, SVG Export Plug-In . SVG Version: 6.00 Build 0)  -->
<svg version="1.1" id="Layer_1" xmlns="http://www.w3.org/2000/svg" xmlns:xlink="http://www.w3.org/1999/xlink" x="0px" y="0px"
	 viewBox="0 0 128 128" style="enable-background:new 0 0 128 128;" xml:space="preserve">
<style type="text/css">
	.st0{fill:#1D1D1B;}
	.st1{fill:none;stroke:#1D1D1B;stroke-width:22;stroke-linecap:round;stroke-miterlimit:10;}
</style>
<g>
	<path class="st0" d="M12.3,126.5c-0.4,0-0.9,0-1.3-0.1c-0.2,0-0.4-0.3-0.4-0.5c0-0.2,0.3-0.4,0.5-0.4c0.4,0,0.8,0.1,1.2,0.1
		c5.5,0,10-4.5,10-10s-4.5-10-10-10c-5.5,0-10,4.5-10,10c0,3.7,2,7.1,5.3,8.8c0.2,0.1,0.3,0.4,0.2,0.6c-0.1,0.2-0.4,0.3-0.6,0.2
		c-3.6-1.9-5.8-5.6-5.8-9.6c0-6,4.9-10.9,10.9-10.9s10.9,4.9,10.9,10.9S18.3,126.5,12.3,126.5z"/>
</g>
<g>
	<path class="st0" d="M13.1,105.6c-0.1,0-0.2,0-0.3-0.1c-0.2-0.2-0.2-0.5,0-0.6l19.6-19.6c0.2-0.2,0.5-0.2,0.6,0
		c0.2,0.2,0.2,0.5,0,0.6l-19.6,19.6C13.3,105.6,13.2,105.6,13.1,105.6z"/>
</g>
<g>
	<path class="st0" d="M22.7,114.9c-0.1,0-0.2,0-0.3-0.1c-0.2-0.2-0.2-0.5,0-0.6l19.4-19.4c0.2-0.2,0.5-0.2,0.6,0
		c0.2,0.2,0.2,0.5,0,0.6L23,114.7C22.9,114.8,22.8,114.9,22.7,114.9z"/>
</g>
<g>
	<path class="st0" d="M55.7,106.7c-1.3,0-3-0.6-5.2-2.6c-0.2-0.2-0.2-0.5,0-0.6c0.2-0.2,0.5-0.2,0.6,0c2.7,2.6,5.2,3.1,6.8,1.4
		c1.5-1.5,1.7-4.2,1-4.9c-0.5-0.5-1.4,0.3-1.8,0.6c-0.2,0.2-0.5,0.2-0.6,0c-0.2-0.2-0.2-0.5,0-0.6c1.7-1.5,2.7-0.9,3-0.6
		c1.2,1.2,0.6,4.5-1.1,6.2C58.1,106,57.1,106.7,55.7,106.7z"/>
</g>
<g>
	<path class="st0" d="M24,77.4c-0.1,0-0.2,0-0.3-0.1c-4.1-4.4-2.4-7.1-1.4-8c1.7-1.7,5-2.2,6.2-1.1c0.3,0.3,1,1.3-0.6,3
		c-0.2,0.2-0.5,0.2-0.6,0c-0.2-0.2-0.2-0.5,0-0.6c0.3-0.4,1.1-1.3,0.6-1.8c-0.7-0.7-3.4-0.4-4.9,1c-1.6,1.6-1.1,4,1.4,6.8
		c0.2,0.2,0.2,0.5,0,0.6C24.2,77.3,24.1,77.4,24,77.4z"/>
</g>
<g>
	<path class="st1" d="M27.6,71.2"/>
</g>
<g>
	<path class="st1" d="M27.5,66.1"/>
</g>
<g>
	<path class="st0" d="M35.5,80.8C35.5,80.8,35.5,80.8,35.5,80.8c-3.6-0.1-8-3.2-9.2-6.3c-0.6-1.5-0.3-3,0.9-4c0.2-0.2,0.5-0.2,0.6,0
		c0.2,0.2,0.2,0.5,0,0.6c-0.9,0.8-1.1,1.8-0.7,3c1,2.8,5.2,5.6,8.3,5.7c0.2,0,0.4,0.2,0.4,0.5C36,80.6,35.8,80.8,35.5,80.8z"/>
</g>
<g>
	<path class="st0" d="M54.7,101.7c-0.5,0-1-0.1-1.5-0.3c-3.1-1.1-6.1-5.6-6.3-9.2c0-0.3,0.2-0.5,0.4-0.5c0.3,0,0.5,0.2,0.5,0.4
		c0.1,3.2,2.9,7.3,5.7,8.3c1.2,0.4,2.2,0.2,3-0.7c0.2-0.2,0.5-0.2,0.6,0c0.2,0.2,0.2,0.5,0,0.6C56.5,101.3,55.7,101.7,54.7,101.7z"
		/>
</g>
<g>
	<path class="st0" d="M47.4,92.7c-0.2,0-0.5-0.2-0.5-0.5c0-6.3-5.1-11.4-11.4-11.4c-0.2,0-0.5-0.2-0.5-0.5s0.2-0.5,0.5-0.5
		c6.8,0,12.3,5.5,12.3,12.3C47.9,92.5,47.7,92.7,47.4,92.7z"/>
</g>
<g>
	<path class="st0" d="M50.8,104.2c-0.1,0-0.2,0-0.3-0.1L40.1,93.6c-0.6-0.4-3.6-0.9-5.3,0c-0.2,0.1-0.4,0.1-0.5-0.1
		c-0.1-0.1-0.2-0.4-0.1-0.5c0.9-1.7,0.5-4.8,0-5.4L23.6,77.2c-0.2-0.2-0.2-0.5,0-0.6c0.2-0.2,0.5-0.2,0.6,0l10.6,10.6
		c0.6,0.8,1.1,3.4,0.5,5.4c2-0.6,4.6-0.1,5.3,0.5l10.5,10.5c0.2,0.2,0.2,0.5,0,0.6C51.1,104.2,50.9,104.2,50.8,104.2z"/>
</g>
<g>
	<path class="st0" d="M50.8,99.7c-0.1,0-0.2,0-0.3-0.1c-0.2-0.2-0.2-0.5,0-0.6l64.2-64.2c0.2-0.2,0.5-0.2,0.6,0
		c0.2,0.2,0.2,0.5,0,0.6L51.1,99.6C51.1,99.7,50.9,99.7,50.8,99.7z"/>
</g>
<g>
	<path class="st0" d="M41.7,65.4c-0.1,0-0.2,0-0.3-0.1c-0.2-0.2-0.2-0.5,0-0.6L93,13c0.2-0.2,0.5-0.2,0.6,0c0.2,0.2,0.2,0.5,0,0.6
		L42,65.3C41.9,65.4,41.8,65.4,41.7,65.4z"/>
</g>
<g>
	<path class="st0" d="M29.1,78c-0.1,0-0.2,0-0.3-0.1c-0.2-0.2-0.2-0.5,0-0.6l5.6-5.6c0.2-0.2,0.5-0.2,0.6,0c0.2,0.2,0.2,0.5,0,0.6
		l-5.6,5.6C29.3,77.9,29.2,78,29.1,78z"/>
</g>
<g>
	<path class="st0" d="M93.3,13.8c-0.2,0-0.4-0.1-0.4-0.3c-0.1-0.2,0-0.5,0.3-0.6l32.7-11c0.2-0.1,0.5,0,0.6,0.3
		c0.1,0.2,0,0.5-0.3,0.6l-32.7,11C93.4,13.8,93.4,13.8,93.3,13.8z"/>
</g>
<g>
	<path class="st0" d="M115,35.5c0,0-0.1,0-0.1,0c-0.2-0.1-0.4-0.3-0.3-0.6l11-32.7c0.1-0.2,0.3-0.4,0.6-0.3c0.2,0.1,0.4,0.3,0.3,0.6
		l-11,32.7C115.4,35.4,115.2,35.5,115,35.5z"/>
</g>
<g>
	<path class="st0" d="M47.4,80.8c-0.1,0-0.2,0-0.3-0.1c-0.2-0.2-0.2-0.5,0-0.6l26-26c0.2-0.2,0.5-0.2,0.6,0c0.2,0.2,0.2,0.5,0,0.6
		l-26,26C47.6,80.8,47.5,80.8,47.4,80.8z"/>
</g>
<g>
	<path class="st0" d="M76,52.2c-0.1,0-0.2,0-0.3-0.1c-0.2-0.2-0.2-0.5,0-0.6l3.8-3.8c0.2-0.2,0.5-0.2,0.6,0c0.2,0.2,0.2,0.5,0,0.6
		l-3.8,3.8C76.2,52.2,76.1,52.2,76,52.2z"/>
</g>
<g>
	<path class="st0" d="M81.8,46.4c-0.3,0-0.5-0.2-0.5-0.5s0.2-0.5,0.5-0.5h0c0.3,0,0.5,0.2,0.5,0.5S82,46.4,81.8,46.4z"/>
</g>
<g>
	<path class="st0" d="M36.3,70.8c-0.1,0-0.2,0-0.3-0.1c-0.2-0.2-0.2-0.5,0-0.6l0.6-0.6c0.2-0.2,0.5-0.2,0.6,0c0.2,0.2,0.2,0.5,0,0.6
		l-0.6,0.6C36.5,70.8,36.4,70.8,36.3,70.8z"/>
</g>
<g>
	<path class="st0" d="M38.3,68.8c-0.2,0-0.5-0.2-0.5-0.5s0.2-0.5,0.5-0.5h0c0.2,0,0.5,0.2,0.5,0.5S38.6,68.8,38.3,68.8z"/>
</g>
<g>
	<path class="st0" d="M8.8,125.8c-0.2,0-0.5-0.2-0.5-0.5s0.2-0.5,0.5-0.5h0c0.2,0,0.5,0.2,0.5,0.5S9.1,125.8,8.8,125.8z"/>
</g>
<g>
	<path class="st0" d="M39.5,90.5c-0.1,0-0.2,0-0.3-0.1l-1.8-1.8c-0.1-0.1-0.2-0.3-0.1-0.4l0.7-2.5c0-0.2,0.2-0.3,0.3-0.3l2.5-0.7
		c0.2,0,0.3,0,0.4,0.1l1.8,1.8c0.1,0.1,0.2,0.3,0.1,0.4l-0.7,2.5c0,0.2-0.2,0.3-0.3,0.3l-2.5,0.7C39.6,90.5,39.6,90.5,39.5,90.5z
		 M38.2,88.1l1.5,1.5l2-0.5l0.5-2l-1.5-1.5l-2,0.5L38.2,88.1z"/>
</g>
</svg>
