<?xml version="1.0" encoding="utf-8"?>
<!-- Generator: Adobe Illustrator 22.1.0, SVG Export Plug-In . SVG Version: 6.00 Build 0)  -->
<svg version="1.1" id="Layer_1" xmlns="http://www.w3.org/2000/svg" xmlns:xlink="http://www.w3.org/1999/xlink" x="0px" y="0px"
	 viewBox="0 0 64 64" enable-background="new 0 0 64 64" xml:space="preserve">
<g id="Layer_3">
	<circle fill="#D4C5AC" cx="32" cy="32" r="32"/>
</g>
<g id="Layer_2_1_">
	
		<path fill="#020203" stroke="#020203" stroke-width="0.256" stroke-linecap="round" stroke-linejoin="round" stroke-miterlimit="10" d="
		M38.2,28c-0.6,0.2-1.3,0.7-1.8,1c-0.8-0.7-1.9-1.2-2.3-1.2C35.1,27.6,37.6,27.8,38.2,28"/>
	
		<path fill="none" stroke="#020203" stroke-width="0.256" stroke-linecap="round" stroke-linejoin="round" stroke-miterlimit="10" d="
		M36.3,38.5c-0.6-0.2,0-1.2,0.6-0.7"/>
	
		<path fill="none" stroke="#020203" stroke-width="0.256" stroke-linecap="round" stroke-linejoin="round" stroke-miterlimit="10" d="
		M27,38.5c0.6-0.2,0-1.2-0.6-0.7"/>
	
		<circle fill="none" stroke="#020203" stroke-width="0.256" stroke-linecap="round" stroke-linejoin="round" stroke-miterlimit="10" cx="31.7" cy="37.6" r="0.3"/>
	
		<path fill="none" stroke="#020203" stroke-width="0.256" stroke-linecap="round" stroke-linejoin="round" stroke-miterlimit="10" d="
		M27.3,40c1.1-0.4,5.8-0.7,8.6-0.1"/>
	
		<path fill="none" stroke="#020203" stroke-width="0.256" stroke-linecap="round" stroke-linejoin="round" stroke-miterlimit="10" d="
		M27.3,40.6c1.1-0.4,5.8-0.7,8.6-0.1"/>
	
		<path fill="none" stroke="#020203" stroke-width="0.256" stroke-linecap="round" stroke-linejoin="round" stroke-miterlimit="10" d="
		M27.3,41c1.1-0.4,5.8-0.7,8.6-0.1"/>
	
		<path fill="#020203" stroke="#020203" stroke-width="0.256" stroke-linecap="round" stroke-linejoin="round" stroke-miterlimit="10" d="
		M27.3,41c2.8,0.6,7.4,0.3,8.6-0.1l0,0c0.1,0,0.2-0.3,0-0.4c0.1-0.3,0.1-0.6,0-0.6c0-0.4,0-0.8,0-0.8c0.5-0.9,1.6-1.5,1.5-2
		c-1.6-1-2.9,0.2-1.9,1.5c-0.5,0.2-1.1,0-1.4-0.4c-0.7,0.7-1.7,0.6-2,0.1c1,0,1-1.8-0.5-1.8c-1.4,0-1.4,1.8-0.5,1.8l0,0
		c-0.3,0.5-1.2,0.6-2-0.1c-0.2,0.4-0.9,0.6-1.4,0.4c1-1.2-0.3-2.5-1.9-1.5c-0.1,0.5,1,1.1,1.5,2c-0.1,0-0.2,0.4-0.2,0.8
		c-0.1,0-0.1,0.3,0,0.6C27.1,40.7,27.2,40.9,27.3,41"/>
	
		<path fill="#020203" stroke="#020203" stroke-width="0.256" stroke-linecap="round" stroke-linejoin="round" stroke-miterlimit="10" d="
		M27.2,36.8c0-0.1,0-0.2,0-0.3c-0.2,0-0.5-0.1-0.6-0.1c0.4-0.3,0.8-1.2,0.9-1.6c-0.2,0.1-0.5,0-0.7-0.1c0.4-0.3,0.9-0.9,1-1.4
		c-0.2,0-0.5,0-0.6-0.1c0.7-0.6,0.8-1.5,1.3-1.7c0.2-0.1,0.7-0.2,0.8-0.3c-2,0.2-3.1-1.1-4.1-2.3c1.4-0.2,1.8-0.7,3.1-0.7
		c0.9,0,1.6,0.5,2.2,1c0-0.3-0.3-0.6-0.6-0.9c0.2-0.2,0.2-0.4,0.2-0.6c-0.1-0.6-1-0.9-2.9-0.9c-5.3,0-6.7-0.6-7.7-2.8
		c-1.1-3,0.7-5.8,3.6-6c-3.6,2-2.5,5.1,0.9,3.5c-1.7,1.8-1.6,3.3-0.7,3.5c1.5-0.1,1.9-2.2,3.2-2.2c-1.5,1.9-0.6,2.9,0.8,3.3
		c-0.3-1.6,0.5-3.1,1.7-3.3c-0.6,0.8-1,2.7-0.2,3.2c0.2-0.8,0.9-1.7,1.7-2c-1.2,1.7-0.3,2.3,0.8,3.5c1.2-1.3,2-1.9,0.8-3.5
		c0.8,0.3,1.5,1.2,1.7,2c0.8-0.5,0.4-2.4-0.2-3.2c1.2,0.1,2.1,1.7,1.7,3.3c1.4-0.4,2.3-1.3,0.8-3.3c1.3,0,1.8,2.1,3.2,2.2
		c0.9-0.2,1-1.7-0.7-3.5c3.5,1.7,4.5-1.5,0.9-3.5c3,0.2,4.8,3,3.6,6c-1,2.2-2.4,2.8-7.7,2.8c-2,0-2.9,0.4-2.9,0.9
		c0,0.4,0.3,0.6,0.8,0.7c1.6,0.2,3.3,2.5,6.1,3.1c0.9,0.2,1,1.3-0.1,1.6c-0.6,0.1-1.2,0-1,0.2c0.5,0.3,0.8,1.4,0.2,1.2
		c-0.9-0.6-3.2-0.8-4.6-0.6c-1.2,0.1-4-1-3.7-3.5c-0.3-0.3-1.5-0.9-2.7-0.5c0.3,0.3,1.1,0,2.4,0.6c-0.3,1.9,1.5,3.2,3,3.7
		c0.1,1.3,0.9,2.6,1.6,3.4"/>
	
		<circle fill="none" stroke="#020203" stroke-width="0.256" stroke-linecap="round" stroke-linejoin="round" stroke-miterlimit="10" cx="34.2" cy="30.5" r="0.6"/>
	
		<circle fill="none" stroke="#020203" stroke-width="0.256" stroke-linecap="round" stroke-linejoin="round" stroke-miterlimit="10" cx="34.2" cy="30.5" r="0.1"/>
	
		<path fill="#020203" stroke="#020203" stroke-width="0.256" stroke-linecap="round" stroke-linejoin="round" stroke-miterlimit="10" d="
		M28.1,49.3c-0.4,2.2,0.4,5,3.1,5.1c3.6,0,3.4-2.9,2.7-4.1c-0.2-0.6-1.1-1-1.1-3.3c0.1-0.9,0.1-1.7-0.5-3.3c0.1,0.3,0,1.3-0.3,2
		c-0.3,0.7-0.3,3.1,0,4.1c0.3,1,0.3,2.4-1,2.3c-2.1-0.2-0.4-4-0.4-6.2c0.1-1.5-0.8-1.9-0.6-3.9c-0.3,0.7-0.6,2.7-0.6,3.7
		C29.1,47.2,28.3,48.1,28.1,49.3z"/>
	
		<path fill="#020203" stroke="#020203" stroke-width="0.256" stroke-linecap="round" stroke-linejoin="round" stroke-miterlimit="10" d="
		M28.1,49.1c-2.2-0.9-1-3.8-1-5.7c0-2.6-2-3-1.8-5.2c-0.5,2.5,0.6,3.6,0.4,5.2c-0.1,1-1,1.8-1,3.7c-0.2,3.9,2.2,4.5,3.4,4.6"/>
	
		<path fill="#020203" stroke="#020203" stroke-width="0.256" stroke-linecap="round" stroke-linejoin="round" stroke-miterlimit="10" d="
		M24.7,46.7c-1.8-1.4-2.7-3.1-2.9-5c-0.5-2.6,1-3,1.5-5.3c0.2-1.1-1.6-3.2-0.9-5.2c0,1.3,2.1,2.6,1.8,4.9c-0.6,4.5,0.3,6.7,1.2,8.4"
		/>
	
		<path fill="#020203" stroke="#020203" stroke-width="0.256" stroke-linecap="round" stroke-linejoin="round" stroke-miterlimit="10" d="
		M21.6,40.7c-3.2-1.8-4.8-7.1-2.7-10.5c0.6-1,0.5-3.6,0.2-4.6c1,0.7,1.7,3.6,1,5.8c-0.3,1-0.5,3.6,0.6,4.2c0.8,0.5,1.5,1.8,1.7,2.9"
		/>
	
		<path fill="#020203" stroke="#020203" stroke-width="0.256" stroke-linecap="round" stroke-linejoin="round" stroke-miterlimit="10" d="
		M18.1,32.7c-2-1.5-3-4.5-2.7-7c0.3-2.7,2.2-3,2.4-7.6c0.6,0.9,0.7,3.2,0.2,4.9c-0.7,2.8-0.4,6.1,1.1,6.9"/>
	
		<path fill="#020203" stroke="#020203" stroke-width="0.256" stroke-linecap="round" stroke-linejoin="round" stroke-miterlimit="10" d="
		M15.4,25c-1.6-2.5-1.8-5.8-0.5-7.4c0.5-0.6,0.9-1.5,0.7-2.3c-0.2-0.8,0-1.5,0.3-1.9c0,0.4,0,1.2,0.4,2c0.3,0.9,0.4,2,0,3.3
		c-0.3,1-0.3,3.1,0.2,4"/>
	
		<path fill="#020203" stroke="#020203" stroke-width="0.256" stroke-linecap="round" stroke-linejoin="round" stroke-miterlimit="10" d="
		M34.3,51.9c2.4-0.3,4.2-3.6,1.7-6.8c-0.7-0.9-0.8-1.2-0.5-3.3c-1.1,0.9-1.2,2.9-0.4,3.9c0.5,0.7,0.5,1.5,0.1,1.8
		c-0.7,0.8-1.4,2-1.4,2.8"/>
	
		<path fill="#020203" stroke="#020203" stroke-width="0.256" stroke-linecap="round" stroke-linejoin="round" stroke-miterlimit="10" d="
		M37,47.3c1.4-0.2,3.3-3.3,2.6-4.5c-0.7-1.1-1.4-2.2-0.7-3.6c0.8-1.7,0.2-3,0-3.2c0,0.9,0,1.6-0.6,2.3c-0.9,0.7-0.9,2.4-0.7,3
		c0.5,1.4,0,3.4-0.9,4.7"/>
	
		<path fill="#020203" stroke="#020203" stroke-width="0.256" stroke-linecap="round" stroke-linejoin="round" stroke-miterlimit="10" d="
		M39.8,44c2.3-0.6,3.1-3,2.9-5.5c-0.1-1.7-1.4-2.7-1.2-5.1c-0.5,0.5-1,1.2-0.9,2.6c0.2,1.4,0.6,1.6,0.4,2.8c0,1.6-0.9,3.1-1.6,3.8"
		/>
	
		<path fill="#020203" stroke="#020203" stroke-width="0.256" stroke-linecap="round" stroke-linejoin="round" stroke-miterlimit="10" d="
		M42.4,37.2c-0.1-1.2,0.2-2.1,0.6-2.9c0.1-0.4,0.2-1.3,0-2c-0.2-0.7,0-1.3,0.2-1.7c0.2-0.4,0.2-1.7,0-2.7c0.5,0.5,1,1.6,1,2.3
		c0.1,0.7-0.1,1.3,0.4,2c0.6,0.5,0.6,0.8,0.6,1.5c0,1.2-0.3,1.9-0.3,2.5c0.1,2.5-1.3,3.1-2.2,3.1"/>
	
		<path fill="#020203" stroke="#020203" stroke-width="0.256" stroke-linecap="round" stroke-linejoin="round" stroke-miterlimit="10" d="
		M45.1,34.8c0.9-1.8,3-2.4,2.8-4.2c0-1.4-0.4-2.8-1.4-3.9c-0.6-1-1.3-2.2-1.1-3.6c-0.4,0.4-0.6,1.5-0.6,2.4c0.1,1.5,0.6,1.9,0.6,3.5
		c0.1,1.3-0.5,2.2-0.9,3"/>
	
		<path fill="#020203" stroke="#020203" stroke-width="0.256" stroke-linecap="round" stroke-linejoin="round" stroke-miterlimit="10" d="
		M46.8,27c-0.2-1-0.1-2.4,0.1-3.1c0.2-0.6,0.1-1.9-0.5-2.4c-0.8-0.7-1.2-2.6-0.5-3.8c0,1.4,1.2,2.3,1.7,3.4c0.7,1.5,1,2.1,1.2,3.9
		c0.2,2-0.3,3.6-1,4.1"/>
	
		<path fill="#020203" stroke="#020203" stroke-width="0.256" stroke-linecap="round" stroke-linejoin="round" stroke-miterlimit="10" d="
		M47.3,20.5c0.2-0.3,0.2-1.2,0.2-1.7c-0.3-1.7,0.1-3.8,0.7-4.3c-0.6,2.4,0.3,2.3,0.7,3.4c1.2,1.7,1.8,5,0.1,7.2"/>
	
		<path fill="none" stroke="#020203" stroke-width="0.256" stroke-linecap="round" stroke-linejoin="round" stroke-miterlimit="10" d="
		M16.5,16.6c8.1-6.3,10.7,0.3,16.1,0.4"/>
	
		<path fill="none" stroke="#020203" stroke-width="0.256" stroke-linecap="round" stroke-linejoin="round" stroke-miterlimit="10" d="
		M47.4,16.6C38.8,11.5,36.9,17,32.7,17"/>
	
		<path fill="#020203" stroke="#020203" stroke-width="0.256" stroke-linecap="round" stroke-linejoin="round" stroke-miterlimit="10" d="
		M28.4,13.8c-0.8-0.4-2.7-0.7-2.7-2c0.1-1.6-0.5-2.9-1.6-3c-0.8,0-1.4-0.4-1.4-0.8c-0.1,0.3,0.1,0.9,0.4,1c0.6,0.2,1.4,0.7,1.3,1.5
		c-0.3,2.8,0.4,3.3,1.4,3.9"/>
	
		<path fill="#020203" stroke="#020203" stroke-width="0.256" stroke-linecap="round" stroke-linejoin="round" stroke-miterlimit="10" d="
		M28.6,9.3c0.5-1.9-1.1-2-2.2-2c-2.2-0.1-1.3-0.7-1.5-2.7c-0.1,0.6-2.3,3.4,0.5,3.7c0.5,0.1,1.5,0.2,1.4,1.3c-0.1,0.7-0.7,1-0.6,1.7
		c0,0.7,1,1.7,2.3,2.4"/>
	
		<path fill="#020203" stroke="#020203" stroke-width="0.256" stroke-linecap="round" stroke-linejoin="round" stroke-miterlimit="10" d="
		M31.5,8.1c1.5-0.9,2-2.8,1.8-4.4c-0.1-0.8-0.8-1.1-1.2-2c0,0.5,0.1,1.3,0.2,1.6c0.2,0.7,0.4,1.8-0.4,2.5c-2.3,1.3-2.7,1.9-2.9,3"/>
	
		<path fill="#020203" stroke="#020203" stroke-width="0.256" stroke-linecap="round" stroke-linejoin="round" stroke-miterlimit="10" d="
		M32.5,13.7c-1-1.2-2.8-4.7,2.2-4.4c1.8,0.2,3.2-0.9,2.5-2.9c-0.4-0.7-0.8-2.3-0.2-3.1c-0.9,0.3-1.1,1.5-0.7,3
		c0.3,1.8-1.1,2-5.5,1.8C29,8,27.8,9.5,28.5,11.5"/>
	
		<path fill="#020203" stroke="#020203" stroke-width="0.256" stroke-linecap="round" stroke-linejoin="round" stroke-miterlimit="10" d="
		M33.1,12.3c-0.7-1-1-2.2-1.4-2.4"/>
	
		<path fill="#020203" stroke="#020203" stroke-width="0.256" stroke-linecap="round" stroke-linejoin="round" stroke-miterlimit="10" d="
		M34.6,14.8c-0.2-1.1,0.3-1.9,1.3-2.1c1.6-0.3,3.3-1.2,3.9-2.1c0.7-1.2,0.4-3.2-1.2-4c2,3.5-0.3,4.6-1.5,4.3
		c-2.6-0.8-4.9,1.3-4.7,4.6"/>
	
		<path fill="#020203" stroke="#020203" stroke-width="0.256" stroke-linecap="round" stroke-linejoin="round" stroke-miterlimit="10" d="
		M33.1,17c0.4-0.2,0.8-0.6,0.8-0.9c0.3-1.5,1.9-3.2,3.6-3.4c2.3-0.1,3.1-1.4,3-2.8c0.5,1.9,0.1,3.3-2.2,3.8c-1,0-1.7,0.8-1.7,1.9"/>
	
		<rect x="28.5" y="11.4" fill="#020203" stroke="#020203" stroke-width="0.2456" stroke-linecap="round" stroke-linejoin="round" stroke-miterlimit="10" width="3.9" height="4.2"/>
	
		<rect x="31.5" y="10" transform="matrix(0.8827 -0.4699 0.4699 0.8827 -1.8507 16.437)" fill="#020203" stroke="#020203" stroke-width="0.533" stroke-linecap="round" stroke-linejoin="round" stroke-miterlimit="10" width="1" height="3.8"/>
	
		<rect x="29.8" y="11.1" fill="#020203" stroke="#020203" stroke-width="0.256" stroke-linecap="round" stroke-linejoin="round" stroke-miterlimit="10" width="2.3" height="1.4"/>
	
		<rect x="27.9" y="35.2" fill="#020203" stroke="#020203" stroke-width="0.256" stroke-linecap="round" stroke-linejoin="round" stroke-miterlimit="10" width="4.2" height="3.8"/>
	
		<rect x="32.4" y="37.6" fill="#020203" stroke="#020203" stroke-width="0.256" stroke-linecap="round" stroke-linejoin="round" stroke-miterlimit="10" width="2.8" height="1.4"/>
	
		<rect x="32.6" y="37" fill="#020203" stroke="#020203" stroke-width="0.256" stroke-linecap="round" stroke-linejoin="round" stroke-miterlimit="10" width="1.9" height="1.7"/>
	
		<rect x="27.7" y="11.5" transform="matrix(0.3993 -0.9168 0.9168 0.3993 3.9662 35.1225)" fill="#020203" stroke="#020203" stroke-width="0.256" stroke-linecap="round" stroke-linejoin="round" stroke-miterlimit="10" width="2.1" height="6.1"/>
	
		<rect x="31.3" y="14" fill="#020203" stroke="#020203" stroke-width="0.256" stroke-linecap="round" stroke-linejoin="round" stroke-miterlimit="10" width="2.4" height="2.9"/>
	
		<rect x="33.1" y="14.6" fill="#020203" stroke="#020203" stroke-width="0.256" stroke-linecap="round" stroke-linejoin="round" stroke-miterlimit="10" width="1.2" height="1.8"/>
	
		<rect x="33.3" y="16.1" transform="matrix(0.9318 -0.3629 0.3629 0.9318 -3.5169 13.7426)" fill="#020203" stroke="#020203" stroke-width="0.256" stroke-linecap="round" stroke-linejoin="round" stroke-miterlimit="10" width="3" height="0.2"/>
</g>
</svg>
