<?xml version="1.0" encoding="utf-8"?>
<!-- Generator: Adobe Illustrator 22.1.0, SVG Export Plug-In . SVG Version: 6.00 Build 0)  -->
<svg version="1.1" xmlns="http://www.w3.org/2000/svg" xmlns:xlink="http://www.w3.org/1999/xlink" x="0px" y="0px"
	 viewBox="0 0 1000 1000" enable-background="new 0 0 1000 1000" xml:space="preserve">
<g id="Layer_1">
</g>
<g id="Layer_3">
	<circle fill="#D4C5AC" cx="500" cy="500" r="500"/>
</g>
<g id="Layer_2">
	<path stroke="#000000" stroke-width="4" stroke-linecap="round" stroke-linejoin="round" stroke-miterlimit="10" d="M596.6,437.4
		c-9.6,2.8-21,10.7-28.9,16.2c-12.2-11.2-29.3-18.1-36.2-18.5c17.2-3.2,55.9-0.7,65.1,2"/>
	<path fill="none" stroke="#000000" stroke-width="4" stroke-linecap="round" stroke-linejoin="round" stroke-miterlimit="10" d="
		M567.5,601.8c-8.7-3-0.5-18.3,9.9-10.2"/>
	<path fill="none" stroke="#000000" stroke-width="4" stroke-linecap="round" stroke-linejoin="round" stroke-miterlimit="10" d="
		M422.4,601.8c8.7-3,0.5-18.3-9.9-10.2"/>
	
		<circle fill="none" stroke="#000000" stroke-width="4" stroke-linecap="round" stroke-linejoin="round" stroke-miterlimit="10" cx="495" cy="587" r="4.4"/>
	<path fill="none" stroke="#000000" stroke-width="4" stroke-linecap="round" stroke-linejoin="round" stroke-miterlimit="10" d="
		M426.6,624.8c17.7-6.2,90-10.6,133.8-0.9"/>
	<path fill="none" stroke="#000000" stroke-width="4" stroke-linecap="round" stroke-linejoin="round" stroke-miterlimit="10" d="
		M426.6,634c17.7-6.2,90-10.6,133.8-0.9"/>
	<path fill="none" stroke="#000000" stroke-width="4" stroke-linecap="round" stroke-linejoin="round" stroke-miterlimit="10" d="
		M426.6,640.6c17.7-6.2,90-10.6,133.8-0.9"/>
	<path stroke="#000000" stroke-width="4" stroke-linecap="round" stroke-linejoin="round" stroke-miterlimit="10" d="M426.6,640.6
		c43.7,9.8,116,5.4,133.8-0.9h0c1-0.4,2.6-4.2,0-6.6c2.3-4.4,1.6-8.7,0-9.3c0-6.8-0.1-12.4-0.2-12.4c8.2-14,25.2-23.5,23.6-31.8
		c-24.6-15.3-45.8,3.8-29.5,23c-7.2,2.8-17.7-0.4-21.4-6c-11.2,10.7-25.8,9.2-30.6,0.8c15.3,0,15.3-28.3-7.3-28.3
		c-22.5,0-22.5,28.3-7.3,28.3l0,0c-4.7,8.4-19.4,9.9-30.6-0.8c-3.8,5.6-14.2,8.8-21.4,6c16.3-19.3-4.9-38.3-29.5-23
		c-1.7,8.3,15.4,17.8,23.6,31.8c-1.7,0-3.2,5.9-3.2,13.2c-1.6,0.5-2.3,4.9,0,9.3c-2.6,2.4-1,5.9,0,6.3"/>
	<path stroke="#000000" stroke-width="4" stroke-linecap="round" stroke-linejoin="round" stroke-miterlimit="10" d="M425.6,574.3
		c0.2-1.6,0.4-3.8,0.5-4.3c-3.1,0.3-8.2-0.8-9.9-2.1c6.9-5.4,12-18.2,14.2-25.1c-3.8,1-8.5,0.4-10.2-0.8c6.7-4.2,14-13.7,16.2-21.7
		c-3.1,0.6-7.5-0.5-8.6-2.1c11.3-8.8,11.9-23.9,21-27c3.8-1.7,11-3.1,12.6-5c-30.6,2.5-48.6-16.6-64.5-35.5
		c21.3-3.4,27.8-10.6,48.2-10.6c14.1,0,25.7,7.3,34.5,16c0-4.9-4.1-9.6-9.2-14.4c3-2.8,3.8-6.3,3.9-10c-0.9-9-15.5-14.7-46-14.7
		c-82.7,0-104.5-9.7-119.9-44.3c-17.8-47,10.8-91,56.9-93.9c-55.9,31.2-39.8,80.3,14.8,54.5c-26.8,28.6-24.8,52.1-10.8,55.1
		c22.8-1.3,30-34.5,50.5-34.5c-23.1,30.2-9.2,44.7,12.7,51c-5.3-25.1,8.4-48.8,27.3-51c-10,12.9-15.9,42.5-3.5,50.2
		c3-11.8,14.7-25.9,26.9-30.8c-18.8,26.1-4.9,35.3,13.2,55.3c18.1-20.1,31.9-29.3,13.2-55.3c12.2,4.8,23.9,19,26.9,30.8
		c12.4-7.7,6.5-37.2-3.5-50.2c18.9,2.2,32.6,25.9,27.3,51c21.9-6.3,35.8-20.8,12.7-51c20.5,0,27.7,33.2,50.5,34.5
		c14-3,16-26.5-10.8-55.1c54.6,25.8,70.8-23.3,14.8-54.5c46.1,2.9,74.7,47,56.9,93.9C668.8,407.3,647,417,564.3,417
		c-30.5,0-45.1,5.6-46,14.7c-0.3,5.5,4.5,9.8,12.5,10.8c24.3,3.7,51.7,39.3,94.7,48.7c13.3,2.5,15.8,20.3-0.8,24.8
		c-9.1,1.9-18.6,0.2-16.3,3.1c7.1,4.3,12,21.6,3.8,18c-13.3-9.5-49.7-12-72.3-8.8c-18.3,1.4-61.8-15.8-58.4-55.1
		c-4.1-5.4-23.6-14.1-42.6-7.6c4,5,17.4,0,37,10c-5.3,30.2,23.2,50.4,47.2,57.5c2,20,14.6,40.9,24.6,52.6"/>
	
		<circle fill="none" stroke="#000000" stroke-width="4" stroke-linecap="round" stroke-linejoin="round" stroke-miterlimit="10" cx="534.1" cy="477.3" r="8.8"/>
	
		<circle fill="none" stroke="#000000" stroke-width="4" stroke-linecap="round" stroke-linejoin="round" stroke-miterlimit="10" cx="534.4" cy="477.3" r="1.6"/>
	<path stroke="#000000" stroke-width="4" stroke-linecap="round" stroke-linejoin="round" stroke-miterlimit="10" d="M438.5,771
		c-7,34.7,6.1,78.9,48,79.5c56.7,0.7,53.2-45.2,42.5-63.5c-3-9-17.8-16-17.8-51.8c1.7-13.8,2-27.3-7.3-52.3
		c1.3,5.1,0.5,20.5-4.6,30.5c-5.2,10.6-5.4,48.8,0.6,63.3c5.3,15.7,4,37.8-16.3,36.5c-32.3-2.8-6.6-62.5-6.7-97.3
		c1.4-22.8-12.8-30.3-10.1-60.5c-5.1,10.4-9.3,42.8-9.7,58C455,737.4,442.8,751.7,438.5,771z"/>
	<path stroke="#000000" stroke-width="4" stroke-linecap="round" stroke-linejoin="round" stroke-miterlimit="10" d="M439.7,766.5
		c-33.6-13.8-15.9-58.8-16.4-88.5c0-40.7-30.9-46.6-28.9-80.5c-7.8,39,10,56.8,6.7,80.5c-1.8,15.3-15,28.6-16,57.3
		c-3.9,60.5,34.3,69.6,53.5,71.6"/>
	<path stroke="#000000" stroke-width="4" stroke-linecap="round" stroke-linejoin="round" stroke-miterlimit="10" d="M385.3,730
		c-28.8-22.2-41.8-48.7-45.8-78.2c-7.5-40.3,16.1-47.3,22.8-82.6c3.4-17.2-25.3-49.9-14.3-80.6c0,20.6,32.8,39.9,28.3,76.9
		c-10.1,69.9,5.4,104,18.6,131.1"/>
	<path stroke="#000000" stroke-width="4" stroke-linecap="round" stroke-linejoin="round" stroke-miterlimit="10" d="M338.1,635.2
		C288.5,607,263.5,523.8,296,470.6c10.1-15.9,8.2-56.1,3-72.6c15.9,10.3,26.3,55.8,15.5,90.6c-4.7,14.9-8,55.6,9.3,65.9
		c11.8,8.4,24,27.8,26.4,45.7"/>
	<path stroke="#000000" stroke-width="4" stroke-linecap="round" stroke-linejoin="round" stroke-miterlimit="10" d="M282.3,511.3
		c-31.6-23.4-47.6-70.3-42.8-109.3c4.5-42,33.7-46.8,37-118.5c9.3,14,11.3,49.8,2.5,76.5c-11.6,43.1-5.8,95.4,17,108.4"/>
	<path stroke="#000000" stroke-width="4" stroke-linecap="round" stroke-linejoin="round" stroke-miterlimit="10" d="M241.3,391.2
		c-24.4-39.5-28.5-91.2-8.5-115.7c7.3-8.6,13.5-22.7,11-36.3c-3.3-12.8,0.7-22.8,5.3-29.8c0.7,6.5,0,18,5.5,31.2
		c4.7,13.3,6,31.8,0.1,51.8c-4.9,16.4-5.1,48.7,3.2,62.9"/>
	<path stroke="#000000" stroke-width="4" stroke-linecap="round" stroke-linejoin="round" stroke-miterlimit="10" d="M535.3,810.8
		c36.9-4.4,65.7-55.6,26.5-107c-11.1-14.3-13.1-19.1-8.2-52c-16.6,13.8-18.3,44.8-5.9,60.8c7.3,10.7,7.6,23.5,1.8,28
		c-11.4,12.1-21.1,30.5-21.5,44.2"/>
	<path stroke="#000000" stroke-width="4" stroke-linecap="round" stroke-linejoin="round" stroke-miterlimit="10" d="M578.9,739.2
		c22.6-3.8,51.6-51.4,40.8-70.2c-11.6-17.8-21.4-34.4-11.3-55.8c13.2-26.9,3.3-46.6-0.4-49.5c-0.2,13.8,0,24.3-10.1,36.5
		c-13.8,11.5-13.8,37.3-11.5,46.1c7.2,22.6-0.3,53.9-14.7,73.2"/>
	<path stroke="#000000" stroke-width="4" stroke-linecap="round" stroke-linejoin="round" stroke-miterlimit="10" d="M621.2,686.8
		c35.3-8.9,48.8-46.2,46-86.5c-1.5-26-21.8-41.5-18.8-79.5c-7.1,7.7-16.3,18.5-13.8,40c3.7,22.6,9.3,25,7,43.3
		c-0.6,24.8-13.6,47.9-25.2,58.8"/>
	<path stroke="#000000" stroke-width="4" stroke-linecap="round" stroke-linejoin="round" stroke-miterlimit="10" d="M662.9,581.3
		c-1.3-18.2,3.2-32.5,9.4-45.1c2.3-5.9,3.5-20.9,0-31c-2.6-10.3,0.4-21,3.3-27.2c3.9-6.4,3.2-26.7,0-41.8
		c8.1,7.2,15.2,24.9,16.2,36.7c1.8,11.2-1.4,19.9,5.5,30.7c9.1,8.3,9.2,12.4,9.2,23.5c0,19.5-4.2,29.6-4,38.9
		c1.4,38.3-20.5,48.6-35,48.9"/>
	<path stroke="#000000" stroke-width="4" stroke-linecap="round" stroke-linejoin="round" stroke-miterlimit="10" d="M705.4,543.6
		c14.1-28.5,46.9-37.5,44.1-65c0-21.6-6.5-43.6-22-61.4c-9.2-15-20.4-34.3-17.8-55.5c-6,6.2-9.9,22.7-9,37.5c1.7,23,9.1,29.3,9,55.3
		c0.8,19.8-7.3,33.8-13.4,47.4"/>
	<path stroke="#000000" stroke-width="4" stroke-linecap="round" stroke-linejoin="round" stroke-miterlimit="10" d="M731.6,422.3
		c-2.9-15.6-1.9-37.3,1.9-47.8c2.5-9.1,1.7-29.6-7.5-38c-12.5-11.3-18.5-41.2-7.5-58.8c0.5,22.3,18.8,35.3,26.3,53.8
		c10.9,22.8,15.8,33.3,18.5,60.8c3.9,31.5-5.3,55.5-16,64.8"/>
	<path stroke="#000000" stroke-width="4" stroke-linecap="round" stroke-linejoin="round" stroke-miterlimit="10" d="M738.5,319.9
		c3.3-4.5,3.8-19.1,2.8-27.2c-4.8-25.9,1.2-59.5,10.3-67.3c-9.9,37,4.9,36.3,11.6,52.4c18.1,26.9,28.6,78.4,0.9,111.8"/>
	<path fill="none" stroke="#000000" stroke-width="4" stroke-linecap="round" stroke-linejoin="round" stroke-miterlimit="10" d="
		M258.5,259.6c127-99,167,4.4,252.2,6.8"/>
	<path fill="none" stroke="#000000" stroke-width="4" stroke-linecap="round" stroke-linejoin="round" stroke-miterlimit="10" d="
		M740.4,259c-134.4-79.5-164.2,7.4-229.7,7.4"/>
	<path stroke="#000000" stroke-width="4" stroke-linecap="round" stroke-linejoin="round" stroke-miterlimit="10" d="M443,215.5
		c-13.1-5.7-42.2-10.8-42.9-30.5c2.3-25-7.8-45.6-25-46.9c-12.3,0-22.3-5.8-22.3-12.9c-1.2,5.3,1.1,13.6,6.9,16
		c9.8,3.5,21.9,11.2,20.8,23.5c-4.1,43.8,6.1,52.2,22.6,61.3"/>
	<path stroke="#000000" stroke-width="4" stroke-linecap="round" stroke-linejoin="round" stroke-miterlimit="10" d="M446.3,145
		c7.3-29.3-16.9-31.1-35.1-30.8c-34.4-0.9-19.9-11.1-23.3-42.8c-1.4,8.6-36.4,53.8,8.1,58.4c7.5,1.5,22.9,3.5,21.4,20.6
		c-1.4,11.1-10.5,15.3-10,27.3c-0.2,11.1,15.1,26.1,35.8,37.8"/>
	<path stroke="#000000" stroke-width="4" stroke-linecap="round" stroke-linejoin="round" stroke-miterlimit="10" d="M491.7,127
		c23.1-14.3,31.6-43.8,27.8-68.6c-1.7-11.8-13-17.2-18.2-31.5c-0.4,8.4,0.8,20.5,2.5,24.5c3.6,10.8,6.6,28.7-6.3,38.7
		c-36.3,20.5-42.4,30.3-45.7,47.1"/>
	<path stroke="#000000" stroke-width="4" stroke-linecap="round" stroke-linejoin="round" stroke-miterlimit="10" d="M507.8,214.5
		c-16.2-19.1-44.5-73.9,33.9-69.1c28.4,2.6,49.5-13.7,38.3-45c-6.1-11.5-12.4-36.6-2.8-49c-13.6,4.2-17.5,22.7-11.3,46.8
		c4.5,28.3-17.3,31.4-85.7,28.3c-27.5-1.1-45.4,22.6-34.6,53.5"/>
	<path stroke="#000000" stroke-width="4" stroke-linecap="round" stroke-linejoin="round" stroke-miterlimit="10" d="M517.6,192.6
		c-10.6-15.7-15.2-35-21.2-37.6"/>
	<path stroke="#000000" stroke-width="4" stroke-linecap="round" stroke-linejoin="round" stroke-miterlimit="10" d="M540,231.5
		c-2.5-16.8,4.1-30,20.5-32.6c25.6-4,51-19.5,60.3-32.5c10.9-18.4,6.1-49.3-18.3-62.5c31.3,54.3-4.5,71.8-23.8,67.3
		c-40.3-12.2-76.5,19.9-73.3,71.7"/>
	<path stroke="#000000" stroke-width="4" stroke-linecap="round" stroke-linejoin="round" stroke-miterlimit="10" d="M517.9,266.1
		c6.5-2.5,12.2-9.2,13.1-13.9c4.6-23.1,30.4-50.3,56.1-52.4c35.5-2.1,47.9-21.2,47.5-43.4c7.4,29.6,1.1,52.3-33.9,59.1
		c-15.1,0-27.3,13.1-27.3,29.2"/>
	
		<rect x="445.4" y="178.8" stroke="#000000" stroke-width="3.837" stroke-linecap="round" stroke-linejoin="round" stroke-miterlimit="10" width="61.6" height="66.4"/>
	
		<rect x="492.3" y="156.5" transform="matrix(0.8827 -0.4699 0.4699 0.8827 -28.9197 256.8264)" stroke="#000000" stroke-width="8.3283" stroke-linecap="round" stroke-linejoin="round" stroke-miterlimit="10" width="15.5" height="59.7"/>
	
		<rect x="465" y="173.4" stroke="#000000" stroke-width="4" stroke-linecap="round" stroke-linejoin="round" stroke-miterlimit="10" width="36.1" height="21.3"/>
	
		<rect x="435.7" y="550.7" stroke="#000000" stroke-width="4" stroke-linecap="round" stroke-linejoin="round" stroke-miterlimit="10" width="65.2" height="58.6"/>
	
		<rect x="507" y="587" stroke="#000000" stroke-width="4" stroke-linecap="round" stroke-linejoin="round" stroke-miterlimit="10" width="44" height="22.3"/>
	
		<rect x="509.8" y="578.8" stroke="#000000" stroke-width="4" stroke-linecap="round" stroke-linejoin="round" stroke-miterlimit="10" width="29.8" height="26.3"/>
	
		<rect x="401.9" y="210.8" transform="matrix(0.9168 0.3993 -0.3993 0.9168 128.0888 -160.7087)" stroke="#000000" stroke-width="4" stroke-linecap="round" stroke-linejoin="round" stroke-miterlimit="10" width="95.8" height="32.6"/>
	
		<rect x="489.6" y="218.4" stroke="#000000" stroke-width="4" stroke-linecap="round" stroke-linejoin="round" stroke-miterlimit="10" width="36.9" height="44.8"/>
	
		<rect x="517.4" y="228.5" stroke="#000000" stroke-width="4" stroke-linecap="round" stroke-linejoin="round" stroke-miterlimit="10" width="18.1" height="28.5"/>
	
		<rect x="520.4" y="251.9" transform="matrix(0.9318 -0.3629 0.3629 0.9318 -54.955 214.7078)" stroke="#000000" stroke-width="4" stroke-linecap="round" stroke-linejoin="round" stroke-miterlimit="10" width="47.3" height="3.5"/>
</g>
</svg>
