<?xml version="1.0" encoding="utf-8"?>
<!-- Generator: Adobe Illustrator 22.1.0, SVG Export Plug-In . SVG Version: 6.00 Build 0)  -->
<svg version="1.1" id="Layer_1" xmlns="http://www.w3.org/2000/svg" xmlns:xlink="http://www.w3.org/1999/xlink" x="0px" y="0px"
	 viewBox="0 0 128 128" style="enable-background:new 0 0 128 128;" xml:space="preserve">
<path d="M113.4,126.8c-5.7-4.7-11.2-9.7-16.8-14.6c-5.5-5-11-10-16.3-15.1c-5.4-5-10.7-10.2-16.1-15.3c-5.3-5.1-10.6-10.4-15.8-15.6
	L46.2,64l2.2-2.2c5.2-5.2,10.5-10.4,15.8-15.6c5.4-5.1,10.6-10.3,16.1-15.3c2.7-2.5,5.4-5.1,8.1-7.6l8.2-7.5
	c5.5-4.9,11.1-9.9,16.8-14.6c-4.7,5.7-9.7,11.3-14.6,16.8l-7.5,8.2c-2.5,2.7-5.1,5.4-7.6,8.1c-5,5.4-10.2,10.7-15.3,16.1
	C63.3,55.7,58.1,61,52.9,66.2v-4.4c5.2,5.2,10.4,10.5,15.6,15.8c5.1,5.4,10.3,10.6,15.3,16.1c5.1,5.4,10.1,10.9,15.1,16.3
	C103.8,115.6,108.7,121.1,113.4,126.8z"/>
<path d="M82,126.8c-5.7-4.7-11.2-9.7-16.8-14.6c-5.5-5-11-10-16.3-15.1c-5.4-5-10.7-10.2-16.1-15.3C27.5,76.7,22.3,71.4,17,66.2
	L14.8,64l2.2-2.2c5.2-5.2,10.5-10.4,15.8-15.6c5.4-5.1,10.6-10.3,16.1-15.3c2.7-2.5,5.4-5.1,8.1-7.6l8.2-7.5
	C70.8,10.9,76.3,5.9,82,1.2C77.3,6.9,72.4,12.5,67.4,18L60,26.2c-2.5,2.7-5.1,5.4-7.6,8.1C47.4,39.8,42.2,45,37,50.4
	C31.9,55.7,26.7,61,21.5,66.2v-4.4C26.7,67,31.9,72.3,37,77.6c5.1,5.4,10.3,10.6,15.3,16.1c5.1,5.4,10.1,10.9,15.1,16.3
	C72.4,115.6,77.3,121.1,82,126.8z"/>
</svg>
