<?xml version="1.0" encoding="utf-8"?>
<!-- Generator: Adobe Illustrator 22.1.0, SVG Export Plug-In . SVG Version: 6.00 Build 0)  -->
<svg version="1.1" id="Layer_1" xmlns="http://www.w3.org/2000/svg" xmlns:xlink="http://www.w3.org/1999/xlink" x="0px" y="0px"
	 viewBox="0 0 128 128" style="enable-background:new 0 0 128 128;" xml:space="preserve">
<path d="M14.8,1.2c5.7,4.7,11.2,9.7,16.8,14.6c5.5,5,11,10,16.3,15.1c5.4,5,10.7,10.2,16.1,15.3c5.3,5.1,10.6,10.4,15.8,15.6L82,64
	l-2.2,2.2C74.6,71.4,69.3,76.7,64,81.8c-5.4,5.1-10.6,10.3-16.1,15.3c-2.7,2.5-5.4,5.1-8.1,7.6l-8.2,7.5
	c-5.5,4.9-11.1,9.9-16.8,14.6c4.7-5.7,9.7-11.3,14.6-16.8l7.5-8.2c2.5-2.7,5.1-5.4,7.6-8.1c5-5.4,10.2-10.7,15.3-16.1
	c5.1-5.3,10.4-10.6,15.6-15.8v4.4C70.2,61,64.9,55.7,59.8,50.4C54.7,45,49.5,39.8,44.5,34.3C39.4,28.9,34.4,23.5,29.4,18
	C24.5,12.4,19.5,6.9,14.8,1.2z"/>
<path d="M46.2,1.2c5.7,4.7,11.2,9.7,16.8,14.6c5.5,5,11,10,16.3,15.1c5.4,5,10.7,10.2,16.1,15.3c5.3,5.1,10.6,10.4,15.8,15.6
	l2.2,2.2l-2.2,2.2c-5.2,5.2-10.5,10.4-15.8,15.6C90,86.9,84.8,92.1,79.3,97.1c-2.7,2.5-5.4,5.1-8.1,7.6l-8.2,7.5
	c-5.5,4.9-11.1,9.9-16.8,14.6c4.7-5.7,9.7-11.3,14.6-16.8l7.5-8.2c2.5-2.7,5.1-5.4,7.6-8.1c5-5.4,10.2-10.7,15.3-16.1
	c5.1-5.3,10.4-10.6,15.6-15.8v4.4c-5.2-5.2-10.4-10.5-15.6-15.8C86.1,45,80.9,39.8,75.9,34.3C70.8,28.9,65.8,23.5,60.8,18
	C55.9,12.4,50.9,6.9,46.2,1.2z"/>
</svg>
