<?xml version="1.0" encoding="utf-8"?>
<!-- Generator: Adobe Illustrator 22.1.0, SVG Export Plug-In . SVG Version: 6.00 Build 0)  -->
<svg version="1.0" id="Layer_1" xmlns="http://www.w3.org/2000/svg" xmlns:xlink="http://www.w3.org/1999/xlink" x="0px" y="0px"
	 viewBox="0 0 512 512" enable-background="new 0 0 512 512" xml:space="preserve">
<path fill="#F9F9F9" enable-background="new    " d="M153.2,64.7c-2.7-2.7-7-2.7-9.7,0l-78.4,78.4c-2.7,2.7-2.7,7,0,9.7l102.8,102.8
	l88.1-88.1L153.2,64.7z"/>
<path fill="#F9F9F9" enable-background="new    " d="M446.9,358.5L344.1,255.7L256,343.8l102.8,102.8c2.7,2.7,7,2.7,9.7,0l78.4-78.4
	C449.6,365.5,449.6,361.1,446.9,358.5z"/>
<path fill="#F9F9F9" d="M446.2,153.6c2.7-2.7,2.7-7,0-9.7l-78.5-78.5c-2.7-2.7-7-2.7-9.7,0L65.8,357.7c-2.7,2.7-2.7,7,0,9.7
	l78.5,78.5c2.7,2.7,7,2.7,9.7,0l102-102l88.1-88.1L446.2,153.6z"/>
<path fill="#F9F9F9" enable-background="new    " d="M229.8,370l21.9-21.8c2.4-2.4,6.3-2.4,8.7,0l21.9,21.8L256,343.8L229.8,370z"/>
<path fill="#F9F9F9" enable-background="new    " d="M290.2,133.1l-29.9,29.7c-2.4,2.4-6.3,2.4-8.7,0l-29.9-29.7
	c-0.3-0.3-0.6-0.5-0.9-0.8l35.2,35.2l35.2-35.2C290.8,132.6,290.5,132.8,290.2,133.1z"/>
<path fill="#F9F9F9" enable-background="new    " d="M133.6,221.4l29.7,29.9c2.4,2.4,2.4,6.3,0,8.7l-29.7,29.9
	c-0.1,0.1-0.1,0.2-0.2,0.3l34.5-34.5l-34.6-34.6C133.4,221.2,133.5,221.3,133.6,221.4z"/>
<path fill="#F9F9F9" enable-background="new    " d="M378.5,289.9L348.7,260c-2.4-2.4-2.4-6.3,0-8.7l29.7-29.9
	c0.2-0.2,0.4-0.5,0.6-0.7l-34.9,34.9l34.8,34.8C378.8,290.3,378.6,290.1,378.5,289.9z"/>
</svg>
