<?xml version="1.0" encoding="utf-8"?>
<!-- Generator: Adobe Illustrator 22.1.0, SVG Export Plug-In . SVG Version: 6.00 Build 0)  -->
<svg version="1.1" id="Layer_1" xmlns="http://www.w3.org/2000/svg" xmlns:xlink="http://www.w3.org/1999/xlink" x="0px" y="0px"
	 viewBox="0 0 512 512" enable-background="new 0 0 512 512" xml:space="preserve">
<path fill="#FFFFFF" d="M446.9,372.1l-78.4,78.4c-2.7,2.7-7,2.7-9.7,0L65.1,156.9c-2.7-2.7-2.7-7,0-9.7l78.4-78.4
	c2.7-2.7,7-2.7,9.7,0l293.7,293.7C449.6,365.1,449.6,369.5,446.9,372.1z"/>
<g>
	<path fill="#FFFFFF" d="M144.3,449.8l-78.5-78.5c-2.7-2.7-2.7-7,0-9.7L358,69.5c2.7-2.7,7-2.7,9.7,0l78.5,78.5c2.7,2.7,2.7,7,0,9.7
		L154,449.8C151.3,452.5,147,452.5,144.3,449.8z"/>
	<path fill="#FFFFFF" d="M144.3,449.8l-78.5-78.5c-2.7-2.7-2.7-7,0-9.7L358,69.5c2.7-2.7,7-2.7,9.7,0l78.5,78.5c2.7,2.7,2.7,7,0,9.7
		L154,449.8C151.3,452.5,147,452.5,144.3,449.8z"/>
	<path fill="#FFFFFF" d="M144.3,449.8l-78.5-78.5c-2.7-2.7-2.7-7,0-9.7L358,69.5c2.7-2.7,7-2.7,9.7,0l78.5,78.5c2.7,2.7,2.7,7,0,9.7
		L154,449.8C151.3,452.5,147,452.5,144.3,449.8z"/>
</g>
<g>
	<path fill="#FFFFFF" d="M211.3,309.6v68.1c0,5.5,6.6,8.2,10.5,4.4l29.9-29.7c2.4-2.4,6.3-2.4,8.7,0l29.9,29.7
		c3.9,3.9,10.5,1.1,10.5-4.4v-68.1c0-3.4-2.8-6.2-6.2-6.2h-77.2C214,303.4,211.3,306.2,211.3,309.6z"/>
	<path fill="#FFFFFF" d="M300.7,209.5v-68.1c0-5.5-6.6-8.2-10.5-4.4l-29.9,29.7c-2.4,2.4-6.3,2.4-8.7,0L221.7,137
		c-3.9-3.9-10.5-1.1-10.5,4.4v68.1c0,3.4,2.8,6.2,6.2,6.2h77.2C298,215.7,300.7,212.9,300.7,209.5z"/>
</g>
<g>
	<path fill="#FFFFFF" d="M206,214.9h-68.1c-5.5,0-8.2,6.6-4.4,10.5l29.7,29.9c2.4,2.4,2.4,6.3,0,8.7l-29.7,29.9
		c-3.9,3.9-1.1,10.5,4.4,10.5H206c3.4,0,6.2-2.8,6.2-6.2V221C212.1,217.7,209.4,214.9,206,214.9z"/>
	<path fill="#FFFFFF" d="M306,304.4h68.1c5.5,0,8.2-6.6,4.4-10.5L348.7,264c-2.4-2.4-2.4-6.3,0-8.7l29.7-29.9
		c3.9-3.9,1.1-10.5-4.4-10.5h-68c-3.4,0-6.2,2.8-6.2,6.2v77.2C299.9,301.6,302.6,304.4,306,304.4z"/>
</g>
</svg>
